<?xml version="1.0" encoding="utf-8"?>
<!-- Generator: Adobe Illustrator 21.1.0, SVG Export Plug-In . SVG Version: 6.00 Build 0)  -->
<svg version="1.1" id="Layer_1" xmlns="http://www.w3.org/2000/svg" xmlns:xlink="http://www.w3.org/1999/xlink" x="0px" y="0px"
	 viewBox="0 0 612 792" style="enable-background:new 0 0 612 792;" xml:space="preserve">
<style type="text/css">
	.st0{fill:#E2AFBF;}
	.st1{fill:#533724;}
	.st2{fill:#FFF3F3;}
	.st3{fill:#FFFFFF;}
	.st4{fill:#F9CDE4;}
	.st5{fill:#B8DDD8;}
	.st6{fill:#EDB2BF;}
</style>
<g id="XMLID_82_">
	<path class="st0" d="M390.8,390.6c-4.5-7.2-5.3-17.1-0.3-23.9c3-4.1,22-10.8,22.4-1.6c0.4-5.9,7.1-10.5,12.8-8.7
		c5.8,1.8,7,8.1,6.6,13.1c0.2-2.8,10.3,3,11.1,4c5.4,7.1-1.8,10.2-7.5,12.4c5,2.6,7.9,8.4,6.2,13.9c-1.7,5.4-7.2,9.1-12.8,9.2
		c0.1,0.6,0.3,1.1,0.4,1.7c-2.8,2.6-6.9,3.7-10.6,3c-3.8-0.7-7.1-3.2-8.8-6.7"/>
	<g>
		<path class="st1" d="M393,389.3c-3.9-6.8-5.8-18.7,2.4-23.2c2.3-1.3,14.5-6.3,15.1-1.1c0.3,2.5,4.5,3.7,4.9,0.7
			c0.7-4.4,4.9-8.5,9.7-6.9c4.5,1.5,4.9,6.7,4.7,10.7c-0.1,2.9,4.1,3.3,4.9,0.7c-0.8,2.6-1.3,0.3,0.1,1.4c0.6,0.5,1.7,0.7,2.4,1.1
			c1.2,0.6,2.8,1.3,3.8,2.2c4.9,4.4-2.5,7.4-5.9,8.7c-1.9,0.8-2.6,3.4-0.6,4.6c9.6,5.6,4.8,17.8-5.4,18.4c-1.7,0.1-2.8,1.5-2.4,3.2
			c0.1,0.6,0.3,1.1,0.4,1.7c0.2-0.8,0.4-1.6,0.6-2.4c-5.3,4.2-12.3,2.6-15.6-3.1c-1.6-2.8-5.9-0.3-4.3,2.5
			c5.1,8.8,15.6,10.4,23.4,4.2c0.7-0.6,0.8-1.6,0.6-2.4c-0.1-0.6-0.3-1.1-0.4-1.7c-0.8,1.1-1.6,2.1-2.4,3.2c15-1,22-19.5,7.9-27.8
			c-0.2,1.5-0.4,3-0.6,4.6c6.8-2.6,16.3-9,8.4-16.8c-2.7-2.6-13.1-8.8-15-2.7c1.6,0.2,3.3,0.4,4.9,0.7c0.3-6.8-2.1-14.4-9.6-15.8
			c-6.9-1.3-13.6,4-14.6,10.7c1.6,0.2,3.3,0.4,4.9,0.7c-1.2-10.5-14.6-7-21-4c-11.9,5.6-11.6,20.7-5.8,30.8
			C390.3,394.6,394.6,392.1,393,389.3L393,389.3z"/>
	</g>
</g>
<g id="XMLID_36_">
	<polygon class="st2" points="226.1,590.2 204.6,590.2 195.7,496.5 234.9,496.5 	"/>
	<g>
		<path class="st1" d="M226.1,587.7c-7.2,0-14.3,0-21.5,0c0.8,0.8,1.7,1.7,2.5,2.5c-2.6-27.3-5.2-54.6-7.7-81.9
			c-0.4-3.9-0.7-7.9-1.1-11.8c-0.8,0.8-1.7,1.7-2.5,2.5c13.1,0,26.1,0,39.2,0c-0.8-0.8-1.7-1.7-2.5-2.5c-2.6,27.3-5.2,54.6-7.7,81.9
			c-0.4,3.9-0.7,7.9-1.1,11.8c-0.3,3.2,4.7,3.2,5,0c2.6-27.3,5.2-54.6,7.7-81.9c0.4-3.9,0.7-7.9,1.1-11.8c0.1-1.3-1.2-2.5-2.5-2.5
			c-13.1,0-26.1,0-39.2,0c-1.3,0-2.6,1.1-2.5,2.5c2.6,27.3,5.2,54.6,7.7,81.9c0.4,3.9,0.7,7.9,1.1,11.8c0.1,1.3,1,2.5,2.5,2.5
			c7.2,0,14.3,0,21.5,0C229.3,592.7,229.3,587.7,226.1,587.7z"/>
	</g>
</g>
<g id="XMLID_61_">
	<polygon class="st2" points="283.3,599 261.8,599 253,505.3 292.2,505.3 	"/>
	<g>
		<path class="st1" d="M283.3,596.5c-7.2,0-14.3,0-21.5,0c0.8,0.8,1.7,1.7,2.5,2.5c-2.6-27.3-5.2-54.6-7.7-81.9
			c-0.4-3.9-0.7-7.9-1.1-11.8c-0.8,0.8-1.7,1.7-2.5,2.5c13.1,0,26.1,0,39.2,0c-0.8-0.8-1.7-1.7-2.5-2.5c-2.6,27.3-5.2,54.6-7.7,81.9
			c-0.4,3.9-0.7,7.9-1.1,11.8c-0.3,3.2,4.7,3.2,5,0c2.6-27.3,5.2-54.6,7.7-81.9c0.4-3.9,0.7-7.9,1.1-11.8c0.1-1.3-1.2-2.5-2.5-2.5
			c-13.1,0-26.1,0-39.2,0c-1.3,0-2.6,1.1-2.5,2.5c2.6,27.3,5.2,54.6,7.7,81.9c0.4,3.9,0.7,7.9,1.1,11.8c0.1,1.3,1,2.5,2.5,2.5
			c7.2,0,14.3,0,21.5,0C286.6,601.5,286.6,596.5,283.3,596.5z"/>
	</g>
</g>
<g id="XMLID_68_">
	<polygon class="st2" points="402.7,599 381.2,599 372.3,505.3 411.6,505.3 	"/>
	<g>
		<path class="st1" d="M402.7,596.5c-7.2,0-14.3,0-21.5,0c0.8,0.8,1.7,1.7,2.5,2.5c-2.6-27.3-5.2-54.6-7.7-81.9
			c-0.4-3.9-0.7-7.9-1.1-11.8c-0.8,0.8-1.7,1.7-2.5,2.5c13.1,0,26.1,0,39.2,0c-0.8-0.8-1.7-1.7-2.5-2.5c-2.6,27.3-5.2,54.6-7.7,81.9
			c-0.4,3.9-0.7,7.9-1.1,11.8c-0.3,3.2,4.7,3.2,5,0c2.6-27.3,5.2-54.6,7.7-81.9c0.4-3.9,0.7-7.9,1.1-11.8c0.1-1.3-1.2-2.5-2.5-2.5
			c-13.1,0-26.1,0-39.2,0c-1.3,0-2.6,1.1-2.5,2.5c2.6,27.3,5.2,54.6,7.7,81.9c0.4,3.9,0.7,7.9,1.1,11.8c0.1,1.3,1,2.5,2.5,2.5
			c7.2,0,14.3,0,21.5,0C405.9,601.5,405.9,596.5,402.7,596.5z"/>
	</g>
</g>
<g id="XMLID_69_">
	<polygon class="st2" points="357.8,590.2 336.3,590.2 327.5,496.5 366.7,496.5 	"/>
	<g>
		<path class="st1" d="M357.8,587.7c-7.2,0-14.3,0-21.5,0c0.8,0.8,1.7,1.7,2.5,2.5c-2.6-27.3-5.2-54.6-7.7-81.9
			c-0.4-3.9-0.7-7.9-1.1-11.8c-0.8,0.8-1.7,1.7-2.5,2.5c13.1,0,26.1,0,39.2,0c-0.8-0.8-1.7-1.7-2.5-2.5c-2.6,27.3-5.2,54.6-7.7,81.9
			c-0.4,3.9-0.7,7.9-1.1,11.8c-0.3,3.2,4.7,3.2,5,0c2.6-27.3,5.2-54.6,7.7-81.9c0.4-3.9,0.7-7.9,1.1-11.8c0.1-1.3-1.2-2.5-2.5-2.5
			c-13.1,0-26.1,0-39.2,0c-1.3,0-2.6,1.1-2.5,2.5c2.6,27.3,5.2,54.6,7.7,81.9c0.4,3.9,0.7,7.9,1.1,11.8c0.1,1.3,1,2.5,2.5,2.5
			c7.2,0,14.3,0,21.5,0C361,592.7,361,587.7,357.8,587.7z"/>
	</g>
</g>
<g id="XMLID_33_">
	<path class="st2" d="M306,238.9c0.8,0.5,1.5,0.9,2.3,1.4c-1.3,0.5-2.7-0.5-3.6-1.5c-5.1-5.4-11.1-17.7-6.3-24.5
		c4.2-6.1,19-9.1,25.7-9.8c0.9-0.1,2-0.1,2.6,0.6c0.4,0.4,0.4,1,0.5,1.5c1.6,13.7-5.9,28.1-18,34.7"/>
	<g>
		<path class="st1" d="M304.7,241.1c0.8,0.5,1.5,0.9,2.3,1.4c0.4-1.6,0.8-3.1,1.3-4.7c-3.1,0.2-6-6.5-7-8.8
			c-1.6-3.6-3.3-8.7-1.4-12.5c2.8-5.6,11.9-7.3,17.4-8.4c1.5-0.3,3.1-0.6,4.6-0.9c2.4-0.4,2.8-0.3,3.1,2.2c0.4,3.4-0.5,7.3-1.5,10.6
			c-2.6,8.1-8.1,14.9-15.4,19.1c-2.8,1.6-0.3,5.9,2.5,4.3c10.1-5.8,17.2-16.1,19-27.7c0.5-3.5,1.7-10.3-1.5-12.9
			c-3-2.4-9.4-0.2-12.7,0.6c-8.4,1.9-19.9,5.2-21.1,15.3c-0.6,5.3,1.4,10.8,4,15.3c2.1,3.8,5.2,9.1,10.1,8.8
			c2.4-0.1,3.4-3.3,1.3-4.7c-0.8-0.5-1.5-0.9-2.3-1.4C304.5,235.1,302,239.4,304.7,241.1L304.7,241.1z"/>
	</g>
</g>
<g id="XMLID_31_">
	<path class="st2" d="M168.6,208.7c-0.6,0.1-1.2,0.3-1.6,0.8c-0.5,0.7-0.4,1.6-0.2,2.5c2,8.3,4.2,16.9,9.7,23.4
		c3.2,3.8,8.9,3,12.8,0.9C215.9,221.5,188.1,204,168.6,208.7z"/>
	<g>
		<path class="st1" d="M168,206.3c-5.4,1.7-3.4,6.8-2.3,11c1.7,6.3,3.8,12.7,7.8,18.1c7.1,9.6,20,3.7,26.2-4.1
			c5.3-6.7,3-14.4-3.4-19.3C188.4,206,177.5,204.2,168,206.3c-3.1,0.7-1.8,5.5,1.3,4.8c6.4-1.4,13.4-0.6,19.4,2.1
			c4.3,2,10.3,6,8.8,11.6c-1.7,6.5-13.6,14.2-19.2,8.7c-2-1.9-10.9-21.9-9.1-22.4C172.4,210.1,171.1,205.3,168,206.3z"/>
	</g>
</g>
<g id="XMLID_75_">
	<path class="st0" d="M310.7,362.3c6.7-9.4,3.9-24.6-5.8-30.7c5.9-7.2,7-18.1,2.8-26.5c-0.9-1.8-2.7-3.8-4.6-2.9l0.6-0.2
		c9.9-9.6,10.9-27.3,2.1-38c10.4-8.6,9-28.2-2.5-35.1c-0.3-7.2-1.3-14.8-5.9-20.2c-4.6-5.4-13.9-6.9-18.3-1.3
		c-2.6-8.5-11.1-14.7-19.7-14.4c-8.6,0.3-16.7,7.1-18.7,15.8c-4.2-9.1-15-14.3-24.5-11.8c-9.5,2.5-16.5,12.4-16,22.5
		c-8.9,2.1-16.5,9.4-19.1,18.5c-2.6,9.1-0.1,19.5,6.3,26.3c-9.4,7.3-7.6,25,3,30.1l-1.5,1.3c-3.5,2.5-5.3,7.1-5.2,11.5
		c0.1,4.4,2.1,8.6,4.7,12.1c0.8,1.1,1.7,2.2,1.6,3.6c-0.1,1.3-1.2,2.3-2.1,3.2c-8,7.7-9.5,21.6-3.3,30.9l-1,2c-6,7.5-6,19.2,0,26.7
		l-0.4,0.8c-7.5,4-10.8,14.3-7.2,22c1.1,2.2,2.7,4.5,2.1,6.9c-0.4,1.9-2,3.2-3.2,4.6c-6.9,7.6-6,20.9,1.9,27.5
		c-10.3,10.2-8.6,29.6,3.2,37.9c-4.3,11.6,5.8,26,18.1,25.8c2.8,8.8,10.2,16,19.1,18.5s19,0.2,25.9-5.9l-0.9-0.4
		c3.1,7,10.1,12.1,17.8,12.8c7.6,0.8,15.5-2.8,20-9.1c3.5,9.1,12.8,15.6,22.5,15.9s19.3-5.7,23.4-14.6c5.5,6,12.5,11.3,20.5,12
		c8.1,0.7,17-5.1,17.3-13.2c5.3,5.6,12.7,9.8,20.3,9.2c7.7-0.6,15-7.2,14.5-14.9c0.9,5.9,9.6,7.8,14.2,4c4.6-3.8,5.5-10.6,4.2-16.4
		l1.9-1.6c12.7-6.8,16.3-26.3,6.8-37.2c12.5-9.8,14-30.7,3-42.1c4-7.6,3.6-17.4-1-24.7c-4.6-7.3-13.1-11.9-21.7-11.7
		c-1.9-7.8-8-14.5-15.6-17.1c-7.6-2.6-16.5-1.1-22.8,3.8c-2.6-6.3-8.9-11-15.7-11.7c-6.8-0.7-13.9,2.6-17.7,8.3
		c-0.7-10.7-16-17-24-9.8"/>
	<g>
		<path class="st1" d="M312.8,363.5c7.3-11,4.2-26.7-6.7-34.1c0.3,1.1,0.6,2.3,0.9,3.4c4.3-5.7,6.3-12.9,5.5-20
			c-0.6-5.1-2.8-13.9-9.4-13.2c0.2,1.6,0.4,3.3,0.7,4.9c6.4-1.7,9.6-13.3,10.3-18.8c1.1-8.5-1.2-16.8-6.5-23.5c0,1.2,0,2.4,0,3.5
			c11.6-10.2,9.9-30.7-3-39c0.4,0.7,0.8,1.4,1.2,2.2c-0.4-8.5-1.7-18.5-9-24.1c-5.8-4.4-14.4-4.8-19.5,0.8c1.4,0.4,2.8,0.7,4.2,1.1
			c-3.2-9.3-11.9-16.6-22.2-16.2c-10.2,0.4-18.5,8.1-21.1,17.7c1.5-0.2,3-0.4,4.6-0.6C238,198,227,192,216.2,194.5
			c-11.3,2.6-18.7,13.8-18.5,25.1c0.6-0.8,1.2-1.6,1.8-2.4c-21.8,5.7-28.5,32.6-13.9,49c0-1.2,0-2.4,0-3.5
			c-10.5,8.8-8.6,27.6,3.6,34c-0.2-1.3-0.3-2.6-0.5-3.9c-4.1,3.7-7.1,7.4-7.4,13.2c-0.2,3.1,0.5,6.3,1.7,9.2c0.8,1.8,1.7,3.4,2.8,5
			c1.6,2.3,1.1,3.2-0.6,5.4c-7.4,9.7-9.4,22.1-2.8,32.9c0-0.8,0-1.7,0-2.5c-2.3,4.7-5,8.4-5.6,13.7c-0.7,6.3,0.9,12.4,4.7,17.5
			c0-0.8,0-1.7,0-2.5c-0.9,1.7-3.9,3.2-5.2,4.9c-1.7,2.2-2.9,4.7-3.6,7.4c-0.7,2.9-0.9,5.9-0.3,8.9c1,4.7,4.7,7.4,1.2,12.2
			c-3.6,4.9-6.1,9.5-5.8,15.8c0.2,6.1,2.7,11.7,7.2,15.8c0-1.2,0-2.4,0-3.5c-11.4,11.9-9.4,32.1,3.8,41.8c-0.4-0.9-0.8-1.9-1.1-2.8
			c-4.5,13.6,6.3,28.6,20.5,29c-0.8-0.6-1.6-1.2-2.4-1.8c7.2,20.8,32.3,27.7,49.2,13.7c1.6-1.3,0.4-3.5-1.1-4.2
			c-0.3-0.1-0.6-0.3-0.9-0.4c-2.2-0.9-3.7,1.9-2.8,3.7c8.3,17,30.8,18.5,42,3.8c-1.4,0-2.9,0-4.3,0c9.2,21.7,39.8,22.4,50.2,1.3
			c-1.3,0.2-2.6,0.3-3.9,0.5c6.7,7.1,15.8,14,26.2,12.6c8.2-1.1,15.2-7.1,15.9-15.6c-1.4,0.6-2.8,1.2-4.3,1.8
			c6.4,6.5,15.4,11.6,24.8,9.5c8-1.7,14.4-8.7,14.3-17c-1.6,0.2-3.3,0.4-4.9,0.7c1.6,6.7,9.6,9.4,15.7,6.8
			c7.8-3.5,8.9-13.1,7.6-20.5c-0.2,0.8-0.4,1.6-0.6,2.4c2.9-2.4,6-4.1,8.4-7.1c2.7-3.3,4.7-7.3,5.6-11.5c1.9-8.4,0.2-17-5.3-23.8
			c0,1.2,0,2.4,0,3.5c13.5-11.2,14.7-32.8,3-45.6c0.1,1,0.3,2,0.4,3c8.9-18.7-4-40-24.9-40.2c0.8,0.6,1.6,1.2,2.4,1.8
			c-5.1-18.3-26.6-26.1-42.1-14.8c1.1,0.3,2.3,0.6,3.4,0.9c-7.2-15.6-27.7-16.9-37.7-3.4c1.6,0.4,3.1,0.8,4.7,1.3
			c-1.5-13.2-18-19.9-28.3-11.6c-2.5,2,1.1,5.5,3.5,3.5c6.8-5.5,18.8-0.6,19.8,8c0.3,2.5,3.1,3.3,4.7,1.3c8-10.8,23.6-8.4,29,3.4
			c0.5,1.1,2.4,1.6,3.4,0.9c12.8-9.4,30.4-3.7,34.7,11.8c0.3,1.1,1.3,1.8,2.4,1.8c16.8,0.2,27.9,17.4,20.5,32.7
			c-0.5,1.1-0.4,2.2,0.4,3c10,11,8.4,29.2-3,38.6c-1.1,0.9-0.8,2.6,0,3.5c8.2,10.1,5,25.4-5.3,32.6c-1.2,0.8-3,1.6-3.7,2.9
			c-1.2,2.1,0,4.7,0,7.1c-0.1,3.9-1.7,8.7-5.8,10c-3.3,1-7.3-0.2-8.2-3.8c-0.7-2.7-4.9-2.1-4.9,0.7c0.1,6.9-6.1,12.1-12.8,12.4
			c-6.9,0.4-13.1-3.8-17.8-8.5c-1.6-1.6-4.1-0.3-4.3,1.8c-0.6,7.1-8.2,11.3-14.8,10.7c-7.6-0.6-13.8-6-18.8-11.2
			c-1.1-1.1-3.2-0.9-3.9,0.5c-8.9,17.9-33.8,17-41.6-1.3c-0.8-1.9-3.3-1.3-4.3,0c-9.2,12-27,9.4-33.4-3.8c-0.9,1.2-1.9,2.4-2.8,3.7
			c0.3,0.1,0.6,0.3,0.9,0.4c-0.4-1.4-0.7-2.8-1.1-4.2c-14,11.5-34.9,5.5-40.9-11.5c-0.4-1.1-1.3-1.8-2.4-1.8
			c-11.1-0.3-19.2-12.2-15.7-22.6c0.4-1.1-0.3-2.2-1.1-2.8c-10.6-7.8-11.7-24.6-2.7-34c0.9-0.9,1-2.6,0-3.5
			c-4.6-4.2-6.7-10.5-5.4-16.7c0.7-3.5,2.3-5.8,4.5-8.4c1.4-1.6,2.7-3.1,3-5.3c0.4-2.5-0.8-4.7-1.8-6.9c-1.4-3-2.2-5.9-1.6-9.3
			c0.5-2.9,1.8-5.7,3.8-7.9c1.6-1.7,3.7-2.4,4.8-4.4c0.4-0.7,0.5-1.8,0-2.5c-2.8-3.8-4.3-8.1-4.2-12.8c0.2-4.7,2.1-7.8,4.3-11.7
			c1.4-2.6,1.1-3.5-0.2-6c-2.3-4.4-2.9-9.6-2-14.4c0.8-4.6,2.9-8.2,6-11.6c1.9-2.2,3.6-4.1,2.5-7.2c-1.7-4.8-5.8-7.9-5.9-13.5
			c-0.1-5,2.5-8,6-11.1c1.2-1,0.9-3.2-0.5-3.9c-9.4-5-10.6-19.4-2.5-26.2c1.1-0.9,0.8-2.6,0-3.5c-12.2-13.7-6.3-35.9,11.7-40.6
			c1-0.3,1.9-1.3,1.8-2.4c-0.1-9,5.6-18.3,14.9-20.3c8.7-1.9,17.2,3.2,21,10.8c1,2,4,1.4,4.6-0.6c2-7.4,8.3-13.7,16.3-14
			c7.9-0.3,14.8,5.3,17.3,12.5c0.6,1.7,2.8,2.6,4.2,1.1c6.3-6.9,15.3,0,17.8,6.7c1.2,3.2,1.7,6.6,2,9.9c0.3,3.3,0,4,2.4,5.9
			c9.2,7.4,10.1,22.6,1,30.5c-1.1,1-0.8,2.5,0,3.5c4,5.2,5.7,11.8,5.2,18.3c-0.3,3.1-1,6.3-2.3,9.1c-0.7,1.6-2.8,6.1-4.4,6.6
			c-2.6,0.7-2.2,5.2,0.7,4.9c4.4-0.4,4.7,10.9,4.5,13.4c-0.4,4.6-2.2,8.7-4.9,12.3c-0.9,1.1-0.1,2.7,0.9,3.4
			c8.8,6,10.6,18.6,4.9,27.3C306.7,363.7,311.1,366.2,312.8,363.5L312.8,363.5z"/>
	</g>
</g>
<path id="XMLID_27_" class="st2" d="M281,232.8c-7.7,0-13.9,7-13.9,15.7c0,0.3,0,0.6,0,1c-6.6-4.4-15.2-7.1-24.4-7.1
	c-9.3,0-17.8,2.7-24.4,7.1c0-0.3,0-0.6,0-1c0-8.7-6.2-15.7-13.9-15.7c-7.7,0-13.9,7-13.9,15.7c0,8.7,6.2,15.7,13.9,15.7
	c0.6,0,1.2-0.1,1.7-0.1c-1.1,2.9-1.7,6-1.7,9.1c0,17,17.2,30.8,38.3,30.8s38.3-13.8,38.3-30.8c0-3.2-0.6-6.2-1.7-9.1
	c0.6,0.1,1.1,0.1,1.7,0.1c7.7,0,13.9-7,13.9-15.7C294.9,239.8,288.7,232.8,281,232.8z"/>
<ellipse id="XMLID_20_" class="st1" cx="205.5" cy="249.6" rx="9.9" ry="10"/>
<ellipse id="XMLID_23_" class="st1" cx="280.7" cy="249.6" rx="9.9" ry="10"/>
<g id="XMLID_24_">
	<g>
		<path class="st3" d="M209,250.4c3.2,0,3.2-5,0-5C205.7,245.4,205.7,250.4,209,250.4L209,250.4z"/>
	</g>
</g>
<g id="XMLID_25_">
	<g>
		<path class="st3" d="M283.3,250.4c3.2,0,3.2-5,0-5C280.1,245.4,280.1,250.4,283.3,250.4L283.3,250.4z"/>
	</g>
</g>
<path id="XMLID_26_" class="st1" d="M246.7,267.1c0,3-7,8-7,8s-7-4.9-7-8c0-3,3.1-5.5,7-5.5C243.6,261.6,246.7,264.1,246.7,267.1z"
	/>
<g id="XMLID_28_">
	<g>
		<path class="st1" d="M225.3,280c0.6,4,5.2,6.2,8.9,5.2c4.7-1.3,6.5-6.8,6-11.2c-0.2-1.6-2.7-1.6-2.5,0c0.3,3.1-0.4,6.9-3.4,8.5
			c-2.6,1.4-6.2-0.1-6.6-3.1C227.5,277.8,225.1,278.5,225.3,280L225.3,280z"/>
	</g>
</g>
<g id="XMLID_29_">
	<g>
		<path class="st1" d="M251.8,279.4c-0.4,3-4,4.4-6.6,3.1c-3-1.5-3.7-5.4-3.4-8.5c0.2-1.6-2.3-1.6-2.5,0c-0.5,4.4,1.3,9.8,6,11.2
			c3.7,1.1,8.3-1.1,8.9-5.2C254.4,278.5,252,277.8,251.8,279.4L251.8,279.4z"/>
	</g>
</g>
<ellipse id="XMLID_30_" class="st4" cx="195.6" cy="273.6" rx="4.9" ry="4.5"/>
<ellipse id="XMLID_35_" class="st4" cx="290.6" cy="273.6" rx="4.9" ry="4.5"/>
<g id="XMLID_34_">
	<path class="st5" d="M234.7,333.5c-0.1-0.5-0.9,0.4-0.4,0.6s1-0.3,1.3-0.8c7.3-11.1,21.8-16.8,34.7-13.7
		c0.1,12.4,0.3,24.9,0.4,37.3c-9.9,3.3-21,2.5-30.3-2.1c-3.7-1.9-7.5-4.9-7.6-9.1c-0.1,4.2-3.9,7.3-7.6,9.1
		c-9.3,4.6-20.5,5.4-30.3,2.1c0.1-12.4,0.3-24.9,0.4-37.3c12.9-3.1,27.4,2.6,34.7,13.7c0.3,0.5,0.8,1,1.3,0.8s-0.3-1.1-0.4-0.6"/>
	<g>
		<path class="st1" d="M235.7,331.8c-0.1,0-0.2-0.1-0.2-0.1c-1-0.5-2-0.2-2.6,0.7c-0.7,0.9-0.5,1.6-0.1,2.6c0.3,0.8,1.4,1,2.1,0.9
			c2.3-0.5,3.3-3,4.7-4.7c2.4-2.7,5.3-5,8.4-6.7c6.7-3.6,14.4-4.7,21.8-3.1c-0.5-0.6-0.9-1.2-1.4-1.8c0.1,12.4,0.3,24.9,0.4,37.3
			c0.5-0.6,0.9-1.2,1.4-1.8c-6.3,1.9-12.8,2.5-19.3,1.3c-5.6-1.1-15.5-3.9-16.3-10.7c-0.3-2.4-3.5-2.4-3.8,0
			c-0.8,6.8-10.7,9.7-16.3,10.7c-6.5,1.2-13,0.7-19.3-1.3c0.5,0.6,0.9,1.2,1.4,1.8c0.1-12.4,0.3-24.9,0.4-37.3
			c-0.5,0.6-0.9,1.2-1.4,1.8c7.4-1.6,15.1-0.5,21.8,3.1c3.2,1.7,6,4,8.4,6.7c1.5,1.7,2.4,4.2,4.7,4.7c0.7,0.2,1.8-0.1,2.1-0.9
			c0.4-1,0.6-1.7-0.1-2.6c-0.6-0.8-1.6-1.2-2.6-0.7c-0.1,0-0.2,0.1-0.2,0.1c-2.1,1.2-0.2,4.4,1.9,3.2c0.1,0,0.2-0.1,0.2-0.1
			c-0.9-0.2-1.7-0.4-2.6-0.7c0-0.4,0.1-0.8,0.1-1.2c0.7-0.3,1.4-0.6,2.1-0.9c-0.9-0.2-2.4-2.9-3.1-3.7c-1.2-1.4-2.6-2.7-4.1-3.9
			c-2.7-2.1-5.6-3.8-8.7-5.1c-6.7-2.8-14-3.3-21.1-1.8c-0.8,0.2-1.4,1-1.4,1.8c-0.1,12.4-0.3,24.9-0.4,37.3c0,0.8,0.6,1.6,1.4,1.8
			c8.5,2.6,17.5,2.8,26,0c6.5-2.1,13.4-5.7,14.3-13.1c-1.3,0-2.5,0-3.8,0c0.9,7.4,7.8,11,14.3,13.1c8.5,2.8,17.5,2.6,26,0
			c0.8-0.2,1.4-1,1.4-1.8c-0.1-12.4-0.3-24.9-0.4-37.3c0-0.8-0.6-1.6-1.4-1.8c-7.1-1.5-14.3-1-21.1,1.8c-3.1,1.3-5.9,2.9-8.5,5
			c-1.4,1.1-2.6,2.2-3.8,3.5c-0.7,0.7-2.7,4-3.5,4.2c0.7,0.3,1.4,0.6,2.1,0.9c0,0.4,0.1,0.8,0.1,1.2c-0.9,0.2-1.7,0.4-2.6,0.7
			c0.1,0,0.2,0.1,0.2,0.1C235.9,336.2,237.8,333,235.7,331.8L235.7,331.8z"/>
	</g>
</g>
<g id="XMLID_37_">
	<path class="st5" d="M235.7,327.4h-5.9c-3.4,0-6.2,2.8-6.2,6.2v16.4c0,3.4,2.8,6.2,6.2,6.2h5.9c3.4,0,6.2-2.8,6.2-6.2v-16.4
		C241.9,330.2,239.1,327.4,235.7,327.4z"/>
	<g>
		<path class="st1" d="M235.7,324.9c-4.1,0-8.8-0.7-12,2.5c-2.8,2.8-2.5,6.5-2.5,10.1c0,7.7-2.3,20.2,8.7,21.1
			c3.6,0.3,8.2,0.5,11.1-1.8c3.6-2.8,3.5-6.8,3.5-10.8C244.4,338.1,246.6,326,235.7,324.9c-3.2-0.3-3.2,4.7,0,5
			c5.7,0.6,3.7,12.3,3.7,16.1c0,2.7,0.6,5.7-2.4,7.1c-1.9,0.9-5.2,0.9-7.2,0.5c-5.7-1.1-3.7-11.5-3.7-15.6c0-2-0.5-5.4,1.1-7
			c1.8-1.8,6.2-1.1,8.5-1.1C238.9,329.9,239,324.9,235.7,324.9z"/>
	</g>
</g>
<g id="XMLID_32_">
	<line class="st6" x1="222.4" y1="339.2" x2="215.8" y2="335.1"/>
	<g>
		<path class="st1" d="M223.7,337c-2.2-1.3-4.4-2.7-6.6-4c-2.8-1.7-5.3,2.6-2.5,4.3c2.2,1.3,4.4,2.7,6.6,4
			C223.9,343,226.4,338.7,223.7,337L223.7,337z"/>
	</g>
</g>
<g id="XMLID_56_">
	<line class="st6" x1="222.4" y1="345.1" x2="215.8" y2="348.4"/>
	<g>
		<path class="st1" d="M221.1,342.9c-2.2,1.1-4.4,2.2-6.6,3.3c-2.9,1.4-0.3,5.8,2.5,4.3c2.2-1.1,4.4-2.2,6.6-3.3
			C226.5,345.8,224,341.5,221.1,342.9L221.1,342.9z"/>
	</g>
</g>
<g id="XMLID_58_">
	<line class="st6" x1="245.2" y1="337.5" x2="251.8" y2="333.5"/>
	<g>
		<path class="st1" d="M246.4,339.7c2.2-1.3,4.4-2.7,6.6-4c2.7-1.7,0.2-6-2.5-4.3c-2.2,1.3-4.4,2.7-6.6,4
			C241.2,337,243.7,341.4,246.4,339.7L246.4,339.7z"/>
	</g>
</g>
<g id="XMLID_57_">
	<line class="st6" x1="245.2" y1="343.4" x2="251.8" y2="346.7"/>
	<g>
		<path class="st1" d="M243.9,345.6c2.2,1.1,4.4,2.2,6.6,3.3c2.9,1.4,5.4-2.9,2.5-4.3c-2.2-1.1-4.4-2.2-6.6-3.3
			C243.6,339.8,241,344.1,243.9,345.6L243.9,345.6z"/>
	</g>
</g>
</svg>
