<!DOCTYPE svg PUBLIC "-//W3C//DTD SVG 20010904//EN" "http://www.w3.org/TR/2001/REC-SVG-20010904/DTD/svg10.dtd">
<svg version="1.0" xmlns="http://www.w3.org/2000/svg" width="531px" height="349px" viewBox="0 0 5310 3490" preserveAspectRatio="xMidYMid meet">
<g id="layer1" fill="#000000" stroke="none">
 <path d="M2465 3299 c-193 -18 -205 -21 -365 -74 l-165 -56 -85 -78 c-47 -44 -82 -82 -79 -86 4 -3 209 -40 455 -81 l449 -74 240 -85 c200 -71 760 -245 787 -245 4 0 8 3 8 8 0 4 -91 114 -203 245 l-202 237 -135 81 c-208 125 -422 229 -467 228 -21 -1 -128 -10 -238 -20z"/>
 <path d="M840 3014 l-394 -34 -131 -77 c-71 -42 -132 -80 -135 -84 -4 -5 -16 -52 -29 -105 -21 -86 -23 -109 -16 -228 l7 -133 162 -192 162 -192 315 -170 315 -169 323 -91 c178 -50 325 -88 328 -86 2 3 -11 54 -29 114 l-34 108 -211 105 c-197 98 -218 111 -302 189 -50 46 -91 91 -91 100 0 9 5 32 10 53 9 30 23 44 84 82 l73 45 190 16 c132 10 205 12 240 6 27 -6 101 -17 164 -25 113 -15 466 -82 794 -151 163 -34 377 -103 730 -236 61 -22 124 -44 140 -49 17 -4 116 -42 220 -84 208 -83 346 -161 507 -284 120 -92 120 -99 -4 -159 l-86 -42 -134 14 c-73 8 -142 15 -153 15 -14 0 -32 -21 -64 -76 -24 -41 -41 -77 -38 -80 14 -14 222 -23 512 -24 319 0 321 0 523 35 l204 34 55 48 c125 107 111 85 129 215 l16 118 -34 38 c-18 22 -105 118 -192 215 l-160 176 -405 189 c-615 287 -869 386 -1376 537 -365 109 -456 132 -705 180 -375 72 -999 175 -1047 174 -21 -1 -216 -17 -433 -35z"/>
 <path d="M1584 2203 c3 -21 8 -65 11 -98 6 -55 164 -583 189 -631 6 -12 99 -139 206 -282 l195 -261 180 -80 180 -81 265 -15 265 -16 234 65 c129 36 237 70 240 74 3 5 63 96 133 203 l127 194 15 170 c8 94 12 173 8 177 -14 14 -781 326 -889 361 -193 64 -648 161 -991 211 -173 25 -327 46 -344 46 -29 0 -30 -1 -24 -37z"/>
 <path d="M920 1006 l0 -93 -100 -69 c-55 -38 -100 -72 -100 -75 0 -8 65 -19 118 -19 72 0 85 -23 97 -177 l11 -128 46 98 47 97 105 -52 c58 -29 108 -49 113 -45 4 4 -13 48 -37 97 l-44 89 33 86 c18 48 31 89 28 91 -3 3 -35 -4 -72 -15 -37 -12 -72 -21 -79 -21 -6 0 -42 52 -81 115 -38 63 -73 115 -77 115 -5 0 -8 -42 -8 -94z"/>
 <path d="M2165 655 c-4 -42 -5 -78 -2 -81 3 -3 44 2 91 12 66 14 89 15 98 6 6 -6 16 -63 21 -127 6 -63 13 -115 16 -115 3 0 35 23 71 51 l65 50 45 -91 c24 -49 49 -89 55 -87 5 2 34 59 63 128 29 68 57 128 61 132 4 4 43 -8 86 -28 42 -19 81 -35 85 -35 10 0 25 148 17 157 -3 3 -75 20 -159 38 -113 25 -209 38 -366 49 -117 9 -219 16 -226 16 -10 0 -16 -21 -21 -75z"/>
 </g>

</svg>