<?xml version="1.0" encoding="utf-8"?>

<!DOCTYPE svg PUBLIC "-//W3C//DTD SVG 1.1//EN" "http://www.w3.org/Graphics/SVG/1.1/DTD/svg11.dtd">
<svg version="1.1" id="Layer_1" xmlns="http://www.w3.org/2000/svg" xmlns:xlink="http://www.w3.org/1999/xlink" x="0px" y="0px"
	 viewBox="0 0 2560 1600" enable-background="new 0 0 2560 1600" xml:space="preserve">
<g>
	<path fill="#1F0EC5" d="M469.3527,538.686l39.4445-39.4446l-53.5437-53.5437l-6.4947,6.4948
		c3.6104,29.3507,10.4899,58.0652,20.2788,86.1783L469.3527,538.686z"/>
	<path fill="#550FC6" d="M538.8609,347.8477c-11.2842-4.4105-22.7849-7.8896-34.4344-10.7545l29.7158,29.7158l14.8865-14.8866
		C545.6514,350.5424,542.2643,349.1802,538.8609,347.8477z"/>
	<path fill="#B664E6" d="M469.0375,538.3708c0.0542,0.1555,0.1094,0.3109,0.1638,0.4664l0.1513-0.1512L469.0375,538.3708z"/>
	<path fill="#6522EA" d="M683.5275,752.8608l-18.8702,18.8702c23.1364,12.9012,47.1194,23.9471,71.6227,33.8823L683.5275,752.8608z"
		/>
	<path fill="#1CDFE2" d="M737.4057,806.0699l19.9756-19.9756c-21.6317-13.9059-42.9069-28.2913-63.3372-43.7502l-10.5167,10.5167
		l52.7525,52.7525C736.6552,805.7654,737.0302,805.9183,737.4057,806.0699z"/>
	<path fill="#FD821C" d="M841.1335,839.9117c-1.5513-2.009-2.1107-3.2805-3.0771-3.8655
		c-4.8616-2.9894-9.7435-5.9514-14.6283-8.9113l-7.4639,7.4639C823.9972,837.0214,832.295,838.988,841.1335,839.9117z"/>
	<path fill="#605303" d="M515.6425,414.8838c-0.356-10.2233,2.8483-12.0288,12.2832-10.4775
		c18.5434,3.0624,36.9163,6.7368,55.0612,11.2472l-48.8445-48.8445l-39.4445,39.4445l21.5784,21.5784
		C516.0131,423.5361,515.7874,419.2256,515.6425,414.8838z"/>
	<path fill="#FF953E" d="M590.4735,417.5652l30.4789-30.479c-22.967-13.5078-47.076-25.0107-71.9236-35.1638l-14.8865,14.8866
		l48.8445,48.8445C585.4867,416.2749,587.9825,416.9111,590.4735,417.5652z"/>
	<path fill="#DD2C8A" d="M815.9642,834.5988l7.4639-7.4639c-7.7892-4.7198-15.588-9.4327-23.3401-14.2309
		c-14.2951-8.8448-28.5762-17.726-42.7066-26.8098l-19.9756,19.9756c16.7645,6.77,33.7686,13.0291,50.9077,19.0155
		C797.4503,828.273,806.5237,831.7518,815.9642,834.5988z"/>
	<path fill="#FAE725" d="M508.7971,499.2415l14.6663-14.6661c-3.6095-18.4344-5.9992-37.3539-7.1871-56.7435l-21.5784-21.5784
		l-39.4445,39.4443L508.7971,499.2415z"/>
	<path fill="#0260EF" d="M494.6979,406.2534l-46.3828-46.3828c-2.9555,26.4302-3.2411,52.3674-1.0599,77.8291l7.9982,7.998
		L494.6979,406.2534z"/>
	<path fill="#3F07A8" d="M447.2552,437.6997c0.4153,4.8475,0.9114,9.6794,1.5035,14.4928l6.4947-6.4948L447.2552,437.6997z"/>
	<path fill="#396EBC" d="M672.3228,422.6147c-5.055-4.1243-10.1974-8.0975-15.419-11.9333l23.7704,23.7705l2.4525-2.4525
		C679.5751,428.7231,675.9841,425.6116,672.3228,422.6147z"/>
	<path fill="#105802" d="M694.0442,742.3441c-20.173-15.2643-39.5141-31.5855-57.5598-49.5276l-6.5007,6.5007l53.5437,53.5437
		L694.0442,742.3441z"/>
	<path fill="#06A8BF" d="M664.6573,771.731l18.8702-18.8702l-53.5437-53.5437l-29.4363,29.4363
		c9.5112,7.6505,19.4146,14.9509,29.7124,21.8956C641.4796,758.2182,652.9614,765.2092,664.6573,771.731z"/>
	<path fill="#381AD3" d="M502.3355,612.7906l20.5609-20.5609l-53.5437-53.5436l-0.1513,0.1512
		c7.496,21.4523,16.675,42.5568,27.4187,63.3202C498.4767,605.7435,500.3847,609.2855,502.3355,612.7906z"/>
	<path fill="#CE1D50" d="M448.8098,355.4771c-0.1802,1.4673-0.3309,2.9292-0.4947,4.3936l46.3828,46.3828l39.4445-39.4445
		l-29.7158-29.7158c-11.3229-2.7847-22.7865-4.9894-34.331-6.8947c-2.1466-0.3545-4.0757-0.5608-5.8163-0.6138l-14.2835,14.2834
		c-0.1072,0.8835-0.1976,1.8091-0.2703,2.7842C449.4965,349.6024,449.1912,352.527,448.8098,355.4771z"/>
	<path fill="#1BD680" d="M636.4844,692.8164c-5.94-5.9059-11.7476-11.9775-17.3887-18.2569
		c-11.5411-12.8422-22.0826-26.1063-31.6766-39.7652l-10.9791,10.9791l53.5437,53.5437L636.4844,692.8164z"/>
	<path fill="#C32741" d="M548.8434,566.2827c-6.0623-13.897-11.298-28.1309-15.7039-42.6989l-24.3423-24.3424l-39.4445,39.4446
		l53.5437,53.5436L548.8434,566.2827z"/>
	<path fill="#F29F2C" d="M587.4191,634.7943c-15.3243-21.8171-28.1732-44.6655-38.5757-68.5116l-25.947,25.947l53.5437,53.5437
		L587.4191,634.7943z"/>
	<path fill="#4402D7" d="M576.4401,645.7734l-53.5437-53.5437l-20.5609,20.5609c12.6696,22.764,27.3173,43.8263,43.8471,63.2402
		L576.4401,645.7734z"/>
	<path fill="#A331EB" d="M523.4634,484.5753l-14.6663,14.6661l24.3423,24.3424
		C529.2834,510.8337,526.0587,497.8298,523.4634,484.5753z"/>
	<path fill="#2FA4E8" d="M600.5475,728.7534l29.4363-29.4363l-53.5437-53.5437l-30.2574,30.2574
		C562.4999,695.1952,580.6534,712.7513,600.5475,728.7534z"/>
	<path fill="#5DE3A5" d="M680.6742,434.4519l-10.7136,10.7136c11.6598,4.839,23.6881,9.9314,36.8448,15.4176L680.6742,434.4519z"/>
	<path fill="#5D4CC7" d="M710.4692,462.1091c-9.1631-11.9359-18.1155-21.5979-27.3425-30.1097l-2.4525,2.4525l26.1312,26.1312
		C708.0181,461.0889,709.2368,461.5967,710.4692,462.1091z"/>
	<path fill="#C83F0D" d="M669.9606,445.1655l10.7136-10.7136l-23.7704-23.7705c-11.6049-8.5248-23.6179-16.3413-35.9513-23.5952
		l-30.4789,30.479c20.2678,5.3203,40.2383,11.7332,59.826,19.5707C656.8265,439.7466,663.3356,442.416,669.9606,445.1655z"/>
	<path fill="#10A676" d="M449.9957,343.8682l14.2835-14.2834C455.0656,329.3042,451.2624,333.429,449.9957,343.8682z"/>
	<path fill="#C8345E" d="M443.0375,779.176c5.6493,2.1412,11.4291,3.9849,17.318,5.4996
		c7.8694,2.0283,15.7634,3.8036,23.6787,5.3585l-25.9274-25.9274L443.0375,779.176z"/>
	<path fill="#E4371C" d="M366.2608,531.8408c-2.772-3.7384-5.137-8.4685-10.859-6.8665c-5.3151,1.4751-4.1961,6.5613-4.9082,10.6047
		c-1.014,5.8232-1.8753,11.6581-2.6235,17.5022l19.6048-19.605C367.0711,532.9304,366.6641,532.3871,366.2608,531.8408z"/>
	<path fill="#FD5028" d="M532.3562,796.9446c13.2775,1.257,26.6005,2.0452,39.9579,2.4806l-21.2192-21.2193L532.3562,796.9446z"/>
	<path fill="#54CD19" d="M404.563,710.563l-53.5437-53.5437l-6.6843,6.6843c5.0575,27.6128,17.6036,52.0577,35.1886,71.8988
		L404.563,710.563z"/>
	<path fill="#0EC609" d="M390.4638,617.5749l23.3417-23.3417c-15.7357-20.0142-31.1786-40.2654-46.3306-60.7569l-19.6048,19.605
		c-0.8423,6.5789-1.5345,13.1702-2.1299,19.77L390.4638,617.5749z"/>
	<path fill="#14D86B" d="M617.8749,799.7308c3.9418-0.0508,8.4431,1.0172,11.9017-2.2888c-0.3306-0.9155-0.3815-2.009-0.9155-2.3142
		c-2.5176-1.5513-5.1116-3.0263-7.7564-4.2979c-18.3589-8.9025-35.7327-19.0567-52.1508-30.483l-17.8591,17.8591l21.2192,21.2193
		C587.4628,799.9191,602.6552,799.9641,617.8749,799.7308z"/>
	<path fill="#CCC738" d="M390.4638,617.5749l-44.7236-44.7236c-1.6081,17.826-2.4953,35.7174-3.5879,53.6182
		c-0.4551,7.4491-0.3843,14.7412,0.1726,21.8553l8.6945,8.6945L390.4638,617.5749z"/>
	<path fill="#F11E10" d="M461.7479,653.3782c-16.2753-19.4796-32.2559-39.1934-47.9424-59.145l-23.3417,23.3417l53.5437,53.5437
		L461.7479,653.3782z"/>
	
		<rect x="369.622" y="626.2079" transform="matrix(-0.7071 0.7071 -0.7071 -0.7071 1148.1654 852.5527)" fill="#E3F15A" width="55.7828" height="75.7222"/>
	<path fill="#EC50DB" d="M342.3249,648.3248c0.4092,5.2266,1.0898,10.3534,2.0102,15.3788l6.6843-6.6843L342.3249,648.3248z"/>
	<path fill="#AE0699" d="M551.0949,778.2059l-53.5437-53.5437l-39.4445,39.4445l25.9274,25.9274
		c16.0255,3.1481,32.1398,5.3785,48.322,6.9105L551.0949,778.2059z"/>
	
		<rect x="413.196" y="689.7212" transform="matrix(0.7071 0.7071 -0.7071 0.7071 639.5399 -108.7618)" fill="#942F3B" width="75.7222" height="55.7828"/>
	<path fill="#3D0CF2" d="M568.954,760.3469c-20.7203-14.4205-39.8912-30.9047-57.5021-49.5853l-13.9006,13.9006l53.5437,53.5437
		L568.954,760.3469z"/>
	<path fill="#27E6A0" d="M443.0375,779.176l15.0693-15.0693L404.563,710.563l-25.0394,25.0394
		C396.6698,754.9483,418.6005,769.9139,443.0375,779.176z"/>
	<path fill="#D41510" d="M511.4518,710.7616c-3.0349-3.2192-6.0405-6.4798-8.9827-9.8302
		c-13.778-15.6907-27.3464-31.5451-40.7213-47.5532l-17.7404,17.7404l53.5437,53.5436L511.4518,710.7616z"/>
	<path fill="#5A86E8" d="M603.3546,1261.3832c-15.6111-0.8185-31.1323-2.2593-46.5839-4.1681l18.6783,18.6785
		c5.2996-0.7993,10.6002-1.6354,15.9016-2.5063L603.3546,1261.3832z"/>
	<path fill="#3353FF" d="M289.7105,1253.7651c8.3268,3.6897,16.8558,7.0203,25.6375,9.9031
		c5.3715,1.7631,10.7474,3.3918,16.1266,4.9175l-28.2923-28.2924L289.7105,1253.7651z"/>
	<path fill="#8AEF2F" d="M196.0949,1133.2059l-34.6358,34.6359c9.8226,9.5908,20.3188,18.5381,31.6676,26.7051
		c9.4677,6.8237,18.9608,13.5923,28.5732,20.1415l27.9387-27.9387L196.0949,1133.2059z"/>
	<path fill="#D74128" d="M596.9198,1272.4673c7.2224-1.1953,14.6483-3.1025,22.0486-9.2822
		c-4.7047-0.7122-7.5276-1.4241-10.3758-1.5259c-1.7484-0.0754-3.4919-0.1844-5.238-0.276l-12.004,12.004
		C593.207,1273.0823,595.0632,1272.7803,596.9198,1272.4673z"/>
	<path fill="#82122C" d="M372.5278,1278.0352c17.863,3.2046,35.7625,5.283,53.6923,6.407l-30.0496-30.0496L372.5278,1278.0352z"/>
	<path fill="#BDEF56" d="M208.2037,1121.0972c-0.5912-2.6143,1.8853-4.5945,4.7338-6.8867
		c3.6802-2.9658,7.363-5.9291,11.0456-8.8926l11.5563-11.5564l-21.9771-21.9771c-19.579,6.0269-38.7844,13.1543-57.6858,21.2031
		l40.2184,40.2184L208.2037,1121.0972z"/>
	<path fill="#BB3347" d="M472.2803,1285.3701c10.7529-0.218,21.5148-0.7271,32.2838-1.4729l-15.4054-15.4054L472.2803,1285.3701z"/>
	<path fill="#B43285" d="M396.1705,1254.3926l-44.0254-44.0254c-4.4664-1.8467-8.9041-3.7527-13.308-5.7285l-35.6547,35.6547
		l28.2923,28.2924c13.6608,3.8745,27.3464,6.9905,41.0532,9.4495L396.1705,1254.3926z"/>
	<path fill="#2C1FF9" d="M461.9009,1241.2341l27.2578,27.2577l18.6611-18.6613
		C492.4807,1247.1631,477.1819,1244.2417,461.9009,1241.2341z"/>
	<path fill="#4ECC0E" d="M155.8765,1092.9875c-9.9664,4.244-19.853,8.7303-29.6588,13.4663
		c-9.4603,4.5522-8.9517,8.5703-3.7383,15.7673c11.8575,16.3625,24.7002,31.678,38.9797,45.6206l34.6358-34.6359L155.8765,1092.9875
		z"/>
	<path fill="#45B828" d="M249.6386,1186.7496l-27.9387,27.9387c21.6955,14.7817,44.0035,28.4391,68.0106,39.0768l13.4718-13.4718
		L249.6386,1186.7496z"/>
	<path fill="#7AF1E4" d="M266.2916,1058.4911c-17.8966,3.5011-35.456,7.9762-52.7293,13.2933l21.9771,21.9771l36.0499-36.0498
		C269.9137,1057.6317,268.0102,1058.1526,266.2916,1058.4911z"/>
	<path fill="#DF3851" d="M556.7708,1257.2151c-16.383-2.0238-32.6903-4.5566-48.951-7.3845l-18.6611,18.6613l15.4054,15.4054
		c23.5981-1.6342,47.2313-4.4363,70.8851-8.0037L556.7708,1257.2151z"/>
	<path fill="#AD10D7" d="M249.6386,1186.7496l53.5437,53.5437l35.6547-35.6547c-24.0067-10.7708-47.0987-23.4312-69.4224-37.665
		L249.6386,1186.7496z"/>
	<path fill="#DE1902" d="M211.8439,1125.7051c-2.2469-1.7837-3.3394-3.2776-3.6403-4.6079l-12.1088,12.1088l53.5437,53.5437
		l19.7761-19.776C249.6568,1154.3756,230.4986,1140.5498,211.8439,1125.7051z"/>
	<path fill="#DFED15" d="M472.2803,1285.3701l16.8784-16.8783l-27.2578-27.2577c-8.029-1.5803-16.0539-3.1797-24.0773-4.7771
		c-6.5321-1.2998-12.9899-2.7544-19.3914-4.3262l-22.2617,22.2617l30.0496,30.0496
		C441.553,1285.4036,456.9075,1285.682,472.2803,1285.3701z"/>
	<path fill="#D3AE1B" d="M352.1451,1210.3672l44.0254,44.0254l22.2617-22.2617
		C395.5491,1226.5121,373.4843,1219.1904,352.1451,1210.3672z"/>
	<path fill="#661690" d="M270.2589,1067.9006c2.3651-1.9583,6.9172-3.5603,5.1371-7.6294
		c-0.8192-1.8617-2.2094-2.4834-3.8067-2.5596l-36.0499,36.0498l1.247,1.2471
		C247.9686,1086.0023,259.1404,1076.9827,270.2589,1067.9006z"/>
	<path fill="#D8CF48" d="M235.5394,1093.7615l-11.5563,11.5564c4.2686-3.4353,8.5359-6.8723,12.8033-10.3093L235.5394,1093.7615z"/>
	<path fill="#25DDB2" d="M442.8334,1011.1132c-2.3373-3.5083-4.7007-6.9998-7.0724-10.4858l-28.3445,28.3446l53.5437,53.5437
		l20.9423-20.9424C467.9226,1046.0122,454.8894,1029.2056,442.8334,1011.1132z"/>
	
		<rect x="304.8324" y="798.0848" transform="matrix(0.7071 -0.7071 0.7071 0.7071 -493.6505 480.1142)" fill="#12A5DE" width="55.7829" height="75.7222"/>
	<path fill="#ECFF31" d="M371.7029,895.453c-1.9327-4.3996-6.0272-10.147-1.2207-14.0125
		c4.1707-3.3314,8.3414,2.2634,11.8254,4.5522c12.3932,8.1534,24.9781,15.9012,37.8149,23.1857l12.6391-12.6391l-53.5437-53.5437
		L339.7734,882.44l52.5513,52.5513C384.7312,922.2557,377.7104,909.1677,371.7029,895.453z"/>
	
		<rect x="534.3827" y="889.7968" transform="matrix(0.7071 0.7071 -0.7071 0.7071 816.5099 -135.8528)" fill="#21B025" width="75.7222" height="55.7829"/>
	<path fill="#FB01EB" d="M481.9024,1061.5732l-20.9423,20.9424l53.5437,53.5437l22.9163-22.9163
		C517.5377,1097.7639,499.0047,1080.6099,481.9024,1061.5732z"/>
	<path fill="#4CE4FF" d="M483.8281,838.2334c-11.8158-0.7858-23.3725-2.1696-34.6626-4.1791l23.0405,23.0405l18.4147-18.4147
		C488.3565,838.5312,486.0922,838.3833,483.8281,838.2334z"/>
	<path fill="#6CD797" d="M393.0707,936.2301l-39.1981,39.1981l53.5437,53.5438l28.3445-28.3446
		C421.2615,979.3155,406.3162,958.2955,393.0707,936.2301z"/>
	<path fill="#00EFD5" d="M514.5038,1136.0593l53.5437,53.5437l34.7418-34.7419c-23.183-12.0732-44.9909-25.9554-65.3693-41.718
		L514.5038,1136.0593z"/>
	<path fill="#5CE10D" d="M392.3248,934.9913L339.7734,882.44l-39.4445,39.4445l53.5437,53.5437l39.1981-39.1981
		C392.8227,935.8168,392.5716,935.4054,392.3248,934.9913z"/>
	<path fill="#BDD616" d="M579.2934,964.1823l-53.5437-53.5437l-33.103,33.103c26.5109,10.5308,53.2993,19.9277,80.8636,26.2238
		L579.2934,964.1823z"/>
	<path fill="#EC27AC" d="M666.804,1182.4926c-15.664-5.5006-30.8185-11.6713-45.4749-18.4969l39.7065,39.7065l17.397-17.397
		C674.543,1185.1021,670.6632,1183.8489,666.804,1182.4926z"/>
	<path fill="#58F812" d="M339.7734,882.44l-53.5437-53.5436l-9.9678,9.9677c3.6437,26.231,9.3441,51.6136,17.1505,76.1038
		l6.9166,6.9166L339.7734,882.44z"/>
	<path fill="#03A415" d="M460.9601,1082.5156l-33.202,33.2019c19.3748,17.0377,39.751,32.3722,61.2183,45.8691l25.5275-25.5273
		L460.9601,1082.5156z"/>
	<path fill="#DE0B3A" d="M514.5038,1136.0593l-25.5275,25.5273c22.4272,14.1006,46.0446,26.1975,70.9619,36.1256l8.1093-8.1093
		L514.5038,1136.0593z"/>
	<path fill="#950ACA" d="M407.4164,1028.9719l-32.7418,32.7417c8.2341,9.792,16.9724,19.3584,26.2231,28.6934
		c8.7332,8.813,17.6888,17.2455,26.8604,25.3105l33.202-33.2019L407.4164,1028.9719z"/>
	<path fill="#DA18D1" d="M353.8727,975.4282l-23.4058,23.4058c12.6492,21.8785,27.3674,42.8533,44.2076,62.8797l32.7418-32.7417
		L353.8727,975.4282z"/>
	<path fill="#2CA8E5" d="M559.9382,1197.7123c8.3327,3.3201,16.814,6.3923,25.4409,9.2223l-17.3316-17.3315L559.9382,1197.7123z"/>
	<path fill="#E1E149" d="M1122.5958,1063.4043c-16.9437-18.7583-34.2456-37.165-52.2855-54.8019l-26.0762,26.0761l22.9861,22.9862
		c13.4836,6.6747,26.7571,13.7618,39.752,21.3632L1122.5958,1063.4043z"/>
	<path fill="#527017" d="M643.0491,1221.6887l17.9866-17.9866l-39.7065-39.7065c-6.2736-2.9216-12.4543-5.9653-18.5398-9.1345
		l-34.7418,34.7419l17.3316,17.3315c14.9021,4.8885,30.2384,9.0547,46.0504,12.4329
		C635.3077,1220.1953,639.1797,1220.957,643.0491,1221.6887z"/>
	<path fill="#DB14EF" d="M272.5377,736.3154c-0.0671,0.3471-0.1253,0.6906-0.1682,1.0333
		c-1.8565,15.2078-1.1953,30.4664-0.7375,45.6995c0.3308,11.2289,1.0036,22.3196,2.0195,33.27l12.5782,12.5783l39.4445-39.4445
		L272.5377,736.3154z"/>
	<path fill="#6325C7" d="M276.262,838.8641l9.9678-9.9677l-12.5782-12.5783C274.355,823.9018,275.2274,831.4163,276.262,838.8641z"
		/>
	<path fill="#E45E91" d="M643.0491,1221.6887c14.0884,2.6643,28.1196,4.6967,42.1031,6.1301l-24.1166-24.1167L643.0491,1221.6887z"
		/>
	<path fill="#07115A" d="M769.6248,988.0257c25.8365,2.06,51.6514,4.395,77.4249,7.2462l-42.3356-42.3355L769.6248,988.0257z"/>
	<path fill="#8E066D" d="M1035.9255,1042.9871c10.5243,4.7002,20.9712,9.5671,31.2947,14.6776l-22.9861-22.9862L1035.9255,1042.9871
		z"/>
	<path fill="#DF09F7" d="M870.2482,1208.6644c-16.0053,0.1232-32.004-0.5682-48.0033-1.5306l14.2017,14.2017
		c8.8188-1.5828,17.6335-3.3525,26.446-5.3153L870.2482,1208.6644z"/>
	<path fill="#4B0EC9" d="M300.329,921.8845l-3.4646,3.4646c8.8451,25.5062,20.0336,50.0154,33.6025,73.4849l23.4058-23.4058
		L300.329,921.8845z"/>
	<path fill="#45F309" d="M990.6904,981.1348l-53.5437-53.5437l-39.4445,39.4445l43.1848,43.1848
		c5.5502,1.2906,11.0768,2.6692,16.5784,4.1394L990.6904,981.1348z"/>
	<path fill="#3673EF" d="M293.4124,914.9679c1.1087,3.4782,2.2583,6.9391,3.452,10.3812l3.4646-3.4646L293.4124,914.9679z"/>
	<path fill="#3EEF33" d="M867.1342,997.6037c1.429,0.1743,2.8589,0.3362,4.2876,0.5142
		c23.3995,2.9174,46.6227,6.7905,69.4653,12.1025l-43.1848-43.1848L867.1342,997.6037z"/>
	<path fill="#1D0892" d="M535.6532,841.6532c-15.0096-1.0109-30.0222-1.9859-45.0325-2.9731l-18.4147,18.4147l53.5437,53.5437
		l39.4445-39.4445L535.6532,841.6532z"/>
	<path fill="#E119D0" d="M907.1887,897.6331c-12.3414-3.6526-24.7557-6.9358-37.2234-9.9478l-25.8066,25.8066l53.5437,53.5437
		l39.4445-39.4445L907.1887,897.6331z"/>
	<path fill="#1FD556" d="M990.6904,981.1348l-33.225,33.2249c19.6207,5.2433,38.9186,11.6556,57.7431,19.6158
		c6.9351,2.936,13.8412,5.9409,20.717,9.0115l8.3086-8.3086L990.6904,981.1348z"/>
	<path fill="#412EF6" d="M1070.3103,1008.6024c-18.0729-17.669-36.9028-34.5476-56.8708-50.2167l-22.7491,22.7491l53.5437,53.5436
		L1070.3103,1008.6024z"/>
	<path fill="#C6094B" d="M1007.4265,953.6901c-18.4191-14.0588-37.3999-27.5823-57.8665-38.5123l-12.4133,12.4133l53.5437,53.5437
		l22.7491-22.7491C1011.4393,956.8161,1009.4501,955.2348,1007.4265,953.6901z"/>
	<path fill="#1CD586" d="M804.8097,874.143l39.3489,39.3489l25.8066-25.8066C848.3849,882.4717,826.6419,878.0828,804.8097,874.143z
		"/>
	<path fill="#0EE8E8" d="M908.2712,897.9454c-0.3602-0.1072-0.7222-0.2057-1.0825-0.3123l29.9581,29.9581l12.4133-12.4133
		C936.4846,908.1949,922.8044,902.2676,908.2712,897.9454z"/>
	<path fill="#DB5909" d="M741.3793,1230.4459l12.6444-12.6444l-18.6777-18.6777c-19.2249-2.9546-38.2366-7.0413-56.9135-12.8186
		l-17.397,17.397l24.1166,24.1167C703.972,1229.748,722.7067,1230.6014,741.3793,1230.4459z"/>
	<path fill="#F3C347" d="M621.1462,848.2573c-10.1313-0.93-20.2691-1.7932-30.412-2.6033l-25.54,25.54l53.5437,53.5437
		l39.4445-39.4445L621.1462,848.2573z"/>
	<path fill="#ED0830" d="M896.5475,1207.6438c-8.7693,0.6439-17.5353,0.9531-26.2993,1.0206l-7.3557,7.3557
		C874.112,1213.5212,885.3285,1210.7261,896.5475,1207.6438z"/>
	<path fill="#2BAE09" d="M710.5176,858.7398c-7.5399-1.1166-15.0878-2.1534-22.6406-3.1412l-29.6947,29.6947l53.5437,53.5437
		l39.4444-39.4444L710.5176,858.7398z"/>
	<path fill="#F42BAA" d="M432.7616,896.5392l-12.6391,12.6391c16.4894,9.3571,33.401,17.9385,50.8755,25.5974L432.7616,896.5392z"/>
	<path fill="#5FF602" d="M804.8097,874.143c-8.0521-1.453-16.1163-2.8459-24.1878-4.2018l-29.4515,29.4515l53.5437,53.5437
		l39.4445-39.4445L804.8097,874.143z"/>
	<path fill="#FA4A08" d="M804.7141,952.9363l-53.5437-53.5437L711.726,938.837l48.4404,48.4405
		c3.1532,0.2439,6.3057,0.4968,9.4583,0.7482L804.7141,952.9363z"/>
	<path fill="#0DE226" d="M724.0746,860.8161c-4.5162-0.7202-9.0358-1.4067-13.557-2.0763l40.6528,40.6528l29.4515-29.4515
		C761.7972,866.7788,742.9315,863.8221,724.0746,860.8161z"/>
	<path fill="#50FE26" d="M535.6532,841.6532l29.541,29.5409l25.54-25.54C572.3862,844.1888,554.0222,842.8904,535.6532,841.6532z"/>
	<path fill="#03E512" d="M735.3461,1199.1238l18.6777,18.6777l14.5772-14.5773
		C757.4623,1202.1543,746.3705,1200.8181,735.3461,1199.1238z"/>
	<path fill="#EC9927" d="M711.726,938.837l-39.4445,39.4445l2.9358,2.9359c28.3201,1.9608,56.6454,3.8711,84.9491,6.0602
		L711.726,938.837z"/>
	<path fill="#EFF22C" d="M573.5104,969.9653c4.8358,1.1046,9.6956,2.113,14.5818,3.0158l-8.7988-8.7988L573.5104,969.9653z"/>
	
		<rect x="627.3708" y="903.896" transform="matrix(0.7071 0.7071 -0.7071 0.7071 853.7151 -197.4758)" fill="#5A1ABB" width="75.7222" height="55.7829"/>
	<path fill="#AA11EB" d="M618.7379,924.7378l-39.4445,39.4445l8.7988,8.7988c10.7476,1.9858,21.6224,3.4641,32.6563,4.3088
		c16.3198,1.2512,32.6475,2.4115,48.9775,3.5471l2.5555-2.5555L618.7379,924.7378z"/>
	<path fill="#0352B8" d="M669.726,980.837c1.8304,0.1273,3.6609,0.2535,5.4913,0.3803l-2.9358-2.9359L669.726,980.837z"/>
	<path fill="#4F12BC" d="M822.2449,1207.1338c-9.8431-0.5923-19.6865-1.2839-29.532-1.9568
		c-8.0547-0.5452-16.095-1.1826-24.1119-1.9528l-14.5772,14.5773l11.8723,11.8722c23.5815-1.2875,47.0817-4.1266,70.5505-8.3383
		L822.2449,1207.1338z"/>
	<path fill="#DB2A79" d="M897.7023,967.0356l-53.5437-53.5437l-39.4445,39.4445l42.3356,42.3355
		c6.6978,0.741,13.3928,1.5156,20.0845,2.3318L897.7023,967.0356z"/>
	<path fill="#3F32CF" d="M449.1655,834.0543c-16.5806-2.9512-32.5803-7.2666-47.9772-13.0291l-21.9703,21.9703l53.5437,53.5437
		l39.4444-39.4444L449.1655,834.0543z"/>
	<path fill="#7908FB" d="M274.8871,727.8629c-0.9181,3.3602-1.6594,5.5352-2.1179,7.4066l4.7217-4.7217
		C276.623,729.6525,275.7578,728.7706,274.8871,727.8629z"/>
	<path fill="#E4110A" d="M482.8618,939.8046c3.2579,1.3277,6.5196,2.6398,9.785,3.9369l33.103-33.103l-53.5437-53.5437
		l-39.4444,39.4444l38.2364,38.2365C474.925,936.4969,478.8762,938.1785,482.8618,939.8046z"/>
	<path fill="#CACD18" d="M332.793,782.3331l-7.1188,7.1188l53.5437,53.5436l21.9703-21.9703
		C376.8322,811.9096,353.9957,799.1448,332.793,782.3331z"/>
	<path fill="#F61C26" d="M621.1462,848.2573l37.0361,37.036l29.6947-29.6947C665.6786,852.6954,643.4293,850.3029,621.1462,848.2573
		z"/>
	<path fill="#51C94C" d="M317.2043,768.9848c-13.2081-12.2289-26.3082-24.6118-39.7134-38.4371l-4.7217,4.7217
		c-0.0874,0.3568-0.1659,0.7057-0.2316,1.046l53.1365,53.1365l7.1188-7.1188C327.4962,778.1334,322.2952,773.6965,317.2043,768.9848
		z"/>
	<path fill="#FE7CB7" d="M741.3793,1230.4459c8.1832-0.0682,16.3549-0.3265,24.5167-0.7722l-11.8723-11.8722L741.3793,1230.4459z"/>
	<path fill="#33F9BF" d="M1149.0518,1106.4285c4.1708,3.0262,8.494,6.7646,16.4794,6.7646
		c-5.9254-7.2734-10.4775-13.2241-15.4114-18.8188c-9.1111-10.3804-18.2683-20.7234-27.5239-30.97l-15.6237,15.6235
		C1121.3853,1087.4585,1135.4543,1096.5249,1149.0518,1106.4285z"/>
	<path fill="#FDCD4E" d="M1159.1163,1307.3386c-3.3303,2.9272-6.702,5.8154-10.1663,8.6155
		c-11.4171,9.2219-23.0553,17.6893-34.9825,25.1245l26.1079,26.108l39.4446-39.4445L1159.1163,1307.3386z"/>
	<path fill="#7C10F3" d="M940.8166,1459.3582c17.5527,1.5251,35.4807,1.3135,53.8368-0.927l-26.4549-26.4548L940.8166,1459.3582z"/>
	<path fill="#C63811" d="M988.0991,1235.9482c-14.8401,4.7656-29.7258,9.2922-44.6783,13.4724l35.9648,35.9648
		c5.8124-2.4558,11.5762-5.1123,17.2839-8.01c11.8079-5.9937,23.5167-12.1561,35.1536-18.4414l-28.1001-28.1001
		C998.5246,1232.5625,993.319,1234.2732,988.0991,1235.9482z"/>
	<path fill="#F727A9" d="M1161.3126,1388.4237l-21.2372-21.2371l-39.4443,39.4445l15.0865,15.0865
		c0.6088-0.3536,1.2186-0.7032,1.8251-1.0642C1133.4476,1411.1816,1147.9407,1400.3452,1161.3126,1388.4237z"/>
	<path fill="#0B8EF4" d="M1252.5051,1196.1742c-3.408,4.476-5.2135,6.7137-6.8665,9.0535
		c-4.2349,6.0385-8.5132,12.0463-12.8433,18.0122l20.8456,20.8456C1255.668,1228.9526,1255.3628,1213.0396,1252.5051,1196.1742z"/>
	<path fill="#F41171" d="M986.1618,1371.0507l21.4811,21.4811l20.1714-20.1714
		C1014.3895,1373.6495,1000.5275,1373.3029,986.1618,1371.0507z"/>
	<path fill="#E20A4A" d="M870.2011,1318.0649c-0.4066-0.3156-0.8628-0.625-1.3234-0.9426l-7.7666,7.7666l53.5437,53.5437
		l21.851-21.8511C912.6648,1346.9078,890.6233,1334.1786,870.2011,1318.0649z"/>
	
		<rect x="830.2997" y="1343.4915" transform="matrix(-0.7071 -0.7071 0.7071 -0.7071 512.3282 2954.9792)" fill="#0C49F6" width="75.7222" height="55.7829"/>
	<path fill="#DA3038" d="M810.4407,1274.2185c-2.0565,0.1548-4.1151,0.299-6.1762,0.4297l-36.1415,36.1414l53.5437,53.5437
		l39.4444-39.4443L810.4407,1274.2185z"/>
	<path fill="#CBD005" d="M1063.4937,1443.7686c18.0093-5.3928,35.5388-12.3572,52.224-22.0509l-15.0865-15.0865L1063.4937,1443.7686
		z"/>
	<path fill="#9113A6" d="M877.6204,1308.3796c4.8519-0.554,9.7151-1.0101,14.5785-1.4789
		c8.845-0.8544,17.5836-2.0482,26.2208-3.5922l-17.8641-17.8641L877.6204,1308.3796z"/>
	<path fill="#C240E3" d="M943.4207,1249.4207c-3.1386,0.8774-6.2805,1.7383-9.4253,2.584l-33.4398,33.4398l17.8641,17.8641
		c20.9291-3.741,41.2484-9.5925,60.9658-17.9231L943.4207,1249.4207z"/>
	<path fill="#E3AA19" d="M986.1618,1371.0507c-8.6445-1.3552-17.4703-3.3969-26.4945-6.1927
		c-7.9065-2.4562-15.6218-5.2172-23.1614-8.2764l-21.851,21.8511l53.5436,53.5437l39.4445-39.4446L986.1618,1371.0507z"/>
	<path fill="#7A1BDE" d="M1113.9675,1341.0786c-17.298,10.7834-35.2068,19.3867-53.9381,24.9508l40.6017,40.6017l39.4443-39.4445
		L1113.9675,1341.0786z"/>
	<path fill="#C2491C" d="M1204.5676,1149.7373c-5.7473,2.594-8.4175,3.7639-11.0371,4.9844
		c-6.6631,3.1135-13.345,6.1783-20.0378,9.2153l6.6384,6.6387c0.2692-0.1996,0.5425-0.3954,0.8113-0.5952
		C1188.3428,1164.4619,1196.735,1160.0115,1204.5676,1149.7373z"/>
	<path fill="#3917CC" d="M1059.9265,1444.8153l-52.2836-52.2836l-39.4445,39.4446l26.4549,26.4548
		c5.3748-0.656,10.7825-1.4689,16.2319-2.4795C1027.4202,1452.874,1043.8525,1449.4329,1059.9265,1444.8153z"/>
	<path fill="#32B00A" d="M1199.7405,1347.9628l-20.2205-20.2206l-39.4446,39.4445l21.2372,21.2371
		C1175.2332,1376.0129,1187.9346,1362.4224,1199.7405,1347.9628z"/>
	<path fill="#2FEF21" d="M1100.6311,1406.6311l-40.6017-40.6017c-10.4691,3.1097-21.1945,5.2727-32.2151,6.3309l-20.1714,20.1714
		l52.2836,52.2836c1.191-0.3422,2.3801-0.6913,3.5671-1.0468L1100.6311,1406.6311z"/>
	<path fill="#3B4FE9" d="M1180.1311,1170.5757l-6.6384-6.6387c-18.21,8.2633-36.5289,16.2478-54.9735,23.9155l13.5198,13.5198
		c8.6329-5.1786,17.2524-10.3809,25.8629-15.5994C1165.5747,1181.1154,1172.936,1175.9103,1180.1311,1170.5757z"/>
	<path fill="#CD3EC3" d="M933.9954,1252.0046c-17.953,4.827-36.0098,9.1151-54.2079,12.6716l20.7681,20.7682L933.9954,1252.0046z"/>
	<path fill="#E9B208" d="M854.9247,1438.1626c18.8721,7.5557,38.1239,13.4539,57.8339,17.2627l-37.5483-37.5483L854.9247,1438.1626z
		"/>
	<path fill="#11F899" d="M1253.641,1244.0854l-20.8456-20.8456c-11.0298,15.1967-22.4517,30.0729-34.6355,44.2533l20.8044,20.8046
		l32.6484-32.6484C1252.4446,1251.8456,1253.1179,1247.9907,1253.641,1244.0854z"/>
	<path fill="#280BFB" d="M821.6667,1364.3333l-37.3909,37.391c2.7808,1.8984,5.6335,3.7184,8.5642,5.4508
		c20.2917,12.0049,40.952,22.5271,62.0847,30.9875l20.2856-20.2856L821.6667,1364.3333z"/>
	<path fill="#1355D4" d="M1218.9644,1288.2977l13.7966,13.7965c8.9103-14.7231,15.2848-30.1302,18.8518-46.4449L1218.9644,1288.2977
		z"/>
	<path fill="#741ADD" d="M865.8778,1312.343c0.8138-3.6621,4.5776-3.0771,7.3496-3.4332c1.463-0.1888,2.9276-0.3629,4.393-0.5302
		l22.9352-22.9352l-20.7681-20.7682c-22.8664,4.469-45.9565,7.7804-69.3467,9.5422l50.6704,50.6704l7.7666-7.7666
		C867.1487,1315.9294,865.3557,1314.6123,865.8778,1312.343z"/>
	<path fill="#330EE3" d="M733.4768,1276.1434c-6.7892,0.0208-13.5771,0.0294-20.3629,0.0366c-9.791,0-12.3086,3.4332-7.7056,12.3341
		c9.6761,18.707,18.5822,37.8545,28.6483,56.3418l34.0665-34.0664L733.4768,1276.1434z"/>
	<path fill="#1AE5F7" d="M804.2645,1274.6482c-6.2109,0.3938-12.4424,0.6809-18.6978,0.8452
		c-17.3665,0.457-34.7329,0.597-52.09,0.65l34.6462,34.6461L804.2645,1274.6482z"/>
	<path fill="#CCEC16" d="M1061.9847,1210.2069l10.4479,10.4479l23.6704-23.6704
		C1084.7783,1201.5122,1073.406,1205.9208,1061.9847,1210.2069z"/>
	<path fill="#BC30F9" d="M768.123,1310.7896l-34.0665,34.0664c0.6485,1.1912,1.2864,2.3883,1.9452,3.5735
		c11.9758,21.5386,28.1555,39.5598,48.274,53.2948l37.3909-37.391L768.123,1310.7896z"/>
	<path fill="#BB12E5" d="M1118.5192,1187.8525c-7.4508,3.0974-14.9248,6.1366-22.4161,9.1318l-23.6704,23.6704l9.9752,9.9752
		c16.6337-9.5973,33.1608-19.3781,49.6311-29.2577L1118.5192,1187.8525z"/>
	<path fill="#0B8466" d="M1232.761,1302.0942l-13.7966-13.7965l-39.4443,39.4445l20.2205,20.2206
		c10.1638-12.4484,19.667-25.5378,28.7069-39.0785C1229.9471,1306.6372,1231.3818,1304.3733,1232.761,1302.0942z"/>
	<path fill="#E6E418" d="M1198.1599,1267.4932c-12.123,14.1096-25.0159,27.515-39.0436,39.8455l20.4037,20.4036l39.4443-39.4445
		L1198.1599,1267.4932z"/>
	<path fill="#549CDA" d="M1072.4326,1220.6548l-10.4479-10.4479c-19.2764,7.234-38.6924,14.1198-58.2618,20.6271l28.1001,28.1001
		c1.6919-0.9141,3.3857-1.825,5.0746-2.7443L1072.4326,1220.6548z"/>
	<path fill="#821479" d="M968.1985,1431.9763l-53.5436-53.5437l-39.4445,39.4443l37.5483,37.5483
		c9.2488,1.7872,18.5991,3.1111,28.0579,3.9329L968.1985,1431.9763z"/>
	<path fill="#60380A" d="M1036.8976,1256.1898c15.286-8.3214,30.4418-16.8657,45.5103-25.5598l-9.9752-9.9752L1036.8976,1256.1898z"
		/>
	
		<rect x="1320.5856" y="1281.5553" transform="matrix(-0.7071 -0.7071 0.7071 -0.7071 1393.095 3195.9321)" fill="#DDFF1A" width="75.7222" height="55.7828"/>
	<path fill="#0D7592" d="M1387.1112,1293.0156c-10.4919-11.4146-21.6511-22.2506-32.2449-33.5325l-3.4694,3.4695l53.5437,53.5437
		l3.3038-3.304C1400.958,1307.1387,1393.9135,1300.4219,1387.1112,1293.0156z"/>
	<path fill="#2EF4F7" d="M1310.2457,1304.1038c10.1361,23.8438,24.3702,45.4382,42.2145,64.873l13.0361-13.0361l-53.5437-53.5437
		L1310.2457,1304.1038z"/>
	<path fill="#08F90C" d="M1307.8875,1298.3318c0.7589,1.939,1.5464,3.8621,2.3583,5.772l1.7069-1.7068L1307.8875,1298.3318z"/>
	<path fill="#4388BB" d="M1415.7136,1198.636c10.5294,8.0498,21.2759,15.8452,32.2031,23.4526
		c10.2021,7.1042,20.5157,13.9402,30.9575,20.4741l4.9553-4.9553l-53.5437-53.5437L1415.7136,1198.636z"/>
	
		<rect x="1741.9523" y="1288.5381" transform="matrix(-0.7071 0.7071 -0.7071 -0.7071 3959.2175 1012.8331)" fill="#066BD5" width="55.7828" height="75.7222"/>
	<path fill="#2BE3A5" d="M1300.3433,1206.9189l9.7336-9.7336c-2.0392-1.4681-4.4626-2.7122-7.2183-3.7319
		C1301.9836,1197.9708,1301.1301,1202.4568,1300.3433,1206.9189z"/>
	<path fill="#8DA210" d="M1503.4368,1257.2146l-19.6072-19.6072l-4.9553,4.9553
		C1486.9812,1247.6357,1495.1674,1252.5222,1503.4368,1257.2146z"/>
	<path fill="#32EACD" d="M1762.7939,1279.9052l5.0583-5.0582c-3.5042-0.0881-7.0039-0.2078-10.4967-0.3802L1762.7939,1279.9052z"/>
	<path fill="#5AECD5" d="M1430.2859,1184.0637l53.5437,53.5437l29.1868-29.1868c-25.1028-10.4968-50.0571-21.3677-75.1154-31.9722
		L1430.2859,1184.0637z"/>
	<path fill="#F472D2" d="M1351.397,1262.9526l-51.7833-51.7834c-3.5135,21.1523-5.1411,41.8027,0.295,62.6714
		c2.196,8.4124,4.8766,16.5667,7.9788,24.4912l4.0652,4.0652L1351.397,1262.9526z"/>
	<path fill="#F41702" d="M1548.302,1280.2223c25.2877,11.5829,51.4331,21.2036,78.6394,28.4481l3.42-3.4202l-53.5437-53.5437
		L1548.302,1280.2223z"/>
	<path fill="#EA0BF7" d="M1816.9038,1334.0149c1.0789-1.4482,2.1536-2.9003,3.224-4.3562l-3.7902,3.7902L1816.9038,1334.0149z"/>
	<path fill="#80042A" d="M1352.4602,1368.9768c0.4576,0.4983,0.8999,1.0059,1.3623,1.5015
		c17.197,18.4393,35.6072,34.8901,55.6602,48.5635l9.5574-9.5574l-53.5437-53.5437L1352.4602,1368.9768z"/>
	<path fill="#84BC37" d="M1776.8933,1372.8933l4.2957,4.2957c12.8159-13.5293,24.5105-28.1333,35.7148-43.1741l-0.5662-0.566
		L1776.8933,1372.8933z"/>
	
		<rect x="1374.1293" y="1335.099" transform="matrix(-0.7071 -0.7071 0.7071 -0.7071 1446.6387 3325.198)" fill="#2584EF" width="75.7222" height="55.7828"/>
	<path fill="#C6121B" d="M1581.8508,1353.7609l-30.3783,30.3783l53.5437,53.5437l39.4445-39.4443l-46.6639-46.6641
		C1592.5182,1352.4344,1587.2012,1353.1522,1581.8508,1353.7609z"/>
	<path fill="#E117D1" d="M1310.0769,1197.1853l-9.7336,9.7336c-0.2502,1.4189-0.4946,2.8359-0.7296,4.2502l51.7833,51.7834
		l3.4694-3.4695c-15.3922-16.3918-29.5902-33.7251-38.809-55.1454C1314.8616,1201.5381,1312.8179,1199.1584,1310.0769,1197.1853z"/>
	<path fill="#E7F832" d="M1597.7968,1351.5745l46.6639,46.6641l39.4445-39.4446l-25.9362-25.936
		C1638.7041,1342.6147,1618.547,1348.1938,1597.7968,1351.5745z"/>
	<path fill="#2BDAE8" d="M1404.9407,1316.4963l53.5437,53.5437l20.2136-20.2136c-25.5933-6.8502-49.0715-18.8693-70.4535-36.634
		L1404.9407,1316.4963z"/>
	<path fill="#21A681" d="M1501.1187,1457.2488c16.0941,2.9543,32.374,3.657,48.6826,4.1082l-37.7732-37.7732l-29.4647,29.4646
		C1488.6156,1454.6777,1494.793,1456.0916,1501.1187,1457.2488z"/>
	
		<rect x="1692.5381" y="1337.9523" transform="matrix(-0.7071 -0.7071 0.7071 -0.7071 1988.1788 3555.218)" fill="#E528A5" width="75.7222" height="55.7828"/>
	<path fill="#13EB59" d="M1672.9438,1262.668l-3.1379,3.1379l53.5437,53.5437l39.4443-39.4445l-5.4384-5.4385
		C1728.8777,1273.0602,1700.7672,1268.8925,1672.9438,1262.668z"/>
	<path fill="#2317F4" d="M1737.4489,1412.3376l1.4508,1.4509c15.6257-10.7119,29.5184-23.1179,42.2893-36.5996l-4.2957-4.2957
		L1737.4489,1412.3376z"/>
	<path fill="#CFB806" d="M1513.0164,1208.4207l-29.1868,29.1868l19.6072,19.6072c14.6716,8.325,29.6132,16.0215,44.8652,23.0077
		l28.5157-28.5157l-29.1598-29.1597C1536.0627,1217.9591,1524.5228,1213.2322,1513.0164,1208.4207z"/>
	<path fill="#2A27EC" d="M1669.8059,1265.8059l-39.4445,39.4443l5.755,5.7551c8.6293,2.109,17.3594,3.9924,26.209,5.6102
		c4.0435,0.7375,9.9434,0.8138,10.6301,5.3914c0.7375,4.8827-5.366,5.6456-8.8755,7.6039
		c-2.0261,1.1333-4.0642,2.2104-6.1111,3.2471l25.9362,25.936l39.4445-39.4443L1669.8059,1265.8059z"/>
	<path fill="#D0E522" d="M1576.8177,1251.7065l13.2413-13.2412c-14.2466-5.0208-28.3652-10.365-42.4011-15.9185L1576.8177,1251.7065
		z"/>
	<path fill="#990AD4" d="M1849.8933,1288.1156l-16.7957-16.7958c-21.9863,2.9989-43.7225,4.0679-65.2454,3.5271l-5.0583,5.0582
		l53.5437,53.5437l3.7902-3.7902c9.1565-12.4535,18.025-25.1587,26.9539-37.7622
		C1847.9099,1290.7235,1848.8999,1289.452,1849.8933,1288.1156z"/>
	<path fill="#D303D5" d="M1452.0344,1442.4789l-32.9944-32.9945l-9.5574,9.5574
		C1422.8857,1428.1808,1437.0259,1436.0732,1452.0344,1442.4789z"/>
	<path fill="#E47255" d="M1591.9834,1239.1528c-0.6431-0.2251-1.2819-0.4611-1.9243-0.6875l-13.2413,13.2412l53.5437,53.5437
		l39.4445-39.4443l-5.0286-5.0286C1640.3152,1254.9456,1616.0682,1247.5798,1591.9834,1239.1528z"/>
	<path fill="#6704FF" d="M1580.4519,1462.2473c15.6531,0.2444,30.9656-0.8396,45.9233-3.2054l-21.359-21.359L1580.4519,1462.2473z"
		/>
	<path fill="#144BBF" d="M1669.8059,1265.8059l3.1379-3.1379c-2.7251-0.6096-5.4468-1.2422-8.1665-1.8906L1669.8059,1265.8059z"/>
	<path fill="#F9075F" d="M1430.2859,1184.0637l7.6151-7.6152c-8.6969-3.6804-17.4081-7.3242-26.1415-10.9111L1430.2859,1184.0637z"
		/>
	<path fill="#FE8D09" d="M1626.3752,1459.0419c21.1731-3.349,41.6373-9.2562,61.3721-17.5167l-43.2866-43.2866l-39.4445,39.4443
		L1626.3752,1459.0419z"/>
	<path fill="#1848B2" d="M1551.4725,1384.1392l-39.4445,39.4446l37.7732,37.7732c7.8379,0.2168,15.6823,0.3765,23.516,0.6985
		c2.3871,0.0986,4.7633,0.1548,7.1346,0.1919l24.5643-24.5645L1551.4725,1384.1392z"/>
	<path fill="#7404F6" d="M1359.9066,1147.3555l0.799-0.7988c-0.2607-0.0935-0.519-0.1838-0.7799-0.2778
		C1359.906,1146.656,1359.9006,1147.0137,1359.9066,1147.3555z"/>
	<path fill="#FB23FE" d="M1401.4545,1161.334c-13.182-5.3427-26.7587-9.7574-40.7489-14.7773l-0.799,0.7988
		c0.0868,4.985,2.7722,6.3733,4.7238,8.2057c16.2961,15.2916,33.3828,29.543,51.0833,43.0748l14.5723-14.5723l-18.5264-18.5264
		C1408.3278,1164.1279,1404.8942,1162.7231,1401.4545,1161.334z"/>
	<path fill="#C20614" d="M1478.698,1349.8264l-20.2136,20.2136l53.5437,53.5437l39.4445-39.4446l-27.5721-27.5721
		C1508.1575,1355.8972,1493.093,1353.6794,1478.698,1349.8264z"/>
	<path fill="#51B1B8" d="M1419.04,1409.4844l32.9944,32.9945c9.7937,4.1798,19.9587,7.7239,30.5289,10.5695l29.4647-29.4646
		l-53.5437-53.5437L1419.04,1409.4844z"/>
	<path fill="#1DA0FF" d="M1853.4646,1272.8232c-3.5603-4.8572-12.8427-2.543-19.4041-1.6273
		c-0.3214,0.0446-0.6416,0.0802-0.9629,0.1239l16.7957,16.7958C1853.4446,1283.3386,1857.0415,1277.7317,1853.4646,1272.8232z"/>
	<path fill="#14EDBC" d="M1683.9052,1358.7939l-39.4445,39.4446l43.2866,43.2866c14.6609-6.1367,28.9172-13.5769,42.7588-22.2448
		l6.9427-6.9427L1683.9052,1358.7939z"/>
	<path fill="#43FF10" d="M1523.9004,1356.567l27.5721,27.5721l30.3783-30.3783c-10.8424,1.2335-21.8212,2.0209-32.8967,2.6288
		C1540.4181,1356.8597,1532.0709,1356.9147,1523.9004,1356.567z"/>
	<path fill="#F4470B" d="M1636.1165,1311.0054l-5.755-5.7551l-3.42,3.4202
		C1629.9854,1309.481,1633.0457,1310.2548,1636.1165,1311.0054z"/>
	<path fill="#E40CE9" d="M1730.5061,1419.2804c0.678-0.4244,1.3586-0.8412,2.0344-1.2716c2.1558-1.3715,4.2673-2.7861,6.3591-4.2202
		l-1.4508-1.4509L1730.5061,1419.2804z"/>
	<path fill="#1790C3" d="M2051.0869,1252.6426c-17.1779,2.2263-34.4641,3.9023-51.8616,5.0059l-11.0106,11.0107l11.5294,11.5294
		c25.1072,4.5507,50.4263,7.0956,75.8342,8.1943l5.6245-5.6244L2051.0869,1252.6426z"/>
	<path fill="#C0B72B" d="M2301.2107,1062.7506c17.176,14.0272,34.325,28.1235,51.6931,41.923
		c3.3147,2.6199,5.2898,5.0781,5.9175,7.554l12.5918-12.592l-39.5349-39.535c-6.7651-2.6659-13.5933-5.1863-20.5059-7.5115
		L2301.2107,1062.7506z"/>
	<path fill="#7C5D3E" d="M2186.0645,1284.9844c15.6943-2.0116,31.1062-4.9697,46.1772-8.9648l-18.6062-18.6062L2186.0645,1284.9844z
		"/>
	<path fill="#78C223" d="M2180.9624,1224.7402c-18.7517,5.6567-37.6414,10.6394-56.6702,14.929l-3.6448,3.6448l43.8362,43.8364
		c7.2488-0.531,14.4436-1.2511,21.5808-2.166l27.571-27.571L2180.9624,1224.7402z"/>
	<path fill="#3D0F74" d="M2318.0051,1153.0437l-25.4807,25.4807l46.1992,46.1993c4.1389-3.1115,8.2344-6.3358,12.2727-9.7051
		c10.3757-8.6637,20.1326-17.8665,29.4731-27.438l-46.8049-46.8049C2328.635,1145.0895,2323.467,1149.2391,2318.0051,1153.0437z"/>
	<path fill="#03E6E4" d="M1999.7441,1280.1886l-11.5294-11.5294l-7.6443,7.6443
		C1986.9465,1277.7349,1993.3384,1279.0276,1999.7441,1280.1886z"/>
	<path fill="#04A2AE" d="M2253.0798,1217.9688l36.7234,36.7236c16.9448-8.2695,33.2832-18.2129,48.9204-29.9686l-46.1992-46.1993
		L2253.0798,1217.9688z"/>
	<path fill="#2684C0" d="M2213.6355,1257.4133l18.6062,18.6062c19.8193-5.2537,39.0513-12.2937,57.5615-21.3271l-36.7234-36.7236
		L2213.6355,1257.4133z"/>
	<path fill="#09F630" d="M2298.5068,1048.522c-4.2217-1.2461-8.2397-2.8737-12.8682-1.0426
		c2.009,5.2643,5.8491,7.3495,9.0789,9.9689c2.1658,1.7644,4.3289,3.5349,6.4932,5.3024l10.1616-10.1616
		C2307.1167,1051.1575,2302.8301,1049.7971,2298.5068,1048.522z"/>
	<path fill="#E6E91F" d="M1978.4792,1258.9236l9.7355,9.7356l11.0106-11.0107c-2.2415,0.1423-4.4845,0.2761-6.7296,0.3994
		C1987.8235,1258.304,1983.1514,1258.6038,1978.4792,1258.9236z"/>
	<path fill="#D54452" d="M1940.998,1261.71c-0.0255,1.119-0.0763,2.2634-0.1272,3.4077c2.2888,0.8394,4.5522,1.7803,6.8665,2.4923
		c10.8899,3.347,21.8384,6.2253,32.8331,8.6935l7.6443-7.6443l-9.7355-9.7356
		C1965.9855,1259.7789,1953.4917,1260.803,1940.998,1261.71z"/>
	<path fill="#C18C25" d="M2075.5784,1288.3829c3.8818,0.1678,7.7659,0.2999,11.6511,0.4022l-6.0266-6.0266L2075.5784,1288.3829z"/>
	<path fill="#166E6E" d="M2051.0869,1252.6426l30.116,30.116l39.4446-39.4446l-2.325-2.3247
		C2096.0999,1245.8225,2073.688,1249.7136,2051.0869,1252.6426z"/>
	<path fill="#ED1CDB" d="M2210.0322,1215.4001c-9.6523,3.2964-19.343,6.406-29.0698,9.3401l32.6731,32.6731l39.4443-39.4446
		l-14.7249-14.7246C2229.2461,1207.9058,2219.8535,1212.0479,2210.0322,1215.4001z"/>
	<path fill="#5033F1" d="M2238.355,1203.2441l14.7249,14.7246l39.4446-39.4443l-5.186-5.186
		C2271.3977,1183.9989,2255.3745,1194.5339,2238.355,1203.2441z"/>
	<path fill="#622FD0" d="M2120.6475,1243.314l3.6448-3.6448c-1.9883,0.4482-3.9785,0.887-5.9697,1.3201L2120.6475,1243.314z"/>
	<path fill="#5E09E2" d="M2087.2295,1288.7852c22.7166,0.5983,45.4883,0.1174,68.228-1.0593
		c3.0186-0.156,6.0254-0.3557,9.0261-0.5754l-43.8362-43.8364l-39.4446,39.4446L2087.2295,1288.7852z"/>
	<path fill="#E6A731" d="M2417.6426,1145.865c6.854-8.2151,13.6211-16.5151,20.4041-24.8138
		c6.2305-7.6293,2.4922-11.1388-4.3235-14.2159c-15.8335-7.1873-31.4634-14.8425-47.1543-22.3555l-15.1558,15.1558
		L2417.6426,1145.865z"/>
	<path fill="#F2EA1A" d="M2287.3384,1173.3384l5.186,5.186l25.4807-25.4807c-1.5098,1.0515-3.0374,2.0825-4.5959,3.0769
		C2304.6448,1161.7131,2296.0034,1167.5436,2287.3384,1173.3384z"/>
	<path fill="#1E1C22" d="M2371.4131,1099.6355l15.1558-15.1558c-18.0149-8.6255-36.1123-17.0583-54.6907-24.3793
		L2371.4131,1099.6355z"/>
	<path fill="#4D08E6" d="M2358.8213,1112.2275c0.8647,3.4121-0.8457,6.8577-5.2817,10.8074
		c-6.6414,5.8989-13.1377,11.9625-19.875,17.7408l46.8049,46.8049c13.019-13.3411,25.2288-27.399,37.1731-41.7157l-46.2295-46.2295
		L2358.8213,1112.2275z"/>
	<path fill="#C04F0D" d="M1634.2581,914.7026l32.6945,32.6945l39.4445-39.4445l-17.6104-17.6105
		c-11.3096,3.9653-22.4585,8.5435-33.4038,13.9099C1648.3279,907.7137,1641.2828,911.1918,1634.2581,914.7026z"/>
	<path fill="#183CDE" d="M1719.3552,999.7996c0.7988-0.0349,1.5946-0.0806,2.3944-0.1123l38.191-38.191l-53.5437-53.5437
		l-39.4445,39.4445L1719.3552,999.7996z"/>
	<path fill="#CF880A" d="M1448.5315,1044.5315l7.0996,7.0996l39.4443-39.4445l-6.5613-6.5613
		c-6.985,5.9747-13.812,12.1988-20.4559,18.7117C1461.3547,1030.9137,1454.8625,1037.6575,1448.5315,1044.5315z"/>
	<path fill="#DEA401" d="M1412.2639,1087.1528l3.9227,3.9226l39.4445-39.4443l-7.0996-7.0996
		C1435.876,1058.2717,1423.8856,1072.5493,1412.2639,1087.1528z"/>
	<path fill="#30FE84" d="M1627.5081,986.8414l20.3308,20.3309c23.4285-3.8496,47.2656-6.3154,71.5164-7.3727l-52.4027-52.4026
		L1627.5081,986.8414z"/>
	<path fill="#4427E4" d="M1863.8901,857.5469c-14.9789,1.4333-29.9374,3.1389-44.8655,5.2555l19.8049,19.805L1863.8901,857.5469z"/>
	<path fill="#8900DA" d="M1866.9832,989.6498l-14.0543-14.0543l-17.2518,17.2519
		C1846.1235,991.9025,1856.5594,990.8447,1866.9832,989.6498z"/>
	<path fill="#0CFE0A" d="M1524.3792,1041.4902c19.3354-7.677,38.9707-14.3494,58.9181-19.9708l-48.7772-48.7773l-39.4446,39.4445
		L1524.3792,1041.4902z"/>
	<path fill="#19F4E3" d="M1455.6311,1051.6311l14.4575,14.4575c17.8257-9.105,35.9227-17.3053,54.2905-24.5984l-29.3037-29.3036
		L1455.6311,1051.6311z"/>
	<path fill="#3AFB1E" d="M1488.5142,1005.6254l6.5613,6.5613l39.4446-39.4445l-1.0601-1.0601
		C1517.9204,982.1157,1502.8796,993.3377,1488.5142,1005.6254z"/>
	<path fill="#0EBCC7" d="M1737.6414,876.7083c-16.5273,3.6404-32.8521,8.0229-48.8547,13.6339l17.6104,17.6105L1737.6414,876.7083z"
		/>
	<path fill="#FEEB3F" d="M1722.1392,999.6691c24.1516-0.941,48.269-2.0649,72.3381-3.6362l-34.5366-34.5366l-38.191,38.191
		C1721.8798,999.6821,1722.009,999.6741,1722.1392,999.6691z"/>
	<path fill="#CF5684" d="M1534.52,972.7422l5.2031-5.2031c-2.0959,1.3682-4.1848,2.7474-6.2632,4.143L1534.52,972.7422z"/>
	<path fill="#973ECF" d="M1412.2639,1087.1528c-3.54,4.4484-7.049,8.9241-10.5298,13.4263c0.712,0.8392,1.4497,1.6785,2.187,2.5432
		c0.1691-0.0969,0.339-0.1926,0.5081-0.2893l11.7574-11.7576L1412.2639,1087.1528z"/>
	<path fill="#C826A5" d="M1979.0603,849.4641c-4.8865,0.3199-9.7737,0.6299-14.6614,0.9348l6.8633,6.8633L1979.0603,849.4641z"/>
	<path fill="#0E1AE5" d="M1627.5081,986.8414l39.4445-39.4444l-32.6945-32.6945c-17.4536,8.7227-34.7722,17.6624-51.7563,27.1324
		L1627.5081,986.8414z"/>
	<path fill="#0A87D0" d="M1582.5017,941.835c-14.5479,8.1115-28.8505,16.6118-42.7786,25.7041l-5.2031,5.2031l48.7772,48.7773
		c4.3291-1.22,8.676-2.3796,13.0343-3.5014l31.1765-31.1766L1582.5017,941.835z"/>
	<path fill="#E5278C" d="M2099.0186,836.5931c-14.9705,2.759-30.1211,4.8367-45.3357,6.5482
		c-5.321,0.6006-10.6456,1.1568-15.9727,1.6801l26.54,26.54L2099.0186,836.5931z"/>
	<path fill="#CF9C2A" d="M1416.1866,1091.0754l3.2379,3.238c5.3438-3.0332,10.6819-6.0818,15.9802-9.1963
		c11.446-6.7256,23.0085-13.0652,34.6838-19.0286l-14.4575-14.4575L1416.1866,1091.0754z"/>
	<path fill="#03C88D" d="M1404.4292,1102.833c4.9858-2.853,9.9927-5.6802,14.9954-8.5195l-3.2379-3.238L1404.4292,1102.833z"/>
	<path fill="#FB051C" d="M1596.3315,1018.0181c16.948-4.3621,34.1143-7.9878,51.5073-10.8458l-20.3308-20.3309L1596.3315,1018.0181z
		"/>
	<path fill="#22D000" d="M2303.4165,846.3699l-13.7456,13.7456l7.9468,7.9467
		C2299.7014,860.8758,2301.6289,853.6435,2303.4165,846.3699z"/>
	<path fill="#3A1DF1" d="M2087.2629,1052.1519l5.1858,5.1859l39.4446-39.4445l-11.4617-11.4617
		c-9.186,14.1796-18.928,28.0144-29.5942,41.2766C2089.647,1049.1892,2088.4553,1050.6707,2087.2629,1052.1519z"/>
	<path fill="#C301CF" d="M1903.4521,1183.8966c-19.8025,7.3639-40.1311,13.3585-61.0251,17.8638l30.3755,30.3755
		c17.417-1.1095,34.4912-3.2397,51.2268-6.3785l10.6417-10.6418L1903.4521,1183.8966z"/>
	<path fill="#B207FE" d="M1924.0293,1225.7573c5.9031-1.1072,11.7617-2.347,17.5818-3.7018l-6.9401-6.9401L1924.0293,1225.7573z"/>
	
		<rect x="1950.4203" y="865.8951" transform="matrix(-0.7071 0.7071 -0.7071 -0.7071 4016.2427 143.9337)" fill="#17FF8D" width="55.783" height="75.7222"/>
	<path fill="#CA256C" d="M2000.5897,965.4787c20.7013-5.1315,41.1309-10.923,61.1749-17.714l-36.9587-36.9588l-39.4446,39.4445
		L2000.5897,965.4787z"/>
	<path fill="#07A1E5" d="M1931.8176,896.7067l39.4446-39.4445l-6.8633-6.8633c-24.6799,1.5394-49.3696,2.9529-74.0225,4.8665
		L1931.8176,896.7067z"/>
	<path fill="#1DA5FB" d="M2092.4487,1057.3378l-39.4443,39.4445l49.9082,49.9083c14.0786-10.3239,27.4875-21.3396,40.2686-32.9978
		l2.8113-2.8114L2092.4487,1057.3378z"/>
	<path fill="#73B6ED" d="M2143.1812,1113.6927c0.9802-0.8939,1.9524-1.796,2.925-2.6975l-0.1138-0.1139L2143.1812,1113.6927z"/>
	<path fill="#30D40A" d="M2013.5599,1136.2266l41.4044,41.4044c5.9705-3.3634,11.8931-6.8698,17.7661-10.5242
		c10.3926-6.4611,20.4448-13.2758,30.1821-20.4163l-49.9082-49.9083L2013.5599,1136.2266z"/>
	<path fill="#88FD15" d="M1934.671,1215.1155l6.9401,6.9401c20.5164-4.7756,40.5195-11.0807,60.0286-18.8604l-27.5242-27.524
		L1934.671,1215.1155z"/>
	<path fill="#AF3AE3" d="M1974.1155,1175.6711l27.5242,27.524c18.1985-7.2572,35.9702-15.7876,53.3247-25.5642l-41.4044-41.4044
		L1974.1155,1175.6711z"/>
	<path fill="#FB6776" d="M2146.1062,1110.9952c10.5015-9.7325,20.5789-19.8984,30.249-30.4766l-30.3628,30.3627L2146.1062,1110.9952
		z"/>
	<path fill="#F92528" d="M1838.8296,882.6074l53.5437,53.5437l39.4443-39.4444l-41.4412-41.4413
		c-8.8344,0.6857-17.6638,1.4373-26.4863,2.2815L1838.8296,882.6074z"/>
	<path fill="#D86666" d="M1787.2678,1210.0342c-4.7065,0.4067-9.4114,0.8619-14.1187,1.3372l20.833,20.8331
		c5.2416,0.327,10.49,0.5857,15.748,0.7645l30.8154-30.8154C1823.1792,1205.8186,1805.4288,1208.4722,1787.2678,1210.0342z"/>
	<path fill="#E51BF2" d="M1935.7456,979.5234c6.6056-1.2121,13.2058-2.4934,19.7991-3.8612
		c1.8606-0.3859,3.7183-0.7783,5.5757-1.1708l24.241-24.241l-53.5437-53.5437l-39.4443,39.4444L1935.7456,979.5234z"/>
	<path fill="#E4220F" d="M2050.7041,1094.4819l2.3003,2.3003l39.4443-39.4445l-5.1858-5.1859
		C2075.5542,1066.6953,2063.6956,1081.1769,2050.7041,1094.4819z"/>
	<path fill="#2DF96E" d="M2000.5897,965.4787l-15.2284-15.2283l-24.241,24.241
		C1974.3655,971.6919,1987.5314,968.7157,2000.5897,965.4787z"/>
	<path fill="#C81774" d="M1715.7889,1219.8228c0.3481,0.4136,0.6152,0.6807,0.9333,0.7908c1.9835,0.6866,4.069,1.1699,6.1288,1.6277
		c23.5975,5.391,47.2844,8.4753,71.1311,9.9633l-20.833-20.8331c-18.1738,1.8347-36.4103,4.0878-55.0742,6.1655L1715.7889,1219.8228
		z"/>
	<path fill="#9D2ACA" d="M2018.5626,1122.3481c-3.7067,2.6201-7.4379,5.1785-11.1849,7.6963l6.1823,6.1821l39.4445-39.4443
		l-2.3003-2.3003C2040.7996,1104.6255,2030.2419,1114.0905,2018.5626,1122.3481z"/>
	<path fill="#F8B15C" d="M1809.7302,1232.969c17.1986,0.5848,34.4885,0.4193,51.8977-0.2502
		c3.7422-0.1427,7.4639-0.3464,11.1746-0.5829l-30.3755-30.3755c-0.6256,0.1349-1.2546,0.2609-1.8813,0.3932L1809.7302,1232.969z"/>
	<path fill="#DE20EF" d="M1957.9854,1159.541l16.1301,16.1301l39.4445-39.4446l-6.1823-6.1821
		C1991.2959,1140.8497,1974.842,1150.7122,1957.9854,1159.541z"/>
	<path fill="#271554" d="M1903.4521,1183.8966l31.2189,31.2189l39.4445-39.4443l-16.1301-16.1301
		C1940.2593,1168.8251,1922.0885,1176.9664,1903.4521,1183.8966z"/>
	<path fill="#0BDB24" d="M2061.7646,947.7647c18.7463-6.3513,37.1553-13.5782,55.1318-21.962l0.8975-0.8976l-53.5437-53.5437
		l-39.4443,39.4445L2061.7646,947.7647z"/>
	<path fill="#5619D1" d="M2236.1274,806.5718l39.4443-39.4445l-9.0828-9.0828c-14.5713,12.0591-30.0042,22.9335-46.2058,32.683
		L2236.1274,806.5718z"/>
	<path fill="#F87915" d="M2157.2385,885.4607l39.4443-39.4444l-28.7866-28.7867c-19.7361,7.9874-40.1899,13.6425-61.0381,17.8509
		L2157.2385,885.4607z"/>
	<path fill="#42F4E5" d="M2250.6924,978.9147c9.9011-17.2167,18.6272-34.7718,26.238-52.651l-26.7039-26.7037l-39.4443,39.4444
		L2250.6924,978.9147z"/>
	<path fill="#0C25EB" d="M2275.5718,767.1274l36.6243,36.6243c3.9043-23.2772,6.4939-46.9466,7.9187-70.9701l-5.0986-5.0986
		L2275.5718,767.1274z"/>
	<path fill="#FF4251" d="M2320.7939,721.9051c0.6133-4.8779,1.9084-10.8136-3.1631-12.6577
		c-5.1877-1.9073-7.2986,5.8491-10.4519,9.4092c-0.186,0.2107-0.3752,0.4172-0.5618,0.6273l8.3989,8.399L2320.7939,721.9051z"/>
	<path fill="#F44907" d="M2320.1147,732.7816c0.1709-2.881,0.3281-5.7661,0.4661-8.657c0.0349-0.6988,0.1162-1.447,0.2131-2.2194
		l-5.7778,5.7779L2320.1147,732.7816z"/>
	<path fill="#21EC12" d="M2289.6709,860.1155l13.7456-13.7456c3.4536-14.0499,6.3708-28.2583,8.7795-42.6183l-36.6243-36.6243
		l-39.4443,39.4445L2289.6709,860.1155z"/>
	<path fill="#12F6C7" d="M2167.8962,817.2296l28.7866,28.7867l39.4446-39.4445l-15.8442-15.8442
		c-13.2622,7.9805-27.0352,15.2129-41.2764,21.7185C2175.3303,814.1279,2171.626,815.7201,2167.8962,817.2296z"/>
	
		<rect x="2215.2856" y="815.2049" transform="matrix(-0.7071 0.7071 -0.7071 -0.7071 4432.5498 -129.8947)" fill="#944900" width="55.7828" height="75.7221"/>
	<path fill="#0323D0" d="M2276.9304,926.2637c8.1077-19.0469,14.9631-38.4579,20.6873-58.2015l-7.9468-7.9467l-39.4443,39.4445
		L2276.9304,926.2637z"/>
	<path fill="#DD014C" d="M2219.7041,1026.8152c6.6238-9.2652,13.0313-18.7455,19.2178-28.443
		c4.1055-6.4335,8.0132-12.9238,11.7705-19.4575l-39.9102-39.9103l-39.4446,39.4445L2219.7041,1026.8152z"/>
	<path fill="#DB0CDD" d="M2266.489,758.0446l9.0828,9.0828l39.4443-39.4444l-8.3989-8.399
		C2294.1204,733.3708,2280.7148,746.2715,2266.489,758.0446z"/>
	<path fill="#3105D6" d="M1714.2046,1217.9688c0.739,0.7916,1.209,1.4082,1.5844,1.854l2.286-2.2859
		C1716.7841,1217.6804,1715.4998,1217.8269,1714.2046,1217.9688z"/>
	<path fill="#BA2929" d="M1971.2622,857.2622l53.5437,53.5437l39.4443-39.4445l-26.54-26.54
		c-19.522,1.9178-39.0797,3.3614-58.6499,4.6427L1971.2622,857.2622z"/>
	<path fill="#805BA4" d="M2184.9246,1070.9246c12.2451-14.0483,23.8171-28.776,34.7795-44.1094l-48.3665-48.3663l-39.4443,39.4445
		L2184.9246,1070.9246z"/>
	<path fill="#03ED2E" d="M2131.8933,1017.8933l39.4443-39.4445l-21.3313-21.3314c-9.4526,16.69-19.1523,33.226-29.5747,49.3141
		L2131.8933,1017.8933z"/>
	<path fill="#51CCA5" d="M2118.1216,925.2326l-0.3276-0.3275l-0.8975,0.8976
		C2117.3047,925.6124,2117.7139,925.4242,2118.1216,925.2326z"/>
	<path fill="#7DB216" d="M2092.4487,1057.3378l53.5437,53.5436l30.3628-30.3627c2.8914-3.1627,5.7495-6.359,8.5693-9.5941
		l-53.0313-53.0313L2092.4487,1057.3378z"/>
	<path fill="#A8F80F" d="M2118.1216,925.2326c17.387-8.1687,34.3647-17.4326,50.8521-28.0367l-11.7351-11.7352l-39.4446,39.4445
		L2118.1216,925.2326z"/>
	<path fill="#5D8A09" d="M2064.2502,871.3615l53.5437,53.5437l39.4446-39.4445l-50.3804-50.3802
		c-2.6072,0.5262-5.2205,1.03-7.8396,1.5126L2064.2502,871.3615z"/>
	<path fill="#FBD518" d="M2150.0063,957.1175l21.3313,21.3314l39.4446-39.4445l-32.0747-32.0746
		c-3.0522,5.9173-6.9888,11.3712-10.2292,17.1839C2162.3296,935.1207,2156.2178,946.1501,2150.0063,957.1175z"/>
	<path fill="#0DDB5C" d="M2168.9736,897.1959c2.4045-1.5466,4.8015-3.1139,7.1848-4.7184c1.6277-1.119,3.0774-3.5858,5.3914-2.1362
		c2.7466,1.6784,1.6277,4.3995,0.9919,6.8154c-0.8816,3.465-2.2395,6.6811-3.8342,9.773l32.0747,32.0746l39.4443-39.4444
		l-53.5437-53.5437l-39.4443,39.4444L2168.9736,897.1959z"/>
	<path fill="#D46977" d="M1751.2197,873.8864l48.1654,48.1655l39.4445-39.4445l-19.8049-19.805
		c-1.9309,0.2738-3.8618,0.5484-5.7917,0.8363C1792.4531,866.741,1771.708,869.8545,1751.2197,873.8864z"/>
	<path fill="#DD560C" d="M1866.9832,989.6498c22.9839-2.6347,45.9089-5.9329,68.7625-10.1264l-43.3723-43.3723l-39.4445,39.4445
		L1866.9832,989.6498z"/>
	
		<rect x="1817.9877" y="891.2404" transform="matrix(-0.7071 0.7071 -0.7071 -0.7071 3808.0867 280.8417)" fill="#EBB11A" width="55.7829" height="75.7222"/>
	<path fill="#15B0D5" d="M1794.4773,996.0329c13.7501-0.8976,27.4841-1.9449,41.1997-3.1855l17.2518-17.2519l-53.5437-53.5437
		l-39.4445,39.4445L1794.4773,996.0329z"/>
	<path fill="#535807" d="M1706.397,907.9526l53.5437,53.5437l39.4445-39.4445l-48.1654-48.1655
		c-4.5393,0.8932-9.0669,1.8282-13.5784,2.8219L1706.397,907.9526z"/>
	<path fill="#0E88DF" d="M2073.9006,802.123l-23.7495-23.7497l-25.0591,25.059
		C2041.4965,803.6882,2057.7935,803.4786,2073.9006,802.123z"/>
	<path fill="#E9019D" d="M2067.3042,716.6377l22.2913,22.2912l39.4446-39.4445l-19.9465-19.9465
		C2095.9504,693.0515,2081.9531,705.3105,2067.3042,716.6377z"/>
	<path fill="#88CD54" d="M1970.166,777.2772l25.6716,25.6715c6.6085,0.0413,13.217,0.1243,19.8257,0.2916
		c3.1465,0.0778,6.2896,0.1431,9.4287,0.192l25.0591-25.059l-29.6063-29.6063c-14.9868,9.2427-30.3844,17.9286-46.0289,26.3212
		C1973.0908,775.8535,1971.6377,776.5782,1970.166,777.2772z"/>
	<path fill="#326CEB" d="M2138.9077,788.2411c4.9419-1.8651,9.8523-3.9461,14.7285-6.2656l28.9473-28.9474l-53.5435-53.5437
		l-39.4446,39.4445L2138.9077,788.2411z"/>
	<path fill="#ED7C44" d="M2073.9006,802.123c22.1013-1.8602,43.8425-5.8947,65.0071-13.8819l-49.3123-49.3122l-39.4443,39.4444
		L2073.9006,802.123z"/>
	<path fill="#944511" d="M2050.1511,778.3733l39.4443-39.4444l-22.2913-22.2912c-14.9717,11.5768-30.6252,22.179-46.7594,32.1293
		L2050.1511,778.3733z"/>
	<path fill="#24E9E6" d="M2159.0942,779.2843c11.1157-5.7289,21.3877-12.0396,30.625-19.1205l-7.1357-7.1356l-28.9473,28.9474
		C2155.4597,781.1082,2157.2803,780.2196,2159.0942,779.2843z"/>
	<path fill="#69FD13" d="M2109.0935,679.538l19.9465,19.9465l39.4443-39.4445l-22.0815-22.0815
		c-10.8079,12.7885-21.9355,25.3315-33.4663,37.5674C2111.6641,676.8757,2110.3826,678.2125,2109.0935,679.538z"/>
	<path fill="#43D4F7" d="M2189.7192,760.1638c15.3069-11.7338,27.74-25.6082,36.3411-42.5479l-4.0322-4.0322l-39.4446,39.4445
		L2189.7192,760.1638z"/>
	
		<rect x="2147.6423" y="668.673" transform="matrix(-0.7071 0.7071 -0.7071 -0.7071 4213.4653 -332.2028)" fill="#1608F1" width="55.783" height="75.7222"/>
	<path fill="#F9C051" d="M2242.1008,528.6874c-0.0508-3.5604,0.0764-8.6974-4.1201-9.74c-4.7302-1.1698-5.4678,4.3232-7.4768,7.2224
		c-5.1604,7.5342-10.3718,15.0267-15.6311,22.4808l29.5308,29.5308C2243.9849,561.6738,2242.3315,545.2051,2242.1008,528.6874z"/>
	<path fill="#B8190D" d="M2207.9287,620.5956l36.5657-36.5656c-0.0107-1.9501-0.0413-3.8997-0.0908-5.8486l-29.5308-29.5308
		c-10.8562,15.3862-21.9404,30.5892-33.3538,45.5352L2207.9287,620.5956z"/>
	<path fill="#14FA58" d="M1930.7238,801.2313c4.2979,3.2298,8.6212,1.6785,12.6139,1.7039c17.4999,0.1108,35-0.0959,52.5,0.0135
		l-25.6716-25.6715C1956.3805,783.8253,1940.926,788.0648,1930.7238,801.2313z"/>
	<path fill="#9AC723" d="M2242.0244,616.0682c1.9443-10.7158,2.5278-21.3873,2.47-32.0382l-36.5657,36.5656l31.6648,31.6647
		C2239.8147,640.097,2239.8655,627.9648,2242.0244,616.0682z"/>
	<path fill="#DCE106" d="M2222.0281,713.5837l10.0322-10.0323c2.7537-7.8788,4.7805-16.3467,5.9968-25.4824
		c1.1387-8.5703,1.3799-17.1973,1.5364-25.8087l-31.6648-31.6647l-39.4443,39.4444L2222.0281,713.5837z"/>
	<path fill="#E9AC06" d="M2168.4844,660.04l39.4443-39.4444l-26.4097-26.4098c-11.3516,14.8652-23.032,29.4742-35.1162,43.7727
		L2168.4844,660.04z"/>
	<path fill="#6A3504" d="M2232.0603,703.5514l-10.0322,10.0323l4.0322,4.0322
		C2228.3303,713.1448,2230.3423,708.4672,2232.0603,703.5514z"/>
	<path fill="#9A8FF4" d="M1950.9417,690.3013c-11.6389,11.117-23.8359,21.4857-36.4226,31.3289l24.4016,24.4016
		c16.0222-10.0845,31.5815-20.8052,46.5922-32.2966l-28.9376-28.9376C1954.7168,686.6454,1952.8444,688.4839,1950.9417,690.3013z"/>
	<path fill="#F113FD" d="M2005.9316,418.5984l-12.1776-12.1777l-16.8053,16.8054
		C1986.5211,421.2478,1996.1749,419.6729,2005.9316,418.5984z"/>
	<path fill="#26E7ED" d="M1824.7302,789.6193l11.0159,11.0157c11.5996-5.1382,23.1077-10.522,34.5029-16.2137
		c6.2527-3.1227,12.4575-6.3079,18.6123-9.5599l-20.2435-20.2436c-8.5109,5.7058-17.1014,11.3019-25.73,16.8439L1824.7302,789.6193z
		"/>
	<path fill="#EBCA1E" d="M2086.7422,420.52l39.4443-39.4445l-37.137-37.1371c-18.7859,7.2366-37.3271,15.0327-55.7177,23.1713
		L2086.7422,420.52z"/>
	<path fill="#7CEB06" d="M1985.5128,713.7351c14.7645-11.303,29.001-23.3478,42.6312-36.2577l-34.9485-34.9485
		c-11.0112,14.8668-23.239,28.9628-36.6204,42.2686L1985.5128,713.7351z"/>
	<path fill="#289E89" d="M1993.754,406.4207l12.1776,12.1777c14.1814-1.5618,28.5779-2.0769,43.2498-1.2733
		c9.8164,0.5341,13.1477,2.8737,13.1987,12.8936c0.0222,4.9865-0.075,9.9622-0.2642,14.9275l24.6262-24.6261l-53.4103-53.4103
		c-0.1591,0.0704-0.3184,0.14-0.4773,0.2103L1993.754,406.4207z"/>
	<path fill="#CCFD0E" d="M2086.7422,420.52l53.5437,53.5437l0.8777-0.8777c3.7783-23.5686,5.1819-47.8553,4.2986-72.835
		l-19.2756-19.2755L2086.7422,420.52z"/>
	<path fill="#CD0C34" d="M2145.4622,400.3511c-0.4165-11.7762-1.3401-23.7062-2.7634-35.7876l-16.5122,16.5121L2145.4622,400.3511z"
		/>
	<path fill="#D0191F" d="M2142.6987,364.5635c-0.5825-4.9456-1.2419-9.9143-1.9912-14.9102
		c-3.2805-21.8961-3.4331-21.9216-23.7017-15.8944c-4.4504,1.297-8.7991,3.0009-13.1477,4.603
		c-4.9561,1.8138-9.8884,3.6812-14.8086,5.5765l37.137,37.1371L2142.6987,364.5635z"/>
	<path fill="#41D67C" d="M1842.8878,771.4617c-7.3761,4.7375-14.7786,9.4374-22.1818,14.1332l4.0242,4.0243L1842.8878,771.4617z"/>
	<path fill="#2B92E9" d="M2046.2397,537.7953l15.1572,15.1573l39.4443-39.4446l-40.8503-40.8503
		c-2.2874,19.6384-6.1836,39.0094-11.5979,57.937C2047.7019,533.0092,2046.9783,535.4063,2046.2397,537.7953z"/>
	<path fill="#8C21F6" d="M1721.0704,843.7371c19.6805-6.3891,39.2206-13.1066,58.5653-20.3235l-8.0305-8.0305
		c-17.2562,8.8552-35.1857,16.5834-52.0146,26.8741L1721.0704,843.7371z"/>
	<path fill="#F209A7" d="M2098.8826,590.4382c10.2061-17.2803,18.6877-35.0807,25.5054-53.3835l-23.5466-23.5466l-39.4443,39.4446
		L2098.8826,590.4382z"/>
	<path fill="#1DE6D6" d="M2028.144,677.4774c6.4907-6.1476,12.8462-12.4883,19.0537-19.0411
		c6.739-7.1115,13.1108-14.3336,19.1333-21.6609l-42.9034-42.9033c-8.7277,17.0293-18.826,33.2568-30.2321,48.6568
		L2028.144,677.4774z"/>
	<path fill="#CC03C4" d="M1888.8613,774.8615c17.1096-9.0401,33.8213-18.6096,50.0593-28.8298l-24.4016-24.4016
		c-14.8464,11.6103-30.2373,22.4864-45.9012,32.9877L1888.8613,774.8615z"/>
	<path fill="#97F26C" d="M1771.6052,815.3831l8.0305,8.0305c6.1238-2.2845,12.228-4.619,18.3105-7.0103l26.7839-26.784
		l-4.0242-4.0243c-9.1372,5.7957-18.2742,11.5872-27.3601,17.4418C1786.3218,807.5643,1779.0244,811.5759,1771.6052,815.3831z"/>
	<path fill="#6BBA00" d="M1835.7461,800.635l-11.0159-11.0157l-26.7839,26.784
		C1810.6462,811.4104,1823.2511,806.1698,1835.7461,800.635z"/>
	<path fill="#360760" d="M2059.991,472.6577l40.8503,40.8503l39.4446-39.4443l-53.5437-53.5437l-24.6262,24.6261
		C2061.7649,454.3635,2061.0527,463.5393,2059.991,472.6577z"/>
	<path fill="#11A4E3" d="M2032.8546,367.3201c-17.9696,7.9591-35.7998,16.2351-53.5804,24.6208l14.4799,14.4797L2032.8546,367.3201z
		"/>
	<path fill="#B212D0" d="M2141.1636,473.186l-0.8777,0.8777l0.6338,0.6338C2141.0027,474.1941,2141.0828,473.6901,2141.1636,473.186
		z"/>
	<path fill="#9AEF1F" d="M1719.4688,844.2604c0.5345-0.173,1.0674-0.3499,1.6017-0.5233l-1.4799-1.4799
		c-1.2146,0.7427-2.4287,1.4865-3.6311,2.2575C1717.1292,844.4385,1718.4006,844.6165,1719.4688,844.2604z"/>
	<path fill="#0320ED" d="M1888.2034,448.8596c5.4675,2.0598,8.9517-1.0427,12.6646-2.4414
		c13.2837-5.0715,26.6285-9.7909,40.0916-13.9032l-14.2047-14.2047C1912.792,426.576,1899.6362,436.2573,1888.2034,448.8596z"/>
	<path fill="#7A0CE1" d="M2124.3879,537.0547c7.5168-20.1797,13.0066-40.9714,16.5317-62.3572l-0.6338-0.6338l-39.4446,39.4443
		L2124.3879,537.0547z"/>
	<path fill="#0517CA" d="M1926.7548,418.3103l14.2047,14.2047c11.8905-3.6321,23.8743-6.7853,35.9893-9.2889l16.8053-16.8054
		l-14.4799-14.4797c-6.5414,3.085-13.0769,6.183-19.6099,9.2864C1948.4929,406.5381,1937.3901,412.0144,1926.7548,418.3103z"/>
	<path fill="#1CD6C7" d="M2061.397,552.9526l-15.1572-15.1573c-5.3816,17.4053-12.019,34.1334-19.8538,50.1683L2061.397,552.9526z"
		/>
	<path fill="#ED4D03" d="M2023.4276,593.8721l42.9034,42.9033c12.3286-15.0002,23.168-30.4492,32.5515-46.3372l-37.4856-37.4856
		l-35.011,35.011C2025.4183,589.9439,2024.4316,591.913,2023.4276,593.8721z"/>
	<path fill="#49FEDF" d="M1501.7092,308.8204l-2.5679-2.568c-0.6396,1.788-1.2583,3.6005-1.8376,5.4578
		C1498.7756,310.7367,1500.2426,309.7782,1501.7092,308.8204z"/>
	<path fill="#94DF04" d="M1742.988,550.0992l-0.2788-0.2789c-0.0231,0.2102-0.0491,0.42-0.0725,0.6302L1742.988,550.0992z"/>
	<path fill="#E9DB2D" d="M1730.2783,616.2783l26.8091,26.8091l39.4443-39.4445l-53.5437-53.5437l-0.3513,0.3513
		C1740.1667,572.7074,1736.0144,594.6882,1730.2783,616.2783z"/>
	<path fill="#66EB24" d="M1778.0095,664.0095c0.218-0.4955,0.4458-0.9822,0.6625-1.4788
		c8.0924-18.5537,14.8368-37.4792,19.985-56.7625l-2.1252-2.1252l-39.4443,39.4445L1778.0095,664.0095z"/>
	<path fill="#ECAF31" d="M1796.5317,603.6429l3.6079-3.6079c5.0713-20.3281,8.347-41.0507,9.5161-62.157l-27.2231-27.2233
		l-39.4446,39.4445L1796.5317,603.6429z"/>
	<path fill="#E90D3A" d="M1527.5217,255.7439l23.1915,23.1917c12.151-6.9313,24.2758-13.5356,36.4889-19.9691
		c6.7295-3.5514,11.4552-5.9967,15.2341-7.1969l-41.7068-41.7067c-9.2869,12.2555-18.2894,24.7372-27.2122,37.2816
		C1531.527,250.1392,1529.5217,252.9331,1527.5217,255.7439z"/>
	<path fill="#F87DB1" d="M1794.1846,397.667c-0.3685-1.5759-0.752-3.1453-1.1383-4.7134l-24.713,24.7131l36.6748,36.6748
		C1802.2813,435.3514,1798.5879,416.4719,1794.1846,397.667z"/>
	<path fill="#E9B408" d="M1810.054,513.2509c-0.2249-9.5846-0.7615-19.132-1.5698-28.6476l-26.0515,26.0515l27.2231,27.2233
		C1810.1073,529.7257,1810.2478,521.5167,1810.054,513.2509z"/>
	<path fill="#CF7703" d="M1661.2458,310.5793l-0.1084-0.1085c0.0292,0.0431,0.0583,0.0863,0.0874,0.1295L1661.2458,310.5793z"/>
	<path fill="#F14E63" d="M1643.4143,844.9699c14.2046-12.1754,27.6733-25.0046,40.3916-38.4974l-30.1836-30.1835
		c-10.668,15.468-21.8621,30.6088-33.2981,45.5908L1643.4143,844.9699z"/>
	<path fill="#D11207" d="M1714.7896,364.123l53.5437,53.5437l24.713-24.7131c-3.5397-14.3683-7.8173-28.407-12.7081-42.1709
		l-26.1041-26.1042L1714.7896,364.123z"/>
	<path fill="#C53401" d="M1681.3773,183.3606c-15.6659-13.4377-32.7714-25.4016-48.8826-38.325
		c-5.9-4.7302-11.3423-4.0181-17.4965,2.0344c-6.4657,6.3699-12.6873,12.9348-18.7307,19.642l50.8792,50.879L1681.3773,183.3606z"/>
	<path fill="#0CBB4B" d="M1602.4363,251.7695c3.9722-1.2615,6.8984-1.136,9.9714,0.5605l34.739-34.739l-50.8792-50.879
		c-12.5293,13.9049-24.2506,28.4551-35.5381,43.3508L1602.4363,251.7695z"/>
	<path fill="#2626ED" d="M1700.6904,271.1348l28.2571-28.2571c-3.2209-5.5693-6.4922-11.1157-9.8093-16.6409
		c-10.0801-16.8284-23.3081-30.4792-37.7609-42.8762l-34.2306,34.2305L1700.6904,271.1348z"/>
	<path fill="#3B44C9" d="M1754.234,324.6785l11.1722-11.1721c-10.7476-24.1775-23.1475-47.6118-36.4587-70.6287l-28.2571,28.2571
		L1754.234,324.6785z"/>
	<path fill="#2CA257" d="M1780.3381,350.7827c-4.4924-12.6429-9.4994-25.0554-14.9319-37.2764l-11.1722,11.1721L1780.3381,350.7827z
		"/>
	<path fill="#A06C1D" d="M1501.7092,308.8204c16.5645-10.8168,32.8091-20.6469,49.004-29.8849l-23.1915-23.1917
		c-10.7493,15.106-21.3208,30.7771-28.3804,50.5085L1501.7092,308.8204z"/>
	<path fill="#6742FD" d="M1626.5947,265.9346c5.3914,5.9508,10.9862,11.7744,15.7927,18.1831
		c6.4866,8.6414,12.7239,17.4338,18.75,26.3531l0.1084,0.1085l39.4446-39.4446l-53.5437-53.5437l-34.739,34.739
		C1616.1665,254.405,1620.1569,258.8206,1626.5947,265.9346z"/>
	<path fill="#5AEF2F" d="M1800.1396,600.035l-3.6079,3.6079l2.1252,2.1252C1799.1664,603.8605,1799.6621,601.9498,1800.1396,600.035
		z"/>
	<path fill="#04F002" d="M1743.5773,541.1232c-0.2606,2.9034-0.551,5.8024-0.868,8.6971l0.2788,0.2789l39.4446-39.4445
		l-45.1914-45.1914C1743.3772,490.0349,1745.8945,515.2986,1743.5773,541.1232z"/>
	<path fill="#86F002" d="M1586.1313,866.5759l12.7922,12.7922c15.5265-10.8451,30.3733-22.2975,44.4907-34.3982l-23.0901-23.0901
		c-2.5615,3.3559-5.134,6.7048-7.7166,10.0467C1603.7368,843.3918,1594.9594,854.9268,1586.1313,866.5759z"/>
	<path fill="#EF29EF" d="M1737.2412,465.4634l45.1914,45.1914l26.0515-26.0515c-0.8599-10.1219-2.0323-20.2075-3.4761-30.2617
		l-36.6748-36.6748l-34.7151,34.715C1734.9366,456.7197,1736.1467,461.0804,1737.2412,465.4634z"/>
	
		<rect x="1679.8485" y="279.7678" transform="matrix(-0.7071 0.7071 -0.7071 -0.7071 3139.8904 -665.3304)" fill="#7BEAD4" width="55.783" height="75.7221"/>
	<path fill="#D4C913" d="M1661.2249,310.6003c14.5967,21.6155,27.8822,44.0173,39.9808,67.1064l13.5839-13.5837l-53.5437-53.5437
		L1661.2249,310.6003z"/>
	<path fill="#2C17BC" d="M1717.9937,411.7559c6.1604,13.2948,11.4365,26.8459,15.6245,40.6259l34.7151-34.715l-53.5437-53.5437
		l-13.5839,13.5837C1707.0715,388.9014,1712.6646,400.2537,1717.9937,411.7559z"/>
	<path fill="#EC31F0" d="M1684.1919,727.9696l35.6864,35.6865c11.3192-15.0767,21.8385-30.857,31.5043-47.3847l-33.7397-33.7396
		l-19.7223,19.7224C1693.5884,710.9747,1689.0005,719.5396,1684.1919,727.9696z"/>
	<path fill="#CDFF18" d="M1697.9205,702.2542l19.7223-19.7224l-7.3699-7.37c-0.4634,1.1125-0.9115,2.2299-1.3835,3.3395
		C1705.46,686.5567,1701.7896,694.4659,1697.9205,702.2542z"/>
	<path fill="#BA01BC" d="M1683.8059,806.4725c12.8041-13.5839,24.8361-27.8501,36.0724-42.8164l-35.6864-35.6865
		c-9.4473,16.5622-19.7354,32.6106-30.5696,48.3194L1683.8059,806.4725z"/>
	<path fill="#EC6704" d="M1565.4587,900.819c1.1953-0.3561,2.3142-1.0427,3.3823-1.7039
		c10.3008-6.3375,20.3198-12.9277,30.0825-19.7469l-12.7922-12.7922c-8.3054,10.9597-16.6555,22.02-25.174,33.2259
		C1563.9329,900.5139,1564.7979,900.997,1565.4587,900.819z"/>
	<path fill="#9BD853" d="M1717.6428,682.5319l39.4446-39.4445l-26.8091-26.8091c-5.3137,19.9997-11.9994,39.6591-20.0054,58.8835
		L1717.6428,682.5319z"/>
	<path fill="#5D0AE5" d="M1751.3826,716.2714c9.7439-16.6616,18.6276-34.0763,26.627-52.2619l-20.9221-20.9221l-39.4446,39.4445
		L1751.3826,716.2714z"/>
	<path fill="#F016C5" d="M1052.6267,490.8489l-29.183-29.1829c-7.7395,11.6501-15.2457,23.4641-22.6036,35.3599
		c-2.6795,4.3314-5.2576,8.7299-7.7455,13.1797l20.0877,20.0879L1052.6267,490.8489z"/>
	<path fill="#0FF4C0" d="M1027.2815,623.2815l-53.5436-53.5437l-7.5966,7.5966c-0.9772,4.0763-1.841,8.1885-2.5831,12.3365
		c-2.6541,14.77-4.0415,29.5357-4.4876,44.2886l28.7665,28.7664L1027.2815,623.2815z"/>
	<path fill="#EA272D" d="M1066.726,583.8371l23.9194-23.9194c3.6676-6.5649,7.5404-13.0454,11.6058-19.4443l-49.6245-49.6245
		l-39.4445,39.4446L1066.726,583.8371z"/>
	<path fill="#CE0F4C" d="M1013.1823,530.2935l-20.0877-20.0879c-9.7845,17.5-17.9884,35.9021-23.7307,55.1583l4.374,4.3739
		L1013.1823,530.2935z"/>
	<path fill="#181AE8" d="M969.3639,565.3639c-1.1793,3.9547-2.2576,7.9447-3.2226,11.9705l7.5966-7.5966L969.3639,565.3639z"/>
	
		<rect x="1375.5389" y="369.9026" transform="matrix(-0.7071 0.7071 -0.7071 -0.7071 2684.1379 -296.279)" fill="#D13908" width="55.7829" height="75.7222"/>
	
		<rect x="1258.4819" y="272.7848" transform="matrix(-0.7071 -0.7071 0.7071 -0.7071 2000.3857 1429.9395)" fill="#A8366F" width="75.7222" height="55.783"/>
	
		<rect x="1321.9952" y="316.3589" transform="matrix(-0.7071 0.7071 -0.7071 -0.7071 2554.8721 -349.8227)" fill="#097AF8" width="55.7829" height="75.7221"/>
	<path fill="#EA922A" d="M1342.8372,307.726l38.0984-38.0985c-19.9823-16.0464-40.8342-30.8691-62.4534-44.6339l-29.1887,29.1887
		L1342.8372,307.726z"/>
	<path fill="#4435F7" d="M1318.4822,224.9935c-6.0396-3.8453-12.1379-7.6091-18.2939-11.2943
		c-5.8237-3.484-9.9182-3.8401-15.6909,0.9664c-6.3337,5.2723-12.8591,10.3107-19.4368,15.2838l24.2329,24.2328L1318.4822,224.9935z
		"/>
	<path fill="#FD470A" d="M1220.363,264.1409l29.4858,29.4858l39.4446-39.4445l-24.2329-24.2328
		c-7.9214,5.9894-15.9204,11.8828-23.7705,17.9545C1234.3085,253.3079,1227.3298,258.7168,1220.363,264.1409z"/>
	<path fill="#94BC1C" d="M1074.7366,591.8477l-8.0106-8.0106l-39.4445,39.4444l27.6177,27.6177
		C1059.7173,630.5267,1066.3909,610.8542,1074.7366,591.8477z"/>
	<path fill="#38BEEC" d="M1090.6454,559.9177l-23.9194,23.9194l8.0106,8.0106
		C1079.5046,580.989,1084.8185,570.3475,1090.6454,559.9177z"/>
	<path fill="#11E927" d="M1001.9363,755.7141l39.4445-39.4444l-53.5438-53.5437l-26.6,26.6
		c0.9517,9.7385,2.1448,19.4668,3.4932,29.1821L1001.9363,755.7141z"/>
	<path fill="#4BEF4B" d="M1054.8992,650.8992l-27.6177-27.6177l-39.4444,39.4445l53.5438,53.5437l4.9369-4.937
		C1047.3749,690.5281,1050.2886,670.3936,1054.8992,650.8992z"/>
	<path fill="#06BFF4" d="M1131.5156,411.96l-38.6814-38.6813c-12.9891,13.465-25.0911,27.6547-36.5188,42.3701l35.7557,35.7557
		L1131.5156,411.96z"/>
	<path fill="#7FF320" d="M1495.3547,933.577c11.1547-15.2938,21.8489-30.897,32.0862-46.8026l-7.0203-7.0203l-39.4443,39.4445
		L1495.3547,933.577z"/>
	<path fill="#FAA12A" d="M959.0706,633.9595c-0.5588,18.4813,0.366,36.9423,2.1665,55.3664l26.6-26.6L959.0706,633.9595z"/>
	<path fill="#3D04BA" d="M1052.6267,490.8489l39.4445-39.4443l-35.7557-35.7557c-11.5576,14.8827-22.4299,30.2992-32.8717,46.0172
		L1052.6267,490.8489z"/>
	
		<rect x="1405.0137" y="340.4279" transform="matrix(0.7071 0.7071 -0.7071 0.7071 683.0494 -912.3883)" fill="#27F65E" width="75.7222" height="55.7829"/>
	<path fill="#13CAB6" d="M1454.4749,945.6999c-2.8613,5.7546-5.7349,11.5031-8.6635,17.2226l15.0774,15.0774
		c11.9663-14.4833,23.4386-29.3035,34.4659-44.4229l-14.3784-14.3785L1454.4749,945.6999z"/>
	<path fill="#0382F1" d="M1480.9763,919.1985l39.4443-39.4445l-25.1699-25.1699c-6.0481,18.9955-13.6089,37.6725-22.912,55.9768
		L1480.9763,919.1985z"/>
	<path fill="#EC8000" d="M1302.8838,353.7732c17.3738,16.2905,34.3865,32.9495,50.9595,50.0339l3.093-3.093l-53.5437-53.5437
		l-3.8538,3.8538C1300.6125,351.771,1301.7192,352.6754,1302.8838,353.7732z"/>
	<path fill="#26C8EF" d="M1255.6753,378.3419c9.3945-8.2938,18.759-16.6161,28.0082-25.0519
		c5.8668-5.3356,10.3873-6.0691,15.8553-2.2659l3.8538-3.8538l-53.5437-53.5437l-39.4443,39.4445L1255.6753,378.3419z"/>
	<path fill="#7C0AD5" d="M1390.8496,443.5955c4.76,5.3605,9.4478,10.7708,14.0596,16.2332l5.5708-5.5708l-53.5437-53.5437
		l-3.093,3.093C1366.4539,416.8066,1378.8167,430.0459,1390.8496,443.5955z"/>
	<path fill="#39DE1A" d="M1510.0586,790.5031l47.1149,47.1148c7.7258-13.6151,15.1658-27.4157,22.3234-41.3965
		c1.7296-3.3775,3.3848-6.7717,4.993-10.176l-38.724-38.7239l-34.4635,34.4635
		C1510.9172,784.6971,1510.4983,787.6022,1510.0586,790.5031z"/>
	<path fill="#7D45C0" d="M1210.4045,333.0712l39.4443-39.4445l-29.4858-29.4858c-14.7727,11.5017-29.4807,23.0845-44.0109,34.8779
		L1210.4045,333.0712z"/>
	<path fill="#6F03D7" d="M1585.2103,707.877l29.403-29.403c0.6193-6.2365,1.0511-12.4976,1.3029-18.7802l-44.8051-44.805
		l-39.4443,39.4444L1585.2103,707.877z"/>
	<path fill="#38D7F4" d="M1451.0002,520.825l13.0234-13.0234l-53.5437-53.5437l-5.5708,5.5708
		C1421.4177,479.3813,1436.9172,499.6257,1451.0002,520.825z"/>
	<path fill="#F4B405" d="M1545.7659,747.3215l-30.0435-30.0434c-0.23,21.7511-1.6127,43.2748-4.42,64.5069L1545.7659,747.3215z"/>
	<path fill="#B22217" d="M1520.4207,879.754l29.4343-29.4343c2.4695-4.2144,4.906-8.4504,7.3185-12.7018l-47.1149-47.1148
		c-3.2883,21.7021-8.1233,43.0863-14.8079,64.081L1520.4207,879.754z"/>
	<path fill="#C2FF0D" d="M1489.4512,589.4614l28.1162-28.1162l-53.5437-53.5437l-13.0234,13.0234
		C1465.4641,542.5977,1478.4294,565.3806,1489.4512,589.4614z"/>
	<path fill="#16A4D8" d="M1490.9714,592.799c4.9412,11.047,9.2356,22.2655,12.8137,33.6528l27.8816,27.8815l39.4443-39.4444
		l-53.5437-53.5437l-28.1162,28.1162C1489.9597,590.5727,1490.4712,591.6821,1490.9714,592.799z"/>
	<path fill="#0F8BEC" d="M1580.6866,498.226c-11.4136-23.3114-25.0035-45.6356-39.8014-67.286l-37.4171,37.4171l53.5437,53.5437
		L1580.6866,498.226z"/>
	
		<rect x="1429.0826" y="423.4463" transform="matrix(-0.7071 0.7071 -0.7071 -0.7071 2813.4041 -242.7353)" fill="#1DA9F7" width="55.7829" height="75.7222"/>
	<path fill="#F41334" d="M1213.8511,415.4065l-42.8911-42.8909l-39.4443,39.4443l41.7537,41.7539
		C1186.4136,440.5618,1200.0234,427.8748,1213.8511,415.4065z"/>
	<path fill="#08A675" d="M1079.271,892.5543c-11.1711-26.6063-19.6262-53.8776-25.2362-81.8513l-37.9992,37.9993l53.5438,53.5437
		L1079.271,892.5543z"/>
	<path fill="#A4F314" d="M1607.7273,572.6162c-6.0986-26.03-15.4503-50.7177-27.0406-74.3903l-23.6748,23.6748L1607.7273,572.6162z"
		/>
	
		<rect x="1482.6263" y="476.99" transform="matrix(-0.7071 0.7071 -0.7071 -0.7071 2942.6699 -189.1916)" fill="#C8037E" width="55.7829" height="75.7222"/>
	<path fill="#5B1EC8" d="M1056.0947,915.7306l13.4846-13.4846l-53.5438-53.5437l-1.3007,1.3007
		c0.4484,0.8824,0.8962,1.765,1.3383,2.6497C1027.2344,874.9919,1041.5619,895.4247,1056.0947,915.7306z"/>
	<path fill="#F8C701" d="M1145.9238,482.7083c8.7998-9.9795,17.958-19.6013,27.3455-28.9944l-41.7537-41.7539l-39.4445,39.4446
		l43.4655,43.4653C1138.9207,490.7805,1142.381,486.7253,1145.9238,482.7083z"/>
	<path fill="#0B43D6" d="M1517.5674,561.3452l53.5437,53.5437l37.6467-37.6469c-0.3368-1.5448-0.6709-3.0907-1.0305-4.6259
		l-50.7155-50.7155L1517.5674,561.3452z"/>
	<path fill="#E31DAF" d="M1102.4623,940.0844c-1.9994-3.5847-3.9398-7.1837-5.8375-10.7931l-27.0454-27.0453l-13.4846,13.4846
		c7.4211,10.3693,14.8949,20.7062,22.03,31.2456c7.2344,10.6863,14.7971,21.0618,22.6768,31.1349l15.1376-15.1376
		C1111.3022,955.4684,1106.7976,947.8508,1102.4623,940.0844z"/>
	<path fill="#A8E532" d="M1135.5366,494.8699l-43.4655-43.4653l-39.4445,39.4443l49.6245,49.6245
		C1112.2177,524.7859,1123.3535,509.5923,1135.5366,494.8699z"/>
	<path fill="#29A643" d="M1100.8015,978.1111c15.6418,19.9966,32.616,38.7215,51.1558,55.9316l8.2681-8.2681
		c-15.9352-20.0137-30.7388-40.8733-44.2863-62.8011L1100.8015,978.1111z"/>
	<path fill="#ABDE2D" d="M1423.3828,1019.3828c6.4838-6.1653,12.7474-12.5593,18.6851-19.3066
		c6.4063-7.2678,12.6711-14.6328,18.8209-22.0762l-15.0774-15.0774c-8.7401,17.0695-18.0393,33.8445-29.3165,49.5724
		L1423.3828,1019.3828z"/>
	<path fill="#1D26CE" d="M1045.9038,734.0935c-0.063-4.4429-0.0408-8.8554,0.0615-13.2393l-4.5845-4.5845l-39.4445,39.4444
		l51.384,51.3841C1048.762,783.2797,1046.2585,758.9537,1045.9038,734.0935z"/>
	
		<rect x="992.3405" y="538.9264" transform="matrix(0.7071 -0.7071 0.7071 0.7071 -109.0316 890.3492)" fill="#3E16DF" width="55.7828" height="75.7222"/>
	<path fill="#6363E8" d="M964.7303,718.5081c1.1082,7.9847,2.3192,15.9608,3.5835,23.9268
		c2.0288,12.7401,5.7299,24.8148,10.4054,36.4963l23.2171-23.2171L964.7303,718.5081z"/>
	<path fill="#EE57F7" d="M1016.0356,848.7023l37.9992-37.9993c-0.2408-1.2009-0.484-2.4013-0.7145-3.6049l-51.384-51.3841
		l-23.2171,23.2171c9.0953,22.7241,21.8795,43.9597,33.2443,65.699L1016.0356,848.7023z"/>
	<path fill="#3126CF" d="M1380.9355,269.6274l-38.0984,38.0985l53.5436,53.5437l39.4445-39.4445l-39.2927-39.2926
		c-0.7583-0.6414-1.5175-1.2822-2.275-1.9244C1389.8635,276.8821,1385.4188,273.2277,1380.9355,269.6274z"/>
	<path fill="#120886" d="M1489.3689,375.3689l4.7019-4.7019c-17.1396-18.5509-35.8018-35.5935-54.9594-52.1281l-3.2863,3.2863
		L1489.3689,375.3689z"/>
	<path fill="#16E9A9" d="M1170.96,372.5156l-37.4288-37.429c-8.7772,7.7194-17.4432,15.5686-25.9572,23.5947
		c-5.0468,4.7559-9.949,9.6311-14.7397,14.5973l38.6814,38.6813L1170.96,372.5156z"/>
	<path fill="#45F958" d="M1454.4749,945.6999l26.5015-26.5014l-8.6376-8.6376c-0.8972,1.7653-1.7997,3.5295-2.7294,5.2878
		C1464.3928,925.7073,1459.4431,935.7082,1454.4749,945.6999z"/>
	<path fill="#01E649" d="M1439.1115,318.5389c-14.0656-12.1398-28.3934-24.0104-42.579-36.0063l39.2927,39.2926L1439.1115,318.5389z
		"/>
	<path fill="#D3BA5E" d="M1210.4045,333.0712l-34.0524-34.0524c-14.4935,11.7639-28.806,23.7422-42.821,36.0679l37.4288,37.429
		L1210.4045,333.0712z"/>
	<path fill="#F0680F" d="M1213.8511,415.4065c13.8287-12.4692,27.8591-24.7358,41.8242-37.0646l-45.2708-45.2708l-39.4446,39.4445
		L1213.8511,415.4065z"/>
	<path fill="#AA0C30" d="M1046.3177,711.3327l-4.9369,4.937l4.5845,4.5845C1046.0397,717.6649,1046.1572,714.491,1046.3177,711.3327
		z"/>
	<path fill="#1C3C9A" d="M1584.4899,786.0454c8.9165-18.8741,15.9777-38.1494,21.141-57.7479l-20.4205-20.4205l-39.4445,39.4445
		L1584.4899,786.0454z"/>
	<path fill="#9E983A" d="M1614.6133,678.4741l-29.403,29.403l20.4205,20.4205
		C1609.9513,711.8983,1612.9451,695.2738,1614.6133,678.4741z"/>
	<path fill="#029CF6" d="M1515.5886,695.7944c0.1616,7.184,0.2094,14.346,0.1338,21.4836l30.0435,30.0434l39.4445-39.4445
		l-53.5436-53.5437l-17.8359,17.8359C1514.7974,679.967,1515.4082,687.8385,1515.5886,695.7944z"/>
	<path fill="#F3CA1C" d="M1531.6667,654.3333l-27.8816-27.8815c4.6934,14.9368,8.1187,30.1718,10.0457,45.7174L1531.6667,654.3333z"
		/>
	<path fill="#97E232" d="M1549.855,850.3198l-29.4343,29.4343l7.0203,7.0203
		C1535.158,874.7846,1542.6373,862.6375,1549.855,850.3198z"/>
	<path fill="#3003CC" d="M1011.9636,844.6302c0.9343,1.7871,1.8591,3.5777,2.7713,5.3728l1.3007-1.3007L1011.9636,844.6302z"/>
	<path fill="#6F22C3" d="M1201.0327,1073.3428c-0.7629-0.9919-1.4496-2.0345-2.2888-2.95
		c-13.4607-14.4492-26.3149-29.291-38.5186-44.6182l-8.2681,8.2681C1167.2175,1048.2087,1183.5173,1061.3689,1201.0327,1073.3428z"
		/>
	<path fill="#214EF6" d="M1069.5793,902.246l27.0454,27.0453c-6.364-12.1042-12.1523-24.3488-17.3538-36.737L1069.5793,902.246z"/>
	<path fill="#3407FB" d="M1449.9244,414.8134l53.5437,53.5437l37.4171-37.4171c-3.0836-4.5117-6.2168-8.9957-9.397-13.4517
		l-42.1194-42.1194L1449.9244,414.8134z"/>
	<path fill="#139BEC" d="M1531.4883,417.4883c-3.7112-5.2001-7.4796-10.3657-11.2965-15.498
		c-8.1586-10.9825-16.923-21.3678-26.121-31.3232l-4.7019,4.7019L1531.4883,417.4883z"/>
	<path fill="#FE8E19" d="M1611.6924,592.4937c-0.8462-5.1377-1.8364-10.2169-2.9346-15.2516l-37.6467,37.6469l44.8051,44.805
		C1616.8042,637.5278,1615.4126,615.0922,1611.6924,592.4937z"/>
	<path fill="#E3AF5D" d="M1414.2717,1015.5891c-8.5447,11.5202-18.9968,21.6417-26.0667,34.3826
		c12.0448-9.9165,23.9441-19.907,35.1777-30.5889l-6.8879-6.8879C1415.7549,1013.5269,1415.0293,1014.5664,1414.2717,1015.5891z"/>
	<path fill="#DEBC1C" d="M899.7991,338.0212l-7.8035-7.8035l-39.4445,39.4446l17.4331,17.433
		C878.905,370.1624,888.8438,353.7925,899.7991,338.0212z"/>
	<path fill="#E82929" d="M983.4482,881.2896c-12.33-15.8848-25.8702-30.9659-36.6744-47.8119
		c-2.9385-4.5822-5.9395-9.1179-8.9687-13.6325l-14.7578,14.7578l53.5437,53.5437L983.4482,881.2896z"/>
	<path fill="#13F6E7" d="M835.79,747.3455c8.8277,13.5732,18.3558,26.5212,28.5094,38.9182l5.2044-5.2044L835.79,747.3455z"/>
	
		<rect x="857.0546" y="245.8627" transform="matrix(0.7071 -0.7071 0.7071 0.7071 58.5714 708.8514)" fill="#6A17F7" width="55.7828" height="75.7222"/>
	<path fill="#2CDAE8" d="M934.5056,293.8389l-3.0656-3.0654l-39.4445,39.4443l7.8035,7.8035
		C910.4239,322.7261,921.9949,307.9884,934.5056,293.8389z"/>
	<path fill="#CC6E81" d="M845.5541,441.5542c7.0289-18.7417,15.1813-36.9033,24.4301-54.4589l-17.4331-17.433l-39.4444,39.4443
		L845.5541,441.5542z"/>
	<path fill="#79E803" d="M852.5511,369.6624l-41.9116-41.9116c-8.1365,18.5559-15.4167,37.5677-21.8614,57.0273l24.3286,24.3286
		L852.5511,369.6624z"/>
	<path fill="#EF330A" d="M820.8826,722.593l31.7032-31.7032c-1.6934-3.4925-3.3198-6.9969-4.8763-10.5137l-45.8487-45.8487
		l-15.9919,15.9919c8.5151,21.2396,18.9811,41.6699,29.7065,62.2374C817.303,716.0728,819.0777,719.3466,820.8826,722.593z"/>
	<path fill="#B034C3" d="M869.5038,781.0593l23.9766-23.9766c-3.6002-5.0372-7.1898-10.0824-10.7417-15.1565
		c-11.6918-16.704-21.7573-33.7214-30.1528-51.0364l-31.7032,31.7032c4.7143,8.4794,9.6873,16.7262,14.9073,24.7524
		L869.5038,781.0593z"/>
	<path fill="#BE25EB" d="M813.1068,409.1067l-24.3286-24.3286c-4.1872,12.6431-8.0296,25.4709-11.5018,38.4978
		c-2.0746,7.7908-3.9093,15.5798-5.519,23.3704l1.905,1.9049L813.1068,409.1067z"/>
	<path fill="#3904DC" d="M787.7615,541.5393l39.4445-39.4445l-53.5437-53.5437l-2.8627,2.8627
		c-4.2663,21.948-6.6746,43.9146-7.1884,65.9751L787.7615,541.5393z"/>
	<path fill="#2AF679" d="M826.1747,610.2136l-24.3139,24.3139l45.8487,45.8487
		C837.5791,657.4882,830.3563,634.0907,826.1747,610.2136z"/>
	<path fill="#F1F839" d="M771.7573,446.6462c-0.3284,1.5891-0.6488,3.1782-0.9577,4.7676l2.8627-2.8627L771.7573,446.6462z"/>
	<path fill="#D07953" d="M923.0474,834.603l-6.4262,6.4263c9.8655,8.9691,20.0714,17.6473,30.585,26.0682
		c9.2319,7.3823,18.2778,15.2614,28.3704,22.0638l1.0145-1.0145L923.0474,834.603z"/>
	<path fill="#81A1E1" d="M917.3408,197.7852l-17.1138-17.1138c-11.8869,14.75-23.0574,29.8739-33.5181,45.3708l11.1875,11.1875
		L917.3408,197.7852z"/>
	<path fill="#5D20AC" d="M771.3633,604.03c3.4639,16.1226,8.4992,31.5074,14.5056,46.4894l15.9919-15.9919L771.3633,604.03z"/>
	<path fill="#8E2CFD" d="M961.9456,153.1804c-4.548-4.4995-9.1542-8.9536-13.8239-13.3582
		c-3.9434-3.7189-6.1013-1.8759-9.3293,0.5256l17.9929,17.9929L961.9456,153.1804z"/>
	<path fill="#851EEB" d="M877.8964,237.2297l-11.1875-11.1875c-10.741,15.912-20.7272,32.2205-29.9626,48.9261l1.7057,1.7057
		L877.8964,237.2297z"/>
	<path fill="#9FBB19" d="M956.7853,158.3408l-17.9929-17.9929c-0.0611,0.0455-0.12,0.0896-0.1819,0.1355
		c-9.6129,7.1206-17.8271,15.6909-25.5073,24.6681c-4.3839,5.1254-8.6707,10.3014-12.8763,15.5199l17.1138,17.1138
		L956.7853,158.3408z"/>
	<path fill="#141A20" d="M852.5511,369.6624l39.4445-39.4446l-53.5436-53.5437l-5.778,5.7781
		c-7.9232,14.7927-15.2767,29.8871-22.0344,45.2986L852.5511,369.6624z"/>
	<path fill="#381BDE" d="M763.6113,517.3889c-0.3602,15.4697,0.2048,30.9858,1.7255,46.5752l22.4247-22.4248L763.6113,517.3889z"/>
	<path fill="#3816B8" d="M916.6212,841.0292l6.4262-6.4263l-53.5436-53.5437l-5.2044,5.2044
		C880.2889,805.7861,897.828,823.9437,916.6212,841.0292z"/>
	<path fill="#0882FF" d="M937.8052,819.8452c-14.2816-21.2849-29.4314-41.9246-44.3248-62.7625l-23.9766,23.9766l53.5436,53.5437
		L937.8052,819.8452z"/>
	<path fill="#B7E31A" d="M771.3633,604.03l30.4974,30.4975l24.3139-24.3139c-1.9741-11.2723-3.2679-22.652-3.8735-34.1347
		l-34.5396-34.5396l-22.4247,22.4248c1.0554,10.8196,2.5657,21.6742,4.5392,32.5731
		C770.3323,599.0534,770.8305,601.5499,771.3633,604.03z"/>
	<path fill="#533EDE" d="M836.7462,274.9684c-1.3742,2.4857-2.7314,4.9803-4.0723,7.4838l5.778-5.7781L836.7462,274.9684z"/>
	<path fill="#98570C" d="M975.096,255.5405l-4.2115-4.2117l-39.4445,39.4446l3.0656,3.0654
		c4.6071-5.2106,9.3407-10.342,14.201-15.3923C964.6732,261.8638,968.91,255.1141,975.096,255.5405z"/>
	<path fill="#428FE9" d="M1013.0456,209.1678l-2.7167,2.7167l21.9389,21.9388
		C1026.0547,225.4504,1019.6476,217.2318,1013.0456,209.1678z"/>
	
		<rect x="925.9738" y="176.9434" transform="matrix(0.7071 0.7071 -0.7071 0.7071 427.1413 -621.5397)" fill="#781EDD" width="75.7222" height="55.7828"/>
	<path fill="#D11244" d="M975.096,255.5405c5.3024,0.3655,12.0366,6.0021,28.8213,15.2512
		c11.6567,6.4216,23.0554,13.3291,34.6555,19.9363l19.4469-19.4468c-8.1448-12.8367-16.7397-25.3132-25.7518-37.4579
		l-21.9389-21.9388l-39.4444,39.4443L975.096,255.5405z"/>
	<path fill="#D00252" d="M976.5911,888.1467l-1.0145,1.0145c1.8386,1.2392,3.7123,2.4418,5.6284,3.5994L976.5911,888.1467z"/>
	
		<rect x="886.5293" y="216.3878" transform="matrix(0.7071 0.7071 -0.7071 0.7071 443.4792 -582.095)" fill="#4E12CE" width="75.7222" height="55.783"/>
	<path fill="#3E2098" d="M827.7126,502.6016l-0.5066-0.5067l-39.4445,39.4445l34.5396,34.5396
		C821.0326,552.0305,822.7938,527.5283,827.7126,502.6016z"/>
	<path fill="#7815FA" d="M827.9691,501.3318l-0.7631,0.7631l0.5066,0.5067C827.796,502.1785,827.8838,501.7549,827.9691,501.3318z"
		/>
	<path fill="#EFC689" d="M1010.3289,211.8845l2.7167-2.7167c-15.968-19.504-33.0475-38.1268-51.1-55.9874l-5.1603,5.1604
		L1010.3289,211.8845z"/>
	<path fill="#B80D58" d="M1058.0197,271.2813l-19.4469,19.4468c13.7581,7.8364,27.8008,15.2489,42.9089,20.9059
		C1074.1479,297.7925,1066.3137,284.353,1058.0197,271.2813z"/>
	<path fill="#F3081A" d="M836.8611,466.8137c2.675-8.5323,5.577-16.9512,8.693-25.2595l-32.4474-32.4475l-39.4445,39.4445
		l53.5437,53.5437l0.7631-0.7631C830.27,489.9132,833.2242,478.4071,836.8611,466.8137z"/>
	<path fill="#8105F9" d="M986.1411,884.7974c-0.8896-1.1746-1.7886-2.3429-2.6928-3.5078l-6.8571,6.8571l4.6139,4.6139
		c3.7621,2.2731,7.6808,4.3783,11.8278,6.2273C993.0837,892.1216,988.9893,888.5866,986.1411,884.7974z"/>
</g>
</svg>
