<?xml version="1.0" encoding="utf-8"?>

<!DOCTYPE svg PUBLIC "-//W3C//DTD SVG 1.1//EN" "http://www.w3.org/Graphics/SVG/1.1/DTD/svg11.dtd">
<svg version="1.1" id="Layer_1" xmlns="http://www.w3.org/2000/svg" xmlns:xlink="http://www.w3.org/1999/xlink" x="0px" y="0px"
	 viewBox="0 0 2526.0002 1644.0834" enable-background="new 0 0 2526.0002 1644.0834" xml:space="preserve">
<g>
	<g>
		<linearGradient id="SVGID_1_" gradientUnits="userSpaceOnUse" x1="435.376" y1="407.6551" x2="2125.4565" y2="407.6551">
			<stop  offset="0" style="stop-color:#009E54"/>
			<stop  offset="0.2" style="stop-color:#FDE92B"/>
			<stop  offset="0.4" style="stop-color:#EB2D2E"/>
			<stop  offset="0.6" style="stop-color:#E91388"/>
			<stop  offset="0.8" style="stop-color:#333391"/>
			<stop  offset="1" style="stop-color:#00A8DE"/>
		</linearGradient>
		<path fill="url(#SVGID_1_)" d="M1262.5309,22.0417c22.8501,35.42,43.1588,72.4196,64.1086,108.9844
			c23.5826,42.1976,46.8679,84.5552,69.4663,127.2788c23.3308,49.0429,43.8687,99.4599,60.7659,151.0904
			c58.4303-53.8972,124.5996-99.2771,194.8213-136.3914c35.3748-18.4313,71.8937-34.733,109.6262-47.7377
			c7.5099,54.8586,9.9594,110.4501,8.4255,165.7894c-1.6256,44.1205-5.9756,88.4239-17.149,131.2627
			c37.4351-17.8361,77.1364-30.3142,116.5178-43.0674c84.715-26.6054,170.3685-50.2565,256.343-72.4884
			c-5.7927,49.0888-20.5146,98.4979-50.0278,138.7491c-5.8616,6.8917-10.8296,15.4548-19.5762,19.0496
			c-39.106,17.9048-77.4796,37.4803-114.2048,59.8956c-17.8818,10.8068-34.8018,23.1252-50.4398,36.9544
			c14.6302-31.4361,29.9709-62.5519,46.0439-93.2781c-93.6448,29.0319-184.7708,65.917-272.9202,108.7328
			c-69.9241,33.8856-137.2153,73.0837-201.6904,116.4026c-14.7449-48.4476-32.9015-95.8421-53.5308-142.0695
			c-15.1342-35.4888-34.9392-68.665-53.0956-102.6422c-29.9478-54.6758-60.5597-109.0308-93.072-162.218
			c-47.074,76.0603-89.5919,154.8456-131.9724,233.5846c-22.5295,46.9596-42.1741,95.2932-58.9341,144.6107
			c-3.3657,9.1131-3.6174,19.0496-7.1206,28.1621c-73.7249-50.5539-152.3953-93.5984-232.9664-132.1554
			c-75.4191-35.7173-152.5328-68.0925-231.5468-95.0182c12.0433,22.5986,21.0871,46.7081,29.4901,70.8858
			c-29.4901-26.2845-65.3452-43.7768-101.0857-59.8268c-17.2178-7.5099-34.5958-14.6079-52.2714-20.9043
			c-8.9982-2.3807-13.5087-11.2418-18.8204-18.0189c-25.6895-38.0533-26.628-87.6229-15.8212-130.896
			c50.5771,13.0277,100.3987,28.8257,150.0831,44.8987c62.6433,21.11,125.6072,42.0602,185.4572,70.428
			c-14.3787-57.7665-17.9735-117.5939-17.3324-176.9171c0.9159-40.0908,3.4344-80.2046,8.5631-119.9746
			c81.2806,28.1621,157.3638,70.1988,226.9446,120.5699c23.5829,17.3095,46.6848,35.3741,68.3903,55.042
			c1.9005,1.1677,3.4343,4.3271,6.2277,3.4802c16.1647-47.944,35.2827-94.8807,56.6903-140.7184
			C1169.8707,181.8321,1214.7012,101.0328,1262.5309,22.0417z"/>
		<linearGradient id="SVGID_2_" gradientUnits="userSpaceOnUse" x1="1280.4163" y1="793.2685" x2="1280.4163" y2="22.0418">
			<stop  offset="0" style="stop-color:#310908"/>
			<stop  offset="0.0782" style="stop-color:#671E11"/>
			<stop  offset="0.1514" style="stop-color:#C95A10"/>
			<stop  offset="0.2113" style="stop-color:#FDC339"/>
			<stop  offset="0.2662" style="stop-color:#A0796A"/>
			<stop  offset="0.3378" style="stop-color:#C1AA94"/>
			<stop  offset="0.4193" style="stop-color:#496589"/>
			<stop  offset="0.5008" style="stop-color:#4A5877"/>
			<stop  offset="0.5724" style="stop-color:#5F99C9"/>
			<stop  offset="0.604" style="stop-color:#55BCE8"/>
			<stop  offset="0.6789" style="stop-color:#6199C7"/>
			<stop  offset="0.7454" style="stop-color:#FAD88A"/>
			<stop  offset="0.8087" style="stop-color:#FEC63A"/>
			<stop  offset="0.8569" style="stop-color:#E78822"/>
			<stop  offset="0.9334" style="stop-color:#953A11"/>
			<stop  offset="1" style="stop-color:#3F0D05"/>
		</linearGradient>
		<path fill="url(#SVGID_2_)" d="M1262.7397,41.0719c14.7832,23.7901,28.7645,48.4068,42.3591,72.3423
			c4.1964,7.3885,8.535,15.0274,12.8345,22.5317c27.2179,48.7029,49.2223,89.0179,69.233,126.8454
			c23.845,50.1438,44.1001,100.5155,60.2013,149.7145l4.8419,14.7945l11.4424-10.5545
			c55.6691-51.3503,120.5073-96.7374,192.714-134.9007v0c33.4132-17.4067,65.1487-31.5394,96.63-43.0175
			c5.9355,48.3459,8.2074,99.3778,6.7542,151.897c-1.8912,51.2837-7.2393,92.2975-16.8306,129.0698l-5.4241,20.7955l19.4015-9.244
			c34.6471-16.5076,72.1277-28.6244,108.374-40.3419l6.8931-2.2297c72.3381-22.717,149.3677-44.6101,241.3657-68.5844
			c-7.4011,47.4589-22.8323,87.4763-45.9634,119.1321c-1.3542,1.6072-2.6294,3.2433-3.8652,4.8287
			c-3.7585,4.8221-7.3086,9.3769-11.6501,11.1612l-0.1824,0.075l-0.1792,0.0819c-43.6472,19.9843-81.3462,39.7583-115.2141,60.4295
			c-6.1467,3.7148-12.1631,7.5942-18.0344,11.6274c9.0427-18.5215,18.2976-36.8366,27.6721-54.7571l11.1458-21.3074l-22.968,7.1207
			c-90.4778,28.05-182.7753,64.8202-274.3199,109.285c-64.3232,31.1716-128.7693,68.032-191.7529,109.6678
			c-13.5192-42.5172-30.292-86.2956-49.9399-130.3314c-11.3885-26.6924-25.4818-52.2994-39.1115-77.0638
			c-4.7385-8.6098-9.6383-17.5129-14.3317-26.2957l-0.0243-0.0455l-0.025-0.0455
			c-36.3748-66.4095-65.1528-116.5662-93.3104-162.6295l-8.4794-13.8717l-8.5559,13.8245
			c-48.0981,77.7155-92.8188,160.8022-132.2748,234.1079l-0.1102,0.2045l-0.1002,0.2095
			c-22.4258,46.7431-42.3927,95.7302-59.344,145.5945c-1.9012,5.1855-2.8885,10.2908-3.8439,15.2295
			c-0.0013,0.007-0.0027,0.0139-0.004,0.0208c-64.6663-43.3525-137.613-84.3016-222.5331-124.9396
			c-81.9869-38.8278-158.0715-70.0486-232.6014-95.4462l-23.951-8.1619l11.9005,22.3305
			c6.4097,12.0275,11.9687,24.5759,16.9714,37.1535c-24.2451-16.2488-50.3973-28.5817-75.6454-39.9199l-0.0493-0.0222
			l-0.0496-0.0214c-19.4383-8.4786-36.7466-15.3995-52.9135-21.1586l-0.3938-0.1403l-0.4041-0.1069
			c-3.7126-0.9821-6.6731-5.118-10.1012-9.9071c-1.0146-1.4175-2.0616-2.8799-3.1758-4.3175
			c-11.0174-16.43-17.6588-36.1244-19.7406-58.5421c-1.5792-17.0035-0.4371-35.557,3.2993-54.1889
			c47.5094,12.601,94.8502,27.6695,139.464,42.1018l5.7069,1.9226c59.5474,20.059,121.1221,40.8007,178.6052,68.0469l19.0895,9.0481
			l-5.1025-20.5c-12.3689-49.6929-17.7828-105.0931-17.0372-174.3433c0.8833-38.5798,3.1717-73.5714,6.9759-106.5251
			c71.9748,26.296,143.4511,64.9591,212.6296,115.0339c27.1685,19.9413,48.6431,37.2219,67.5789,54.3804l0.6886,0.6241
			l0.3762,0.2311c0.0929,0.0911,0.2019,0.2,0.2921,0.2901c1.6478,1.6448,5.0764,5.0669,10.6638,5.0669
			c1.2845,0,2.5714-0.1929,3.8247-0.5731l4.9276-1.495l1.6453-4.8793c15.4128-45.714,34.3138-92.6395,56.1761-139.4704
			C1179.7841,184.4725,1221.3802,110.0547,1262.7397,41.0719 M1262.531,22.0418c-47.8297,78.991-92.6603,159.7903-135.613,241.5293
			c-21.4077,45.8376-40.5255,92.7745-56.6903,140.7183c-0.3234,0.0981-0.6295,0.1424-0.9216,0.1424
			c-2.2313,0-3.6255-2.5899-5.3059-3.6223c-21.7056-19.6681-44.8076-37.7326-68.3906-55.0421
			c-69.5807-50.371-145.6638-92.4076-226.9446-120.5697c-5.1288,39.77-7.6471,79.8838-8.563,119.9745
			c-0.6412,59.3231,2.9538,119.1507,17.3323,176.9171c-59.85-28.3679-122.8138-49.3181-185.4571-70.4281
			c-49.6846-16.0728-99.5062-31.8709-150.0831-44.8986c-10.8069,43.2731-9.8683,92.8426,15.8212,130.896
			c5.3116,6.7771,9.8221,15.6381,18.8202,18.0188c17.6757,6.2964,35.0538,13.3945,52.2714,20.9043
			c35.7405,16.05,71.5958,33.5424,101.0858,59.8269c-8.4029-24.1776-17.4467-48.2874-29.49-70.886
			c79.014,26.9257,156.1276,59.301,231.5466,95.0184c80.5712,38.5569,159.2417,81.6014,232.9665,132.1555
			c3.5033-9.1126,3.755-19.0491,7.1207-28.1622c16.76-49.3176,36.4045-97.6512,58.9341-144.6107
			c42.3805-78.739,84.8986-157.5243,131.9723-233.5848c32.5125,53.1874,63.1244,107.5424,93.0721,162.2181
			c18.1565,33.9771,37.9614,67.1533,53.0956,102.6422c20.6293,46.2274,38.7859,93.6219,53.5306,142.0695
			c64.4752-43.3188,131.7665-82.5169,201.6906-116.4026c88.1494-42.8157,179.2754-79.7007,272.9202-108.7326
			c-16.073,30.7262-31.4138,61.8419-46.0439,93.2781c15.6379-13.8293,32.5579-26.1476,50.4397-36.9545
			c36.7253-22.4153,75.0989-41.9907,114.2048-59.8958c8.7466-3.5947,13.7146-12.1578,19.5762-19.0495
			c29.5132-40.2513,44.2351-89.6603,50.0278-138.7491c-85.9744,22.2319-171.6279,45.8828-256.343,72.4883
			c-39.3813,12.7534-79.0828,25.2314-116.5177,43.0674c11.1736-42.8388,15.5236-87.1422,17.149-131.2626
			c1.5338-55.3393-0.9158-110.9307-8.4255-165.7895c-37.7325,13.0048-74.2515,29.3064-109.6262,47.7378
			c-70.2217,37.1143-136.3909,82.494-194.8214,136.3914c-16.8971-51.6305-37.4349-102.0476-60.7656-151.0905
			c-22.5984-42.7236-45.8839-85.0812-69.4664-127.2788C1305.6898,94.4613,1285.381,57.4618,1262.531,22.0418L1262.531,22.0418z"/>
		<linearGradient id="SVGID_3_" gradientUnits="userSpaceOnUse" x1="432.876" y1="407.2763" x2="2128.3674" y2="407.2763">
			<stop  offset="0" style="stop-color:#201636"/>
			<stop  offset="0.1" style="stop-color:#132262"/>
			<stop  offset="0.2" style="stop-color:#332327"/>
			<stop  offset="0.3" style="stop-color:#A3306C"/>
			<stop  offset="0.4" style="stop-color:#D5BC35"/>
			<stop  offset="0.5" style="stop-color:#056215"/>
			<stop  offset="0.6" style="stop-color:#27FBFF"/>
			<stop  offset="0.7" style="stop-color:#00006A"/>
			<stop  offset="0.8" style="stop-color:#A21C2F"/>
			<stop  offset="0.9" style="stop-color:#7A0F0F"/>
			<stop  offset="1" style="stop-color:#F9D648"/>
		</linearGradient>
		<path fill="none" stroke="url(#SVGID_3_)" stroke-width="5" stroke-miterlimit="10" d="M1262.5309,22.0417
			c22.8501,35.42,43.1588,72.4196,64.1086,108.9844c23.5826,42.1976,46.8679,84.5552,69.4663,127.2788
			c23.3308,49.0429,43.8687,99.4599,60.7659,151.0904c58.4303-53.8972,124.5996-99.2771,194.8213-136.3914
			c35.3748-18.4313,71.8937-34.733,109.6262-47.7377c7.5099,54.8586,9.9594,110.4501,8.4255,165.7894
			c-1.6256,44.1205-5.9756,88.4239-17.149,131.2627c37.4351-17.8361,77.1364-30.3142,116.5178-43.0674
			c84.715-26.6054,170.3685-50.2565,256.343-72.4884c-5.7927,49.0888-20.5146,98.4979-50.0278,138.7491
			c-5.8616,6.8917-10.8296,15.4548-19.5762,19.0496c-39.106,17.9048-77.4796,37.4803-114.2048,59.8956
			c-17.8818,10.8068-34.8018,23.1252-50.4398,36.9544c14.6302-31.4361,29.9709-62.5519,46.0439-93.2781
			c-93.6448,29.0319-184.7708,65.917-272.9202,108.7328c-69.9241,33.8856-137.2153,73.0837-201.6904,116.4026
			c-14.7449-48.4476-32.9015-95.8421-53.5308-142.0695c-15.1342-35.4888-34.9392-68.665-53.0956-102.6422
			c-29.9478-54.6758-60.5597-109.0308-93.072-162.218c-47.074,76.0603-89.5919,154.8456-131.9724,233.5846
			c-22.5295,46.9596-42.1741,95.2932-58.9341,144.6107c-3.3657,9.1131-3.6174,19.0496-7.1206,28.1621
			c-73.7249-50.5539-152.3953-93.5984-232.9664-132.1554c-75.4191-35.7173-152.5328-68.0925-231.5468-95.0182
			c12.0433,22.5986,21.0871,46.7081,29.4901,70.8858c-29.4901-26.2845-65.3452-43.7768-101.0857-59.8268
			c-17.2178-7.5099-34.5958-14.6079-52.2714-20.9043c-8.9982-2.3807-13.5087-11.2418-18.8204-18.0189
			c-25.6895-38.0533-26.628-87.6229-15.8212-130.896c50.5771,13.0277,100.3987,28.8257,150.0831,44.8987
			c62.6433,21.11,125.6072,42.0602,185.4572,70.428c-14.3787-57.7665-17.9735-117.5939-17.3324-176.9171
			c0.9159-40.0908,3.4344-80.2046,8.5631-119.9746c81.2806,28.1621,157.3638,70.1988,226.9446,120.5699
			c23.5829,17.3095,46.6848,35.3741,68.3903,55.042c1.9005,1.1677,3.4343,4.3271,6.2277,3.4802
			c16.1647-47.944,35.2827-94.8807,56.6903-140.7184C1169.8707,181.8321,1214.7012,101.0328,1262.5309,22.0417z"/>
	</g>
	<g>
		<linearGradient id="SVGID_4_" gradientUnits="userSpaceOnUse" x1="1044.2719" y1="965.9844" x2="1483.9668" y2="965.9844">
			<stop  offset="0" style="stop-color:#009E54"/>
			<stop  offset="0.2" style="stop-color:#FDE92B"/>
			<stop  offset="0.4" style="stop-color:#EB2D2E"/>
			<stop  offset="0.6" style="stop-color:#E91388"/>
			<stop  offset="0.8" style="stop-color:#333391"/>
			<stop  offset="1" style="stop-color:#00A8DE"/>
		</linearGradient>
		<path fill="url(#SVGID_4_)" d="M1150.7297,728.9314c36.4275-67.3373,73.2671-134.4908,113.2662-199.7672
			c38.7172,61.2238,72.9238,125.2178,107.7714,188.7312c21.7053,38.1674,38.8314,78.6931,54.9733,119.4709
			c31.6191,82.0135,55.8433,168.377,57.194,256.8243c0.6412,53.4618-8.2424,107.8396-31.8712,156.1732
			c-36.1296,75.6025-108.6412,129.1329-187.9987,152.4409c-40.1823-12.5011-78.7163-31.2299-111.6636-57.5831
			c-29.6273-23.4454-54.4009-52.981-72.0764-86.3634c-19.2097-36.0841-29.9479-76.2666-34.0005-116.8153
			c-5.3346-53.7137,0.1831-107.9541,11.3104-160.5919c10.9215-51.2873,27.1549-101.3375,46.4331-150.0602
			C1118.1718,796.6114,1132.4817,761.7638,1150.7297,728.9314z"/>
		<linearGradient id="SVGID_5_" gradientUnits="userSpaceOnUse" x1="1264.1194" y1="1402.8047" x2="1264.1194" y2="529.1642">
			<stop  offset="0" style="stop-color:#310908"/>
			<stop  offset="0.0782" style="stop-color:#671E11"/>
			<stop  offset="0.1514" style="stop-color:#C95A10"/>
			<stop  offset="0.2113" style="stop-color:#FDC339"/>
			<stop  offset="0.2662" style="stop-color:#A0796A"/>
			<stop  offset="0.3378" style="stop-color:#C1AA94"/>
			<stop  offset="0.4193" style="stop-color:#496589"/>
			<stop  offset="0.5008" style="stop-color:#4A5877"/>
			<stop  offset="0.5724" style="stop-color:#5F99C9"/>
			<stop  offset="0.604" style="stop-color:#55BCE8"/>
			<stop  offset="0.6789" style="stop-color:#6199C7"/>
			<stop  offset="0.7454" style="stop-color:#FAD88A"/>
			<stop  offset="0.8087" style="stop-color:#FEC63A"/>
			<stop  offset="0.8569" style="stop-color:#E78822"/>
			<stop  offset="0.9334" style="stop-color:#953A11"/>
			<stop  offset="1" style="stop-color:#3F0D05"/>
		</linearGradient>
		<path fill="url(#SVGID_5_)" d="M1264.1112,548.2189c30.1903,48.8793,58.1528,100.0165,85.2697,149.6075
			c4.5366,8.2964,9.0726,16.5919,13.6196,24.8791l0.0366,0.067l0.0377,0.0663c21.8975,38.5052,39.0643,79.5498,54.3522,118.1685
			c37.3967,97.0074,55.3508,177.5021,56.5084,253.3032c0.6879,57.347-9.6936,108.3732-30.8558,151.6614l-0.0195,0.0399
			l-0.0192,0.0402c-16.8323,35.2222-42.0553,66.2759-74.9684,92.2985c-30.1499,23.838-66.0258,42.4694-103.9294,53.994
			c-40.6743-12.9895-76.153-31.462-105.4956-54.932l-0.0204-0.0164l-0.0204-0.0162c-28.59-22.6244-52.6033-51.3948-69.4548-83.2208
			c-17.6228-33.1031-28.6842-71.1592-32.8765-113.1044c-4.766-47.9889-1.1211-99.5192,11.14-157.5208
			c10.0286-47.0935,25.0529-95.6403,45.9315-148.4146c15.5906-38.4449,28.8876-70.3184,46.1237-101.3299l0.0277-0.0497
			l0.0271-0.0501C1191.9198,673.8073,1226.558,610.4184,1264.1112,548.2189 M1263.9961,529.1642
			c-39.9991,65.2764-76.8387,132.43-113.2662,199.7672c-18.248,32.8324-32.558,67.68-46.662,102.4594
			c-19.2782,48.7227-35.5116,98.7728-46.4332,150.0601c-11.1272,52.6378-16.6449,106.8782-11.3103,160.5919
			c4.0526,40.5487,14.7908,80.7312,34.0005,116.8153c17.6754,33.3824,42.4491,62.918,72.0764,86.3634
			c32.9473,26.3533,71.4813,45.082,111.6636,57.5831c79.3575-23.308,151.8691-76.8384,187.9987-152.4409
			c23.6288-48.3336,32.5125-102.7114,31.8712-156.1732c-1.3507-88.4473-25.5748-174.8108-57.194-256.8242
			c-16.1418-40.7779-33.2679-81.3035-54.9733-119.4709C1336.9199,654.3819,1302.7133,590.3881,1263.9961,529.1642
			L1263.9961,529.1642z"/>
		<linearGradient id="SVGID_6_" gradientUnits="userSpaceOnUse" x1="1041.7719" y1="964.9252" x2="1486.4668" y2="964.9252">
			<stop  offset="0" style="stop-color:#201636"/>
			<stop  offset="0.1" style="stop-color:#132262"/>
			<stop  offset="0.2" style="stop-color:#332327"/>
			<stop  offset="0.3" style="stop-color:#A3306C"/>
			<stop  offset="0.4" style="stop-color:#D5BC35"/>
			<stop  offset="0.5" style="stop-color:#056215"/>
			<stop  offset="0.6" style="stop-color:#27FBFF"/>
			<stop  offset="0.7" style="stop-color:#00006A"/>
			<stop  offset="0.8" style="stop-color:#A21C2F"/>
			<stop  offset="0.9" style="stop-color:#7A0F0F"/>
			<stop  offset="1" style="stop-color:#F9D648"/>
		</linearGradient>
		<path fill="none" stroke="url(#SVGID_6_)" stroke-width="5" stroke-miterlimit="10" d="M1150.7297,728.9314
			c36.4275-67.3373,73.2671-134.4908,113.2662-199.7672c38.7172,61.2238,72.9238,125.2178,107.7714,188.7312
			c21.7053,38.1674,38.8314,78.6931,54.9733,119.4709c31.6191,82.0135,55.8433,168.377,57.194,256.8243
			c0.6412,53.4618-8.2424,107.8396-31.8712,156.1732c-36.1296,75.6025-108.6412,129.1329-187.9987,152.4409
			c-40.1823-12.5011-78.7163-31.2299-111.6636-57.5831c-29.6273-23.4454-54.4009-52.981-72.0764-86.3634
			c-19.2097-36.0841-29.9479-76.2666-34.0005-116.8153c-5.3346-53.7137,0.1831-107.9541,11.3104-160.5919
			c10.9215-51.2873,27.1549-101.3375,46.4331-150.0602C1118.1718,796.6114,1132.4817,761.7638,1150.7297,728.9314z"/>
	</g>
	<g>
		<linearGradient id="SVGID_7_" gradientUnits="userSpaceOnUse" x1="36.6586" y1="904.3943" x2="711.1503" y2="904.3943">
			<stop  offset="0" style="stop-color:#009E54"/>
			<stop  offset="0.2" style="stop-color:#FDE92B"/>
			<stop  offset="0.4" style="stop-color:#EB2D2E"/>
			<stop  offset="0.6" style="stop-color:#E91388"/>
			<stop  offset="0.8" style="stop-color:#333391"/>
			<stop  offset="1" style="stop-color:#00A8DE"/>
		</linearGradient>
		<path fill="url(#SVGID_7_)" d="M36.6586,561.4013c103.3295,8.472,206.0407,28.9179,303.5774,64.4296
			c76.0603,28.0934,149.6938,66.4899,209.2232,122.287c12.8446,12.1579,25.1168,25.0481,35.9465,39.0607
			c-9.9597,101.7495-6.0214,206.6818,25.8038,304.5621c19.2556,59.2314,51.9282,115.1667,99.9409,155.6466
			c-47.8984-5.1057-94.8578-17.149-140.3521-32.7413c-84.1884-29.3298-163.3858-74.4348-228.8452-135.2236
			c-72.3282-66.5123-126.1337-152.1893-157.6844-245.0778c-7.6013-20.4465-10.7151-42.1747-17.4926-62.8728
			c-14.7219-48.7227-34.1835-96.5062-62.3456-139.0929C86.5031,604.7667,63.7215,580.2217,36.6586,561.4013z"/>
		<linearGradient id="SVGID_8_" gradientUnits="userSpaceOnUse" x1="373.9044" y1="1247.3873" x2="373.9044" y2="561.4013">
			<stop  offset="0" style="stop-color:#310908"/>
			<stop  offset="0.0782" style="stop-color:#671E11"/>
			<stop  offset="0.1514" style="stop-color:#C95A10"/>
			<stop  offset="0.2113" style="stop-color:#FDC339"/>
			<stop  offset="0.2662" style="stop-color:#A0796A"/>
			<stop  offset="0.3378" style="stop-color:#C1AA94"/>
			<stop  offset="0.4193" style="stop-color:#496589"/>
			<stop  offset="0.5008" style="stop-color:#4A5877"/>
			<stop  offset="0.5724" style="stop-color:#5F99C9"/>
			<stop  offset="0.604" style="stop-color:#55BCE8"/>
			<stop  offset="0.6789" style="stop-color:#6199C7"/>
			<stop  offset="0.7454" style="stop-color:#FAD88A"/>
			<stop  offset="0.8087" style="stop-color:#FEC63A"/>
			<stop  offset="0.8569" style="stop-color:#E78822"/>
			<stop  offset="0.9334" style="stop-color:#953A11"/>
			<stop  offset="1" style="stop-color:#3F0D05"/>
		</linearGradient>
		<path fill="url(#SVGID_8_)" d="M68.8845,574.4966c95.2762,10.2446,185.2549,30.6299,267.8867,60.7149
			c86.1824,31.832,153.5162,71.1506,205.8138,120.169c12.8708,12.1827,23.5319,23.6104,32.4836,34.8263
			c-10.955,116.1552-2.2365,215.8427,26.6307,304.6256c17.7335,54.5493,45.0836,101.8027,79.8904,138.3994
			c-33.8268-5.6757-69.2775-14.9301-107.5205-28.0358c-42.1609-14.6892-82.4196-33.1913-119.665-54.9948
			c-38.6666-22.6356-74.2113-48.9144-105.6823-78.1396c-69.591-63.9952-123.1838-147.3086-154.9847-240.9332l-0.0458-0.1349
			l-0.0497-0.1336c-3.9808-10.7078-6.6582-21.7483-9.4929-33.4371c-2.303-9.4968-4.6842-19.3154-7.8328-28.951
			c-17.0504-56.402-37.8282-102.7096-63.5177-141.5682C99.9566,607.1291,85.2566,589.5956,68.8845,574.4966 M36.6586,561.4013
			c27.0629,18.8204,49.8445,43.3654,67.7719,70.9777c28.162,42.5867,47.6237,90.3701,62.3456,139.0929
			c6.7774,20.6981,9.8913,42.4263,17.4926,62.8727c31.5508,92.8885,85.3562,178.5654,157.6845,245.0778
			c65.4594,60.7888,144.6567,105.8938,228.8452,135.2236c45.4943,15.5923,92.4537,27.6356,140.3521,32.7413
			c-48.0127-40.4799-80.6854-96.4152-99.9409-155.6466c-31.8252-97.8804-35.7634-202.8126-25.8038-304.5621
			c-10.8297-14.0126-23.1019-26.9028-35.9465-39.0607c-59.5294-55.7971-133.1628-94.1937-209.2232-122.287
			C242.6992,590.3192,139.9881,569.8733,36.6586,561.4013L36.6586,561.4013z"/>
		<linearGradient id="SVGID_9_" gradientUnits="userSpaceOnUse" x1="27.6055" y1="904.4446" x2="719.0037" y2="904.4446">
			<stop  offset="0" style="stop-color:#201636"/>
			<stop  offset="0.1" style="stop-color:#132262"/>
			<stop  offset="0.2" style="stop-color:#332327"/>
			<stop  offset="0.3" style="stop-color:#A3306C"/>
			<stop  offset="0.4" style="stop-color:#D5BC35"/>
			<stop  offset="0.5" style="stop-color:#056215"/>
			<stop  offset="0.6" style="stop-color:#27FBFF"/>
			<stop  offset="0.7" style="stop-color:#00006A"/>
			<stop  offset="0.8" style="stop-color:#A21C2F"/>
			<stop  offset="0.9" style="stop-color:#7A0F0F"/>
			<stop  offset="1" style="stop-color:#F9D648"/>
		</linearGradient>
		<path fill="none" stroke="url(#SVGID_9_)" stroke-width="5" stroke-miterlimit="10" d="M36.6586,561.4013
			c103.3295,8.472,206.0407,28.9179,303.5774,64.4296c76.0603,28.0934,149.6938,66.4899,209.2232,122.287
			c12.8446,12.1579,25.1168,25.0481,35.9465,39.0607c-9.9597,101.7495-6.0214,206.6818,25.8038,304.5621
			c19.2556,59.2314,51.9282,115.1667,99.9409,155.6466c-47.8984-5.1057-94.8578-17.149-140.3521-32.7413
			c-84.1884-29.3298-163.3858-74.4348-228.8452-135.2236c-72.3282-66.5123-126.1337-152.1893-157.6844-245.0778
			c-7.6013-20.4465-10.7151-42.1747-17.4926-62.8728c-14.7219-48.7227-34.1835-96.5062-62.3456-139.0929
			C86.5031,604.7667,63.7215,580.2217,36.6586,561.4013z"/>
	</g>
	<g>
		<linearGradient id="SVGID_10_" gradientUnits="userSpaceOnUse" x1="1808.2329" y1="904.4516" x2="2482.6794" y2="904.4516">
			<stop  offset="0" style="stop-color:#009E54"/>
			<stop  offset="0.2" style="stop-color:#FDE92B"/>
			<stop  offset="0.4" style="stop-color:#EB2D2E"/>
			<stop  offset="0.6" style="stop-color:#E91388"/>
			<stop  offset="0.8" style="stop-color:#333391"/>
			<stop  offset="1" style="stop-color:#00A8DE"/>
		</linearGradient>
		<path fill="url(#SVGID_10_)" d="M2412.2056,569.0717c23.3997-3.2969,46.8909-5.8157,70.4739-7.4871
			c-34.4358,23.4225-60.7432,56.7821-81.1438,92.7057c-23.2163,41.0065-40.1589,85.3562-52.6836,130.7133
			c-4.3501,14.3099-6.5022,29.2152-11.585,43.3419c-28.3684,85.5848-74.9155,165.5837-138.2917,229.9898
			c-58.9114,60.9722-131.4456,108.0458-209.4982,140.6954c-57.9041,23.9038-118.8528,41.5336-181.2443,48.2878
			c31.1388-26.1241,56.2784-58.98,74.7322-95.1099c21.3621-41.2357,34.9392-86.1572,43.5482-131.6746
			c14.15-76.7473,15.7755-155.6925,7.1208-233.1721c51.882-64.1087,123.2262-109.4199,198.0272-142.3674
			C2220.8181,606.0943,2316.0884,582.6259,2412.2056,569.0717z"/>
		<linearGradient id="SVGID_11_" gradientUnits="userSpaceOnUse" x1="2145.4563" y1="1247.3186" x2="2145.4563" y2="561.5846">
			<stop  offset="0" style="stop-color:#310908"/>
			<stop  offset="0.0782" style="stop-color:#671E11"/>
			<stop  offset="0.1514" style="stop-color:#C95A10"/>
			<stop  offset="0.2113" style="stop-color:#FDC339"/>
			<stop  offset="0.2662" style="stop-color:#A0796A"/>
			<stop  offset="0.3378" style="stop-color:#C1AA94"/>
			<stop  offset="0.4193" style="stop-color:#496589"/>
			<stop  offset="0.5008" style="stop-color:#4A5877"/>
			<stop  offset="0.5724" style="stop-color:#5F99C9"/>
			<stop  offset="0.604" style="stop-color:#55BCE8"/>
			<stop  offset="0.6789" style="stop-color:#6199C7"/>
			<stop  offset="0.7454" style="stop-color:#FAD88A"/>
			<stop  offset="0.8087" style="stop-color:#FEC63A"/>
			<stop  offset="0.8569" style="stop-color:#E78822"/>
			<stop  offset="0.9334" style="stop-color:#953A11"/>
			<stop  offset="1" style="stop-color:#3F0D05"/>
		</linearGradient>
		<path fill="url(#SVGID_11_)" d="M2450.6377,574.433c-21.4006,19.8392-40.7637,44.924-57.8042,74.9305
			c-21.873,38.6342-39.9028,83.3356-53.5867,132.8557c-1.9426,6.4088-3.4563,12.8788-4.9204,19.1371
			c-1.9346,8.2691-3.7617,16.0795-6.4688,23.6037l-0.043,0.1191l-0.0398,0.1201c-28.771,86.7994-75.7739,164.9913-135.9275,226.1224
			l-0.032,0.0325l-0.0317,0.033c-28.2729,29.2618-60.5454,56.0409-95.9214,79.5931
			c-34.0796,22.6892-71.1709,42.4808-110.2007,58.8073c-50.5537,20.8694-100.0786,35.3967-147.6555,43.3363
			c21.1206-22.0291,39.1716-47.6044,53.8542-76.3462c20.2053-39.0103,34.7537-82.9667,44.4873-134.4303
			c13.6436-74.001,16.2258-152.0009,7.6836-231.8987c23.416-28.2698,52.2422-54.4129,85.7385-77.7508
			c30.803-21.4614,66.4407-41.161,105.8906-58.5375c42.2366-18.4283,88.0674-34.2294,136.2197-46.9642
			c44.2737-11.709,91.9558-21.2043,141.7207-28.222C2425.9543,577.2334,2438.3308,575.7164,2450.6377,574.433 M2482.6794,561.5846
			c-23.583,1.6714-47.0742,4.1902-70.4739,7.4871c-96.1172,13.5542-191.3875,37.0225-280.5442,75.9229
			c-74.801,32.9474-146.1453,78.2587-198.0271,142.3674c8.6545,77.4796,7.0291,156.4247-7.1208,233.172
			c-8.6091,45.5175-22.1863,90.439-43.5483,131.6747c-18.4536,36.1299-43.5933,68.9857-74.7321,95.1099
			c62.3915-6.7543,123.3402-24.384,181.2443-48.2878c78.0525-32.6497,150.5867-79.7233,209.498-140.6954
			c63.3762-64.4061,109.9233-144.4051,138.2917-229.9899c5.0828-14.1266,7.2349-29.032,11.585-43.3419
			c12.5247-45.3571,29.4673-89.7068,52.6836-130.7133C2421.9363,618.3667,2448.2437,585.007,2482.6794,561.5846L2482.6794,561.5846z
			"/>
		<linearGradient id="SVGID_12_" gradientUnits="userSpaceOnUse" x1="1800.3257" y1="904.5622" x2="2491.7549" y2="904.5622">
			<stop  offset="0" style="stop-color:#201636"/>
			<stop  offset="0.1" style="stop-color:#132262"/>
			<stop  offset="0.2" style="stop-color:#332327"/>
			<stop  offset="0.3" style="stop-color:#A3306C"/>
			<stop  offset="0.4" style="stop-color:#D5BC35"/>
			<stop  offset="0.5" style="stop-color:#056215"/>
			<stop  offset="0.6" style="stop-color:#27FBFF"/>
			<stop  offset="0.7" style="stop-color:#00006A"/>
			<stop  offset="0.8" style="stop-color:#A21C2F"/>
			<stop  offset="0.9" style="stop-color:#7A0F0F"/>
			<stop  offset="1" style="stop-color:#F9D648"/>
		</linearGradient>
		<path fill="none" stroke="url(#SVGID_12_)" stroke-width="5" stroke-miterlimit="10" d="M2412.2056,569.0717
			c23.3997-3.2969,46.8909-5.8157,70.4739-7.4871c-34.4358,23.4225-60.7432,56.7821-81.1438,92.7057
			c-23.2163,41.0065-40.1589,85.3562-52.6836,130.7133c-4.3501,14.3099-6.5022,29.2152-11.585,43.3419
			c-28.3684,85.5848-74.9155,165.5837-138.2917,229.9898c-58.9114,60.9722-131.4456,108.0458-209.4982,140.6954
			c-57.9041,23.9038-118.8528,41.5336-181.2443,48.2878c31.1388-26.1241,56.2784-58.98,74.7322-95.1099
			c21.3621-41.2357,34.9392-86.1572,43.5482-131.6746c14.15-76.7473,15.7755-155.6925,7.1208-233.1721
			c51.882-64.1087,123.2262-109.4199,198.0272-142.3674C2220.8181,606.0943,2316.0884,582.6259,2412.2056,569.0717z"/>
	</g>
	<g>
		<linearGradient id="SVGID_13_" gradientUnits="userSpaceOnUse" x1="629.2286" y1="1040.8505" x2="1081.5842" y2="1040.8505">
			<stop  offset="0" style="stop-color:#009E54"/>
			<stop  offset="0.2" style="stop-color:#FDE92B"/>
			<stop  offset="0.4" style="stop-color:#EB2D2E"/>
			<stop  offset="0.6" style="stop-color:#E91388"/>
			<stop  offset="0.8" style="stop-color:#333391"/>
			<stop  offset="1" style="stop-color:#00A8DE"/>
		</linearGradient>
		<path fill="url(#SVGID_13_)" d="M629.2286,718.5136c79.1744,26.2158,156.8144,58.4535,228.4101,101.5433
			c37.0228,22.8278,73.0381,48.6997,100.8568,82.5171c13.6918,17.1949,25.8723,36.7252,29.9708,58.5909
			c-8.4485,55.0649-11.5623,111.1369-6.8229,166.7055c4.0526,47.5778,13.7375,95.2239,33.9546,138.7262
			c15.2257,32.9705,37.5493,62.7123,65.9862,85.4249c-90.0499,23.285-191.3646,10.761-268.295-43.319
			c-63.3758-43.6627-105.8937-111.1141-134.4679-181.3358c-21.3847-52.7753-33.0845-109.2599-36.3129-166.0416
			c-3.549-55.7748,1.9232-111.5261,3.7321-167.278C646.1258,768.2436,645.462,740.0356,629.2286,718.5136z"/>
		<linearGradient id="SVGID_14_" gradientUnits="userSpaceOnUse" x1="855.4064" y1="1363.1873" x2="855.4064" y2="718.5136">
			<stop  offset="0" style="stop-color:#310908"/>
			<stop  offset="0.0782" style="stop-color:#671E11"/>
			<stop  offset="0.1514" style="stop-color:#C95A10"/>
			<stop  offset="0.2113" style="stop-color:#FDC339"/>
			<stop  offset="0.2662" style="stop-color:#A0796A"/>
			<stop  offset="0.3378" style="stop-color:#C1AA94"/>
			<stop  offset="0.4193" style="stop-color:#496589"/>
			<stop  offset="0.5008" style="stop-color:#4A5877"/>
			<stop  offset="0.5724" style="stop-color:#5F99C9"/>
			<stop  offset="0.604" style="stop-color:#55BCE8"/>
			<stop  offset="0.6789" style="stop-color:#6199C7"/>
			<stop  offset="0.7454" style="stop-color:#FAD88A"/>
			<stop  offset="0.8087" style="stop-color:#FEC63A"/>
			<stop  offset="0.8569" style="stop-color:#E78822"/>
			<stop  offset="0.9334" style="stop-color:#953A11"/>
			<stop  offset="1" style="stop-color:#3F0D05"/>
		</linearGradient>
		<path fill="url(#SVGID_14_)" d="M649.3672,735.915c78.3573,27.3082,144.981,57.7272,203.0632,92.6786
			c30.4741,18.7919,69.1693,44.8926,98.2942,80.2746c15.3513,19.2922,24.1548,36.0347,27.5923,52.5195
			c-8.8737,58.6438-11.1067,114.9301-6.6375,167.3313c4.7094,55.2869,16.1089,101.7655,34.84,142.0701
			c13.361,28.9325,31.7449,54.8246,53.7411,75.8501c-21.886,4.3494-44.2084,6.548-66.5911,6.548
			c-31.588,0-62.4181-4.3682-91.6337-12.9832c-30.3425-8.9473-58.2662-22.2983-82.9956-39.6825l-0.0386-0.0271l-0.0389-0.027
			c-54.3152-37.4204-98.3492-96.928-130.8733-176.8563c-20.3289-50.1696-32.3054-104.9615-35.597-162.8537l-0.0019-0.0337
			l-0.0022-0.0337c-2.4875-39.0942-0.4293-79.1207,1.561-117.8294c0.8165-15.8771,1.6607-32.2948,2.1862-48.4893l0.0059-0.1843
			l-0.0008-0.1844C656.1653,777.0945,656.0698,755.7629,649.3672,735.915 M629.2285,718.5136
			c16.2335,21.522,16.8973,49.73,17.012,75.5335c-1.8089,55.7519-7.2811,111.5032-3.7321,167.278
			c3.2285,56.7816,14.9282,113.2663,36.3129,166.0416c28.5742,70.2217,71.0921,137.6731,134.4679,181.3358
			c52.5422,36.9357,116.4463,54.4847,180.38,54.4847c29.6758,0,59.3677-3.7841,87.9151-11.1658
			c-28.4369-22.7126-50.7605-52.4545-65.9864-85.4249c-20.217-43.5023-29.902-91.1484-33.9546-138.7262
			c-4.7394-55.5686-1.6256-111.6406,6.8229-166.7056c-4.0985-21.8657-16.2791-41.396-29.9708-58.5909
			c-27.8187-33.8173-63.834-59.6892-100.8568-82.517C786.043,776.9672,708.403,744.7295,629.2285,718.5136L629.2285,718.5136z"/>
		<linearGradient id="SVGID_15_" gradientUnits="userSpaceOnUse" x1="622.4071" y1="1039.6543" x2="1087.0527" y2="1039.6543">
			<stop  offset="0" style="stop-color:#201636"/>
			<stop  offset="0.1" style="stop-color:#132262"/>
			<stop  offset="0.2" style="stop-color:#332327"/>
			<stop  offset="0.3" style="stop-color:#A3306C"/>
			<stop  offset="0.4" style="stop-color:#D5BC35"/>
			<stop  offset="0.5" style="stop-color:#056215"/>
			<stop  offset="0.6" style="stop-color:#27FBFF"/>
			<stop  offset="0.7" style="stop-color:#00006A"/>
			<stop  offset="0.8" style="stop-color:#A21C2F"/>
			<stop  offset="0.9" style="stop-color:#7A0F0F"/>
			<stop  offset="1" style="stop-color:#F9D648"/>
		</linearGradient>
		<path fill="none" stroke="url(#SVGID_15_)" stroke-width="5" stroke-miterlimit="10" d="M629.2286,718.5136
			c79.1744,26.2158,156.8144,58.4535,228.4101,101.5433c37.0228,22.8278,73.0381,48.6997,100.8568,82.5171
			c13.6918,17.1949,25.8723,36.7252,29.9708,58.5909c-8.4485,55.0649-11.5623,111.1369-6.8229,166.7055
			c4.0526,47.5778,13.7375,95.2239,33.9546,138.7262c15.2257,32.9705,37.5493,62.7123,65.9862,85.4249
			c-90.0499,23.285-191.3646,10.761-268.295-43.319c-63.3758-43.6627-105.8937-111.1141-134.4679-181.3358
			c-21.3847-52.7753-33.0845-109.2599-36.3129-166.0416c-3.549-55.7748,1.9232-111.5261,3.7321-167.278
			C646.1258,768.2436,645.462,740.0356,629.2286,718.5136z"/>
	</g>
	<g>
		<linearGradient id="SVGID_16_" gradientUnits="userSpaceOnUse" x1="1438.2573" y1="1040.9718" x2="1890.5438" y2="1040.9718">
			<stop  offset="0" style="stop-color:#009E54"/>
			<stop  offset="0.2" style="stop-color:#FDE92B"/>
			<stop  offset="0.4" style="stop-color:#EB2D2E"/>
			<stop  offset="0.6" style="stop-color:#E91388"/>
			<stop  offset="0.8" style="stop-color:#333391"/>
			<stop  offset="1" style="stop-color:#00A8DE"/>
		</linearGradient>
		<path fill="url(#SVGID_16_)" d="M1705.0865,795.8563c59.4607-30.9095,121.6235-56.7134,185.4573-77.0911
			c-19.0725,25.4376-16.5537,58.9341-16.462,88.9739c2.4958,55.6602,7.3495,111.4803,2.3353,167.1405
			c-6.5485,87.0046-35.4657,172.2462-83.8223,244.895c-23.5371,35.1685-53.1415,66.5358-88.1494,90.4619
			c-76.7244,52.8441-176.9397,64.7499-266.1881,41.8539c29.879-24.1782,53.3245-55.7518,68.5045-90.9885
			c18.5001-41.8539,27.4293-87.3025,31.436-132.6819c4.1902-50.8748,2.2441-102.162-4.6935-152.6929
			c-0.8472-7.1438-3.6633-14.4475-0.7328-21.3621c10.3032-34.0695,34.6187-61.6816,60.7888-84.8296
			C1627.2861,840.1595,1665.6598,816.6912,1705.0865,795.8563z"/>
		<linearGradient id="SVGID_17_" gradientUnits="userSpaceOnUse" x1="1664.4006" y1="1363.1782" x2="1664.4006" y2="718.7652">
			<stop  offset="0" style="stop-color:#310908"/>
			<stop  offset="0.0782" style="stop-color:#671E11"/>
			<stop  offset="0.1514" style="stop-color:#C95A10"/>
			<stop  offset="0.2113" style="stop-color:#FDC339"/>
			<stop  offset="0.2662" style="stop-color:#A0796A"/>
			<stop  offset="0.3378" style="stop-color:#C1AA94"/>
			<stop  offset="0.4193" style="stop-color:#496589"/>
			<stop  offset="0.5008" style="stop-color:#4A5877"/>
			<stop  offset="0.5724" style="stop-color:#5F99C9"/>
			<stop  offset="0.604" style="stop-color:#55BCE8"/>
			<stop  offset="0.6789" style="stop-color:#6199C7"/>
			<stop  offset="0.7454" style="stop-color:#FAD88A"/>
			<stop  offset="0.8087" style="stop-color:#FEC63A"/>
			<stop  offset="0.8569" style="stop-color:#E78822"/>
			<stop  offset="0.9334" style="stop-color:#953A11"/>
			<stop  offset="1" style="stop-color:#3F0D05"/>
		</linearGradient>
		<path fill="url(#SVGID_17_)" d="M1870.4573,735.941c-6.9182,20.3663-6.6741,42.5518-6.4512,62.8039
			c0.0327,2.9795,0.0667,6.0604,0.0757,9.0246l0.0007,0.2089l0.0093,0.2087c0.4822,10.7513,1.0603,21.67,1.6196,32.2292
			c2.3262,43.9169,4.7312,89.3289,0.7461,133.566l-0.0066,0.0734l-0.0056,0.0732c-6.4761,86.0414-34.8916,169.0681-82.1609,240.0836
			c-24.0186,35.8878-52.7787,65.4174-85.5112,87.7883c-24.5543,16.9119-52.2012,29.8915-82.1727,38.5781
			c-28.8453,8.3604-59.2756,12.5994-90.4454,12.5994c-22.3774,0-44.713-2.1875-66.6312-6.515
			c23.7688-22.7848,43.0809-50.6519,56.405-81.5652c17.0203-38.5234,27.564-82.9463,32.2303-135.7986l0.0027-0.0294l0.0023-0.0293
			c4.1057-49.849,2.5105-101.9281-4.7408-154.7888c-0.2554-2.1187-0.6306-4.1171-0.9935-6.0507
			c-0.7817-4.1642-1.4568-7.7606-0.4508-10.1343l0.2094-0.494l0.1553-0.5135c8.1859-27.0682,26.5565-52.5553,57.8131-80.2081
			c28.7565-25.043,63.5775-48.0305,109.5786-72.3412C1761.2302,777.9438,1815.1909,754.8604,1870.4573,735.941 M1890.5439,718.7652
			c-63.8337,20.3777-125.9966,46.1816-185.4573,77.0911c-39.4268,20.8349-77.8004,44.3032-111.5261,73.679
			c-26.1702,23.148-50.4856,50.7601-60.7888,84.8296c-2.9305,6.9146-0.1144,14.2183,0.7328,21.3621
			c6.9376,50.531,8.8837,101.8182,4.6935,152.693c-4.0067,45.3794-12.9359,90.828-31.436,132.6819
			c-15.1801,35.2367-38.6255,66.8103-68.5045,90.9885c28.5547,7.3254,58.2262,11.0879,87.8976,11.0879
			c63.0674,0,126.1138-17.0049,178.2905-52.9418c35.0079-23.9261,64.6123-55.2935,88.1494-90.4619
			c48.3564-72.6488,77.2737-157.8904,83.8223-244.895c5.0142-55.6601,0.1604-111.4802-2.3354-167.1404
			C1873.9902,777.6993,1871.4714,744.2028,1890.5439,718.7652L1890.5439,718.7652z"/>
		<linearGradient id="SVGID_18_" gradientUnits="userSpaceOnUse" x1="1432.818" y1="1039.8411" x2="1897.2385" y2="1039.8411">
			<stop  offset="0" style="stop-color:#201636"/>
			<stop  offset="0.1" style="stop-color:#132262"/>
			<stop  offset="0.2" style="stop-color:#332327"/>
			<stop  offset="0.3" style="stop-color:#A3306C"/>
			<stop  offset="0.4" style="stop-color:#D5BC35"/>
			<stop  offset="0.5" style="stop-color:#056215"/>
			<stop  offset="0.6" style="stop-color:#27FBFF"/>
			<stop  offset="0.7" style="stop-color:#00006A"/>
			<stop  offset="0.8" style="stop-color:#A21C2F"/>
			<stop  offset="0.9" style="stop-color:#7A0F0F"/>
			<stop  offset="1" style="stop-color:#F9D648"/>
		</linearGradient>
		<path fill="none" stroke="url(#SVGID_18_)" stroke-width="5" stroke-miterlimit="10" d="M1705.0865,795.8563
			c59.4607-30.9095,121.6235-56.7134,185.4573-77.0911c-19.0725,25.4376-16.5537,58.9341-16.462,88.9739
			c2.4958,55.6602,7.3495,111.4803,2.3353,167.1405c-6.5485,87.0046-35.4657,172.2462-83.8223,244.895
			c-23.5371,35.1685-53.1415,66.5358-88.1494,90.4619c-76.7244,52.8441-176.9397,64.7499-266.1881,41.8539
			c29.879-24.1782,53.3245-55.7518,68.5045-90.9885c18.5001-41.8539,27.4293-87.3025,31.436-132.6819
			c4.1902-50.8748,2.2441-102.162-4.6935-152.6929c-0.8472-7.1438-3.6633-14.4475-0.7328-21.3621
			c10.3032-34.0695,34.6187-61.6816,60.7888-84.8296C1627.2861,840.1595,1665.6598,816.6912,1705.0865,795.8563z"/>
	</g>
	<g>
		<linearGradient id="SVGID_19_" gradientUnits="userSpaceOnUse" x1="33.8653" y1="1339.616" x2="2492.135" y2="1339.616">
			<stop  offset="0" style="stop-color:#009E54"/>
			<stop  offset="0.2" style="stop-color:#FDE92B"/>
			<stop  offset="0.4" style="stop-color:#EB2D2E"/>
			<stop  offset="0.6" style="stop-color:#E91388"/>
			<stop  offset="0.8" style="stop-color:#333391"/>
			<stop  offset="1" style="stop-color:#00A8DE"/>
		</linearGradient>
		<path fill="url(#SVGID_19_)" d="M94.0586,1085.1233c41.625-15.7292,85.7914-24.2006,130.0491-27.933
			c9.1813,20.1028,24.1324,36.7711,38.5338,53.3019c29.2153,31.8939,59.9188,62.6207,94.1711,89.1567
			c29.6733,22.9188,59.9646,46.0669,94.8351,60.5602c68.6878,30.3595,144.0156,45.6774,219.1142,44.418
			c10.7612,0.8698,20.8811-3.6636,31.5278-4.5333c8.0135,15.6833,21.2246,27.8184,33.6799,39.9762
			c67.4287,61.6357,156.0589,97.537,246.3378,107.5193c30.1767,3.7095,60.6513,3.3198,90.9885,2.5417
			c10.3031,11.6307,24.842,18.1564,38.946,24.0408c31.1614,12.0433,64.2917,17.973,97.3307,22.2548
			c22.5295,2.2208,45.1965,5.8386,67.9092,3.6859c26.6051-1.6942,53.256-4.8307,79.1515-11.3792
			c21.11-5.6323,42.4033-13.0277,59.5983-26.9486c6.9601-5.6323,12.5469-12.7985,16.1643-20.9496
			c9.9597,2.7932,20.0569,5.9984,30.6119,5.1746c114.9834,1.8088,232.0966-33.1075,322.4438-105.3673
			c13.9204-12.0891,29.0778-23.8574,38.0299-40.3199c7.3954,0.275,14.4475,2.7021,21.7512,3.9614
			c56.37,2.2438,113.0604-5.2891,167.1176-21.3391c32.7412-10.1428,65.2994-22.1407,94.9496-39.5184
			c61.2466-38.3966,115.8538-86.8213,163.2483-141.3138c11.677-13.9209,23.6287-28.0704,30.9783-44.8533
			c41.2126,3.2739,82.3108,11.036,121.4402,24.6132c25.3689,9.1583,50.8977,21.2245,69.1685,41.7163
			c-41.1438,40.3201-93.1633,68.1613-147.7476,85.5853c37.6868,22.7814,71.8936,51.8591,99.4146,86.3406
			c-23.7205-3.9839-47.8757-3.3198-71.802-2.2208c-29.9709,1.488-59.8267,4.7162-89.6372,8.0594
			c28.8943,28.3678,56.5068,58.4076,79.2424,92.0416c-100.1011,29.6042-207.1396,40.5486-310.2402,20.9724
			c-31.8481-5.9984-63.1472-14.951-93.3698-26.6506c14.4016,15.8209,27.8876,32.4435,41.396,49.043
			c8.9521,11.4022,22.0033,18.5231,35.0081,24.4069c21.6366,9.5481,44.5096,16.0043,67.6119,20.9043
			c-44.8076,15.4778-91.9507,23.5143-138.9332,29.0778c-118.5776,12.8907-238.6444,2.3584-355.4136-20.4
			c-17.2865-3.5948-34.6416-6.9834-51.7222-11.3793c-24.4756,34.1377-55.3164,63.7649-91.2174,85.6765
			c-73.9082,45.2654-162.9733,62.0935-248.7875,55.6831c-76.9075-6.0907-153.2883-34.8247-210.6428-87.2109
			c-16.668-15.1115-31.642-32.1918-44.0059-50.9663c-107.9774,24.0406-218.7251,38.6028-329.5413,34.2292
			c-70.4967-2.8849-141.1536-12.7755-208.4678-34.4585c29.0093-6.6625,58.293-14.4469,84.2343-29.4668
			c16.5079-9.1355,25.9868-26.033,38.1903-39.7018c7.0292-8.5859,14.5159-16.7823,21.6597-25.2314
			c-95.545,37.2289-201.0953,44.1893-301.9063,28.3226c-34.2523-5.2891-68.0696-13.1422-101.3375-22.7814
			c22.7587-33.543,50.2339-63.6509,79.0827-91.9963c-33.6799-4.0979-67.4514-7.3724-101.3604-8.7001
			c-20.034-0.5494-40.1822-0.6641-59.9873,2.7704c27.704-34.1835,61.5443-63.4675,99.2081-86.1807
			c-54.149-18.0417-106.3516-45.1967-147.1979-85.6995C49.6404,1105.2261,71.9184,1094.0759,94.0586,1085.1233z"/>
		<linearGradient id="SVGID_20_" gradientUnits="userSpaceOnUse" x1="1263.0002" y1="1622.0416" x2="1263.0002" y2="1057.1904">
			<stop  offset="0" style="stop-color:#310908"/>
			<stop  offset="0.0782" style="stop-color:#671E11"/>
			<stop  offset="0.1514" style="stop-color:#C95A10"/>
			<stop  offset="0.2113" style="stop-color:#FDC339"/>
			<stop  offset="0.2662" style="stop-color:#A0796A"/>
			<stop  offset="0.3378" style="stop-color:#C1AA94"/>
			<stop  offset="0.4193" style="stop-color:#496589"/>
			<stop  offset="0.5008" style="stop-color:#4A5877"/>
			<stop  offset="0.5724" style="stop-color:#5F99C9"/>
			<stop  offset="0.604" style="stop-color:#55BCE8"/>
			<stop  offset="0.6789" style="stop-color:#6199C7"/>
			<stop  offset="0.7454" style="stop-color:#FAD88A"/>
			<stop  offset="0.8087" style="stop-color:#FEC63A"/>
			<stop  offset="0.8569" style="stop-color:#E78822"/>
			<stop  offset="0.9334" style="stop-color:#953A11"/>
			<stop  offset="1" style="stop-color:#3F0D05"/>
		</linearGradient>
		<path fill="url(#SVGID_20_)" d="M218.1719,1067.7655c9.3,17.6232,22.2985,32.5236,34.9128,46.9827l2.0167,2.3126l0.082,0.094
			l0.084,0.092c35.7454,39.0226,65.1743,66.8743,95.4327,90.3159c28.2447,21.816,60.2549,46.5402,97.0021,61.8356
			c67.0888,29.6359,141.2549,45.3008,214.4862,45.3008c2.7461,0,5.5309-0.0221,8.2853-0.0659
			c1.0107,0.0692,2.0432,0.1042,3.0767,0.1042c6.5273,0,12.4483-1.3367,18.1746-2.6289c1.7861-0.4032,3.5278-0.7964,5.2311-1.1343
			c7.9498,12.8621,18.6332,23.2377,29.012,33.3175c1.0083,0.979,2.0146,1.9564,3.0163,2.9341l0.1174,0.1143l0.1207,0.1107
			c65.9655,60.2982,155.4272,99.3867,251.9141,110.0697c17.3749,2.1333,36.0928,3.127,58.9033,3.127
			c9.9935,0,20.0917-0.1925,29.0769-0.4091c11.0422,10.8248,24.8824,17.1578,39.2748,23.1624l0.1219,0.051l0.1234,0.0477
			c34.0626,13.1643,69.4889,18.9353,99.6506,22.844l0.152,0.0197l0.1523,0.015c4.2903,0.423,8.6899,0.9086,12.9447,1.3787
			c13.4249,1.4823,27.307,3.015,41.281,3.015c5.4498,0,10.5067-0.2257,15.454-0.6896c31.7031-2.0254,57.3842-5.7292,80.8136-11.6545
			l0.0634-0.016l0.063-0.0166c20.4243-5.4493,43.9183-13.1373,63.3103-28.8367c5.9205-4.7908,10.983-10.5463,14.9235-16.9233
			c7.0098,1.8956,14.2858,3.506,22.1349,3.506c1.2499,0,2.4982-0.0422,3.7178-0.1259c2.7286,0.0405,5.4871,0.0612,8.2059,0.0612
			c119.705,0,233.4187-38.2217,320.194-107.6246l0.1581-0.1263l0.153-0.1329c1.67-1.4501,3.358-2.8958,5.051-4.3457
			c11.3656-9.7338,23.0693-19.7576,31.6782-32.863c2.113,0.384,4.291,0.8892,6.5337,1.4094c2.6501,0.6146,5.3901,1.25,8.262,1.7452
			l0.646,0.1113l0.6555,0.026c6.6008,0.2627,13.3157,0.396,19.957,0.396c50.3196,0,100.9229-7.4493,150.4045-22.1406l0.0566-0.0167
			l0.0564-0.0176c27.6941-8.5793,63.7522-20.9297,97.0464-40.4434l0.1289-0.0753l0.1265-0.0793
			c59.7002-37.427,115.3765-85.6144,165.4819-143.2236l0.0586-0.0677l0.0576-0.0682l0.4221-0.5034
			c10.4231-12.4249,21.1575-25.2218,28.9277-40.2234c40.0359,3.6793,77.7009,11.5696,112.0486,23.4796
			c18.3337,6.6204,40.833,16.1089,58.2417,32.0521c-17.5044,16.0149-37.4727,30.428-59.4861,42.927
			c-23.467,13.3243-49.3794,24.554-77.0173,33.3763l-20.9734,6.6949l18.8411,11.3894
			c30.5735,18.4817,57.5793,40.3367,80.5535,65.1625c-5.5737-0.298-11.4382-0.4429-17.7041-0.4429
			c-10.5107,0-20.8813,0.41-30.5593,0.8547c-29.7437,1.4767-59.6653,4.6786-90.2561,8.1093l-20.8945,2.3434l15.0037,14.73
			c29.9524,29.4069,52.0198,54.3154,70.0156,79.1539c-63.6497,17.6396-126.4111,26.5751-186.7612,26.5751
			c-36.1155,0-71.5708-3.2554-105.3955-9.678c-31.0952-5.8563-61.9177-14.6543-91.6106-26.149l-39.5637-15.3157l28.5586,31.373
			c13.8398,15.2034,27.1277,31.533,39.978,47.3247l1.0012,1.2303c10.5227,13.3651,25.4646,21.2869,38.6978,27.2743l0.0425,0.019
			l0.0422,0.0187c10.5781,4.6681,21.9614,8.845,34.3428,12.5906c-29.2883,7.671-62.3147,13.5165-102.7703,18.3082
			c-33.6875,3.6595-68.8342,5.5151-104.4675,5.5151c-77.724,0-158.7858-8.4333-247.8214-25.7827
			c-2.9594-0.6151-5.9209-1.2247-8.8828-1.8342c-13.972-2.875-28.42-5.848-42.328-9.4274l-6.63-1.7067l-3.9894,5.5643
			c-24.595,34.3036-54.3033,62.218-88.313,82.9757c-59.309,36.324-131.3914,55.5236-208.4547,55.5236
			c-11.3876,0-22.95-0.4323-34.3209-1.2816c-79.1071-6.265-151.8-36.319-204.7154-84.651
			c-16.5737-15.0256-30.829-31.531-42.371-49.0576l-3.7931-5.7598l-6.7319,1.4987
			c-105.0643,23.3921-199.2067,34.7634-287.8063,34.7634c-13.1207,0-26.2983-0.2573-39.1527-0.7646
			c-62.9478-2.576-119.2737-10.4243-171.046-23.8857c17.3158-5.1844,34.9515-11.8752,51.3235-21.3417
			c13.521-7.507,22.4623-18.929,31.1109-29.9763c3.262-4.1666,6.343-8.1023,9.619-11.7716l0.1423-0.1597l0.1356-0.1658
			c4.0173-4.907,8.3087-9.8219,12.4587-14.575c2.994-3.429,6.0897-6.9746,9.0997-10.535l25.424-30.0707l-36.691,14.2968
			c-60.664,23.6379-127.1169,35.6233-197.5123,35.6233c-32.6863,0-66.065-2.645-99.2373-7.866
			c-28.108-4.3402-56.5543-10.4801-86.5689-18.6957c18.1534-24.9702,40.6283-50.4064,69.7969-79.066l14.8103-14.552l-20.611-2.5077
			c-39.3943-4.7933-71.862-7.5786-102.177-8.7656l-0.0587-0.0023l-0.0587-0.0017c-5.042-0.1379-11.7017-0.2966-18.5037-0.2966
			c-6.2444,0-12.0572,0.1373-17.5376,0.4192c23.4187-25.1719,50.2943-46.9675,80.1519-64.9731l18.5674-11.197l-20.5703-6.8536
			c-55.4356-18.4703-101.2082-44.1907-136.225-76.5271c14.3775-13.457,32.9424-22.1235,49.7015-28.9055
			C133.3512,1080.9786,173.8484,1072.0145,218.1719,1067.7655 M224.1077,1057.1904
			c-44.2577,3.7324-88.4243,12.2037-130.0493,27.9327c-22.14,8.9526-44.418,20.1029-60.193,38.5343
			c40.8463,40.5027,93.0487,67.6577,147.1977,85.6993c-37.6637,22.713-71.504,51.9973-99.208,86.1807
			c13.8045-2.3938,27.7745-3.0634,41.7576-3.0634c6.0781,0,12.1598,0.1266,18.2297,0.293
			c33.909,1.3278,67.6803,4.6021,101.3603,8.7001c-28.8487,28.3453-56.324,58.4532-79.0827,91.9963
			c33.268,9.6393,67.0853,17.4923,101.3374,22.7813c33.2509,5.2334,67.0104,7.983,100.7634,7.983
			c68.5804,0,137.1121-11.3561,201.1429-36.3057c-7.1437,8.4493-14.6303,16.6456-21.6597,25.2317
			c-12.2033,13.6687-21.6823,30.5663-38.1903,39.7017c-25.941,15.02-55.225,22.8043-84.2343,29.4667
			c67.3143,21.683,137.9713,31.5736,208.4679,34.4586c13.196,0.5209,26.3723,0.7729,39.5617,0.7729
			c97.5721,0,194.8599-13.8243,289.9797-35.0022c12.3636,18.7747,27.338,35.855,44.006,50.9663
			c57.3544,52.3864,133.7354,81.1204,210.6428,87.2109c11.6591,0.871,23.3773,1.3129,35.1102,1.3129
			c74.625,0,149.8105-17.8805,213.6774-56.9958c35.901-21.9116,66.7417-51.5389,91.2174-85.6766
			c17.0803,4.396,34.4357,7.7843,51.7219,11.3793c82.1962,16.02,166.0082,25.9807,249.8026,25.9807
			c35.2454,0,70.5024-1.7639,105.6111-5.5807c46.9824-5.5636,94.1252-13.6,138.9331-29.0776
			c-23.1025-4.9-45.9753-11.3563-67.6118-20.9043c-13.0049-5.884-26.0559-13.0048-35.0081-24.407
			c-13.5085-16.5994-26.9941-33.222-41.396-49.0431c30.2224,11.6997,61.5215,20.6523,93.3699,26.6508
			c35.4343,6.7281,71.3228,9.8505,107.2461,9.8505c68.5994,0,137.2964-11.3932,202.9939-30.8229
			c-22.7354-33.634-50.3481-63.674-79.2424-92.0416c29.8105-3.3434,59.6663-6.5714,89.6375-8.0593
			c9.9973-0.4592,20.0339-0.8425,30.063-0.8425c13.9729,0.0001,27.9299,0.744,41.7388,3.0631
			c-27.521-34.4813-61.7278-63.559-99.4146-86.3406c54.5842-17.4241,106.6038-45.265,147.7476-85.5853
			c-18.271-20.4917-43.7996-32.5577-69.1685-41.7161c-39.1294-13.5773-80.2275-21.3394-121.4402-24.6133
			c-7.3496,16.783-19.3013,30.9323-30.9783,44.8533c-47.3945,54.4927-102.0017,102.9174-163.2483,141.3137
			c-29.6499,17.3777-62.2083,29.3756-94.9495,39.5187c-47.8081,14.1946-97.6741,21.7271-147.5583,21.7271
			c-6.5205,0-13.0427-0.1287-19.5591-0.3881c-7.3042-1.2594-14.3562-3.6864-21.7515-3.9613
			c-8.9519,16.4623-24.1094,28.2306-38.0297,40.3199c-88.125,70.4823-201.7079,105.4341-313.9481,105.4341
			c-2.8304,0-5.6676-0.0222-8.4958-0.0668c-1.1481,0.0896-2.2899,0.1315-3.4275,0.1315c-9.3217,0-18.3081-2.8167-27.1846-5.3062
			c-3.6173,8.151-9.204,15.3174-16.1643,20.9497c-17.1949,13.9207-38.4883,21.316-59.598,26.9484
			c-25.8956,6.5486-52.5466,9.6849-79.1516,11.3793c-4.8907,0.4636-9.7787,0.6595-14.6643,0.6595
			c-17.8031,0-35.5667-2.6028-53.2448-4.3455c-33.0389-4.2817-66.1693-10.2114-97.3309-22.2548
			c-14.104-5.8843-28.6427-12.4099-38.946-24.0406c-11.0746,0.2841-22.1659,0.5162-33.256,0.5162
			c-19.2894,0-38.5717-0.7028-57.7324-3.0582c-90.2791-9.9823-178.9091-45.8833-246.338-107.5193
			c-12.4554-12.1577-25.6664-24.2927-33.6797-39.9761c-9.7227,0.7942-19.0057,4.6437-28.7394,4.6437
			c-0.9251,0-1.8546-0.0348-2.7886-0.1104c-2.8602,0.048-5.7128,0.0719-8.5732,0.0719c-72.2454,0-144.4691-15.2867-210.5407-44.4899
			c-34.8707-14.4933-65.162-37.6414-94.835-60.5603c-34.2523-26.536-64.956-57.2627-94.1714-89.1566
			C248.2401,1093.9614,233.2891,1077.2931,224.1077,1057.1904L224.1077,1057.1904z"/>
		<linearGradient id="SVGID_21_" gradientUnits="userSpaceOnUse" x1="30.4553" y1="1339.5465" x2="2495.5881" y2="1339.5465">
			<stop  offset="0" style="stop-color:#201636"/>
			<stop  offset="0.1" style="stop-color:#132262"/>
			<stop  offset="0.2" style="stop-color:#332327"/>
			<stop  offset="0.3" style="stop-color:#A3306C"/>
			<stop  offset="0.4" style="stop-color:#D5BC35"/>
			<stop  offset="0.5" style="stop-color:#056215"/>
			<stop  offset="0.6" style="stop-color:#27FBFF"/>
			<stop  offset="0.7" style="stop-color:#00006A"/>
			<stop  offset="0.8" style="stop-color:#A21C2F"/>
			<stop  offset="0.9" style="stop-color:#7A0F0F"/>
			<stop  offset="1" style="stop-color:#F9D648"/>
		</linearGradient>
		<path fill="none" stroke="url(#SVGID_21_)" stroke-width="5" stroke-miterlimit="10" d="M94.0586,1085.1233
			c41.625-15.7292,85.7914-24.2006,130.0491-27.933c9.1813,20.1028,24.1324,36.7711,38.5338,53.3019
			c29.2153,31.8939,59.9188,62.6207,94.1711,89.1567c29.6733,22.9188,59.9646,46.0669,94.8351,60.5602
			c68.6878,30.3595,144.0156,45.6774,219.1142,44.418c10.7612,0.8698,20.8811-3.6636,31.5278-4.5333
			c8.0135,15.6833,21.2246,27.8184,33.6799,39.9762c67.4287,61.6357,156.0589,97.537,246.3378,107.5193
			c30.1767,3.7095,60.6513,3.3198,90.9885,2.5417c10.3031,11.6307,24.842,18.1564,38.946,24.0408
			c31.1614,12.0433,64.2917,17.973,97.3307,22.2548c22.5295,2.2208,45.1965,5.8386,67.9092,3.6859
			c26.6051-1.6942,53.256-4.8307,79.1515-11.3792c21.11-5.6323,42.4033-13.0277,59.5983-26.9486
			c6.9601-5.6323,12.5469-12.7985,16.1643-20.9496c9.9597,2.7932,20.0569,5.9984,30.6119,5.1746
			c114.9834,1.8088,232.0966-33.1075,322.4438-105.3673c13.9204-12.0891,29.0778-23.8574,38.0299-40.3199
			c7.3954,0.275,14.4475,2.7021,21.7512,3.9614c56.37,2.2438,113.0604-5.2891,167.1176-21.3391
			c32.7412-10.1428,65.2994-22.1407,94.9496-39.5184c61.2466-38.3966,115.8538-86.8213,163.2483-141.3138
			c11.677-13.9209,23.6287-28.0704,30.9783-44.8533c41.2126,3.2739,82.3108,11.036,121.4402,24.6132
			c25.3689,9.1583,50.8977,21.2245,69.1685,41.7163c-41.1438,40.3201-93.1633,68.1613-147.7476,85.5853
			c37.6868,22.7814,71.8936,51.8591,99.4146,86.3406c-23.7205-3.9839-47.8757-3.3198-71.802-2.2208
			c-29.9709,1.488-59.8267,4.7162-89.6372,8.0594c28.8943,28.3678,56.5068,58.4076,79.2424,92.0416
			c-100.1011,29.6042-207.1396,40.5486-310.2402,20.9724c-31.8481-5.9984-63.1472-14.951-93.3698-26.6506
			c14.4016,15.8209,27.8876,32.4435,41.396,49.043c8.9521,11.4022,22.0033,18.5231,35.0081,24.4069
			c21.6366,9.5481,44.5096,16.0043,67.6119,20.9043c-44.8076,15.4778-91.9507,23.5143-138.9332,29.0778
			c-118.5776,12.8907-238.6444,2.3584-355.4136-20.4c-17.2865-3.5948-34.6416-6.9834-51.7222-11.3793
			c-24.4756,34.1377-55.3164,63.7649-91.2174,85.6765c-73.9082,45.2654-162.9733,62.0935-248.7875,55.6831
			c-76.9075-6.0907-153.2883-34.8247-210.6428-87.2109c-16.668-15.1115-31.642-32.1918-44.0059-50.9663
			c-107.9774,24.0406-218.7251,38.6028-329.5413,34.2292c-70.4967-2.8849-141.1536-12.7755-208.4678-34.4585
			c29.0093-6.6625,58.293-14.4469,84.2343-29.4668c16.5079-9.1355,25.9868-26.033,38.1903-39.7018
			c7.0292-8.5859,14.5159-16.7823,21.6597-25.2314c-95.545,37.2289-201.0953,44.1893-301.9063,28.3226
			c-34.2523-5.2891-68.0696-13.1422-101.3375-22.7814c22.7587-33.543,50.2339-63.6509,79.0827-91.9963
			c-33.6799-4.0979-67.4514-7.3724-101.3604-8.7001c-20.034-0.5494-40.1822-0.6641-59.9873,2.7704
			c27.704-34.1835,61.5443-63.4675,99.2081-86.1807c-54.149-18.0417-106.3516-45.1967-147.1979-85.6995
			C49.6404,1105.2261,71.9184,1094.0759,94.0586,1085.1233z"/>
	</g>
</g>
</svg>
